%TF.GenerationSoftware,KiCad,Pcbnew,(6.0.2)*%
%TF.CreationDate,2022-04-17T22:42:43-04:00*%
%TF.ProjectId,macropadfr,6d616372-6f70-4616-9466-722e6b696361,rev?*%
%TF.SameCoordinates,Original*%
%TF.FileFunction,Copper,L2,Bot*%
%TF.FilePolarity,Positive*%
%FSLAX46Y46*%
G04 Gerber Fmt 4.6, Leading zero omitted, Abs format (unit mm)*
G04 Created by KiCad (PCBNEW (6.0.2)) date 2022-04-17 22:42:43*
%MOMM*%
%LPD*%
G01*
G04 APERTURE LIST*
G04 Aperture macros list*
%AMRoundRect*
0 Rectangle with rounded corners*
0 $1 Rounding radius*
0 $2 $3 $4 $5 $6 $7 $8 $9 X,Y pos of 4 corners*
0 Add a 4 corners polygon primitive as box body*
4,1,4,$2,$3,$4,$5,$6,$7,$8,$9,$2,$3,0*
0 Add four circle primitives for the rounded corners*
1,1,$1+$1,$2,$3*
1,1,$1+$1,$4,$5*
1,1,$1+$1,$6,$7*
1,1,$1+$1,$8,$9*
0 Add four rect primitives between the rounded corners*
20,1,$1+$1,$2,$3,$4,$5,0*
20,1,$1+$1,$4,$5,$6,$7,0*
20,1,$1+$1,$6,$7,$8,$9,0*
20,1,$1+$1,$8,$9,$2,$3,0*%
%AMHorizOval*
0 Thick line with rounded ends*
0 $1 width*
0 $2 $3 position (X,Y) of the first rounded end (center of the circle)*
0 $4 $5 position (X,Y) of the second rounded end (center of the circle)*
0 Add line between two ends*
20,1,$1,$2,$3,$4,$5,0*
0 Add two circle primitives to create the rounded ends*
1,1,$1,$2,$3*
1,1,$1,$4,$5*%
%AMRotRect*
0 Rectangle, with rotation*
0 The origin of the aperture is its center*
0 $1 length*
0 $2 width*
0 $3 Rotation angle, in degrees counterclockwise*
0 Add horizontal line*
21,1,$1,$2,0,0,$3*%
G04 Aperture macros list end*
%TA.AperFunction,ComponentPad*%
%ADD10HorizOval,2.500000X-0.604462X-0.948815X0.604462X0.948815X0*%
%TD*%
%TA.AperFunction,ComponentPad*%
%ADD11HorizOval,2.500000X-0.019724X-0.289328X0.019724X0.289328X0*%
%TD*%
%TA.AperFunction,SMDPad,CuDef*%
%ADD12RoundRect,0.250000X-0.350000X-0.450000X0.350000X-0.450000X0.350000X0.450000X-0.350000X0.450000X0*%
%TD*%
%TA.AperFunction,SMDPad,CuDef*%
%ADD13R,1.700000X1.000000*%
%TD*%
%TA.AperFunction,SMDPad,CuDef*%
%ADD14RoundRect,0.250000X-0.337500X-0.475000X0.337500X-0.475000X0.337500X0.475000X-0.337500X0.475000X0*%
%TD*%
%TA.AperFunction,ComponentPad*%
%ADD15R,1.600000X1.600000*%
%TD*%
%TA.AperFunction,SMDPad,CuDef*%
%ADD16R,2.500000X0.500000*%
%TD*%
%TA.AperFunction,SMDPad,CuDef*%
%ADD17R,1.200000X1.200000*%
%TD*%
%TA.AperFunction,ComponentPad*%
%ADD18C,1.600000*%
%TD*%
%TA.AperFunction,SMDPad,CuDef*%
%ADD19R,0.500000X1.400000*%
%TD*%
%TA.AperFunction,SMDPad,CuDef*%
%ADD20R,2.350000X0.800000*%
%TD*%
%TA.AperFunction,ComponentPad*%
%ADD21O,1.500000X4.000000*%
%TD*%
%TA.AperFunction,SMDPad,CuDef*%
%ADD22RotRect,1.400000X1.200000X40.000000*%
%TD*%
%TA.AperFunction,SMDPad,CuDef*%
%ADD23RoundRect,0.250000X0.475000X-0.337500X0.475000X0.337500X-0.475000X0.337500X-0.475000X-0.337500X0*%
%TD*%
%TA.AperFunction,SMDPad,CuDef*%
%ADD24RoundRect,0.250000X0.337500X0.475000X-0.337500X0.475000X-0.337500X-0.475000X0.337500X-0.475000X0*%
%TD*%
%TA.AperFunction,SMDPad,CuDef*%
%ADD25RoundRect,0.250000X-0.475000X0.337500X-0.475000X-0.337500X0.475000X-0.337500X0.475000X0.337500X0*%
%TD*%
%TA.AperFunction,SMDPad,CuDef*%
%ADD26RoundRect,0.137500X-0.600000X-0.137500X0.600000X-0.137500X0.600000X0.137500X-0.600000X0.137500X0*%
%TD*%
%TA.AperFunction,SMDPad,CuDef*%
%ADD27RoundRect,0.137500X-0.137500X-0.600000X0.137500X-0.600000X0.137500X0.600000X-0.137500X0.600000X0*%
%TD*%
%TA.AperFunction,SMDPad,CuDef*%
%ADD28RoundRect,0.250000X-0.450000X0.350000X-0.450000X-0.350000X0.450000X-0.350000X0.450000X0.350000X0*%
%TD*%
%TA.AperFunction,ViaPad*%
%ADD29C,0.800000*%
%TD*%
%TA.AperFunction,Conductor*%
%ADD30C,0.250000*%
%TD*%
G04 APERTURE END LIST*
D10*
%TO.P,K1,1*%
%TO.N,/col0*%
X158670000Y-79823750D03*
D11*
%TO.P,K1,2*%
%TO.N,/toD1*%
X164445000Y-78553750D03*
%TD*%
D10*
%TO.P,K4,1*%
%TO.N,/col1*%
X177720000Y-98873750D03*
D11*
%TO.P,K4,2*%
%TO.N,/toD4*%
X183495000Y-97603750D03*
%TD*%
D10*
%TO.P,K3,1*%
%TO.N,/col1*%
X177720000Y-79823750D03*
D11*
%TO.P,K3,2*%
%TO.N,/toD2*%
X183495000Y-78553750D03*
%TD*%
D10*
%TO.P,K2,1*%
%TO.N,/col0*%
X158670000Y-98873750D03*
D11*
%TO.P,K2,2*%
%TO.N,/toD3*%
X164445000Y-97603750D03*
%TD*%
D12*
%TO.P,Rusb1,1*%
%TO.N,Net-(Micro_USB1-Pad2)*%
X191750000Y-84250000D03*
%TO.P,Rusb1,2*%
%TO.N,Net-(Rusb1-Pad2)*%
X193750000Y-84250000D03*
%TD*%
D13*
%TO.P,reset_switch1,1,1*%
%TO.N,GND*%
X200850000Y-109200000D03*
X207150000Y-109200000D03*
%TO.P,reset_switch1,2,2*%
%TO.N,Net-(Rreset1-Pad2)*%
X200850000Y-105400000D03*
X207150000Y-105400000D03*
%TD*%
D14*
%TO.P,Cusb1,1*%
%TO.N,GND*%
X191962500Y-90250000D03*
%TO.P,Cusb1,2*%
%TO.N,Net-(Cusb1-Pad2)*%
X194037500Y-90250000D03*
%TD*%
D15*
%TO.P,D3,1,K*%
%TO.N,/row0*%
X184875000Y-88106250D03*
D16*
X183675000Y-88106250D03*
D17*
X182550000Y-88106250D03*
%TO.P,D3,2,A*%
%TO.N,/toD2*%
X179400000Y-88106250D03*
D16*
X178275000Y-88106250D03*
D18*
X177075000Y-88106250D03*
%TD*%
D15*
%TO.P,D2,1,K*%
%TO.N,/row1*%
X165825000Y-107156250D03*
D17*
X163500000Y-107156250D03*
D16*
X164625000Y-107156250D03*
%TO.P,D2,2,A*%
%TO.N,/toD3*%
X159225000Y-107156250D03*
D17*
X160350000Y-107156250D03*
D18*
X158025000Y-107156250D03*
%TD*%
D19*
%TO.P,Micro_USB1,1,VUSB*%
%TO.N,VCC*%
X169850000Y-79250000D03*
%TO.P,Micro_USB1,2,D-*%
%TO.N,Net-(Micro_USB1-Pad2)*%
X170650000Y-79250000D03*
%TO.P,Micro_USB1,3,D+*%
%TO.N,Net-(Micro_USB1-Pad3)*%
X171450000Y-79250000D03*
%TO.P,Micro_USB1,4,ID*%
%TO.N,unconnected-(Micro_USB1-Pad4)*%
X172250000Y-79250000D03*
%TO.P,Micro_USB1,5,GND*%
%TO.N,GND*%
X173050000Y-79250000D03*
D20*
%TO.P,Micro_USB1,6,SHIELD*%
X174125000Y-74050000D03*
X168775000Y-74050000D03*
D21*
X175100000Y-76850000D03*
X167800000Y-76850000D03*
%TD*%
D22*
%TO.P,clock1,1,1*%
%TO.N,Net-(CCryst1-Pad1)*%
X202017232Y-79785929D03*
%TO.P,clock1,2,2*%
%TO.N,GND*%
X203702529Y-78371796D03*
%TO.P,clock1,3,3*%
%TO.N,Net-(CCryst2-Pad1)*%
X204795268Y-79674071D03*
%TO.P,clock1,4,4*%
%TO.N,GND*%
X203109971Y-81088204D03*
%TD*%
D23*
%TO.P,CCryst2,1*%
%TO.N,Net-(CCryst2-Pad1)*%
X207906250Y-80037500D03*
%TO.P,CCryst2,2*%
%TO.N,GND*%
X207906250Y-77962500D03*
%TD*%
D24*
%TO.P,Cd1,1*%
%TO.N,VCC*%
X197893750Y-83487500D03*
%TO.P,Cd1,2*%
%TO.N,GND*%
X195818750Y-83487500D03*
%TD*%
D14*
%TO.P,Cd2,1*%
%TO.N,VCC*%
X210106250Y-83487500D03*
%TO.P,Cd2,2*%
%TO.N,GND*%
X212181250Y-83487500D03*
%TD*%
D25*
%TO.P,Cd4,1*%
%TO.N,VCC*%
X201618750Y-99118750D03*
%TO.P,Cd4,2*%
%TO.N,GND*%
X201618750Y-101193750D03*
%TD*%
D26*
%TO.P,processor1,1,PE6/AIN0*%
%TO.N,unconnected-(processor1-Pad1)*%
X198337500Y-94631250D03*
%TO.P,processor1,2,UVcc*%
%TO.N,VCC*%
X198337500Y-93831250D03*
%TO.P,processor1,3,D-*%
%TO.N,Net-(Rusb1-Pad2)*%
X198337500Y-93031250D03*
%TO.P,processor1,4,D+*%
%TO.N,Net-(Rusb2-Pad2)*%
X198337500Y-92231250D03*
%TO.P,processor1,5,UGnd*%
%TO.N,GND*%
X198337500Y-91431250D03*
%TO.P,processor1,6,UCap*%
%TO.N,Net-(Cusb1-Pad2)*%
X198337500Y-90631250D03*
%TO.P,processor1,7,VBus*%
%TO.N,unconnected-(processor1-Pad7)*%
X198337500Y-89831250D03*
%TO.P,processor1,8,PB0/SS*%
%TO.N,unconnected-(processor1-Pad8)*%
X198337500Y-89031250D03*
%TO.P,processor1,9,PB1/SCK*%
%TO.N,unconnected-(processor1-Pad9)*%
X198337500Y-88231250D03*
%TO.P,processor1,10,PB2/MOSI*%
%TO.N,unconnected-(processor1-Pad10)*%
X198337500Y-87431250D03*
%TO.P,processor1,11,PB3/MISO*%
%TO.N,unconnected-(processor1-Pad11)*%
X198337500Y-86631250D03*
D27*
%TO.P,processor1,12,PB7/~{RTS}*%
%TO.N,unconnected-(processor1-Pad12)*%
X200000000Y-84968750D03*
%TO.P,processor1,13,~{RESET}*%
%TO.N,Net-(Rreset1-Pad2)*%
X200800000Y-84968750D03*
%TO.P,processor1,14,VCC*%
%TO.N,VCC*%
X201600000Y-84968750D03*
%TO.P,processor1,15,GND*%
%TO.N,GND*%
X202400000Y-84968750D03*
%TO.P,processor1,16,XTAL1*%
%TO.N,Net-(CCryst1-Pad1)*%
X203200000Y-84968750D03*
%TO.P,processor1,17,XTAL2*%
%TO.N,Net-(CCryst2-Pad1)*%
X204000000Y-84968750D03*
%TO.P,processor1,18,PD0/INT0*%
%TO.N,unconnected-(processor1-Pad18)*%
X204800000Y-84968750D03*
%TO.P,processor1,19,PD1/INT1*%
%TO.N,unconnected-(processor1-Pad19)*%
X205600000Y-84968750D03*
%TO.P,processor1,20,PD2/RXD1*%
%TO.N,unconnected-(processor1-Pad20)*%
X206400000Y-84968750D03*
%TO.P,processor1,21,PD3/TXD1*%
%TO.N,unconnected-(processor1-Pad21)*%
X207200000Y-84968750D03*
%TO.P,processor1,22,PD5/XCK1*%
%TO.N,unconnected-(processor1-Pad22)*%
X208000000Y-84968750D03*
D26*
%TO.P,processor1,23,GND*%
%TO.N,GND*%
X209662500Y-86631250D03*
%TO.P,processor1,24,AVCC*%
%TO.N,VCC*%
X209662500Y-87431250D03*
%TO.P,processor1,25,ICP1/PD4*%
%TO.N,unconnected-(processor1-Pad25)*%
X209662500Y-88231250D03*
%TO.P,processor1,26,T1/PD6*%
%TO.N,unconnected-(processor1-Pad26)*%
X209662500Y-89031250D03*
%TO.P,processor1,27,T0/PD7*%
%TO.N,unconnected-(processor1-Pad27)*%
X209662500Y-89831250D03*
%TO.P,processor1,28,PB4*%
%TO.N,unconnected-(processor1-Pad28)*%
X209662500Y-90631250D03*
%TO.P,processor1,29,PB5*%
%TO.N,unconnected-(processor1-Pad29)*%
X209662500Y-91431250D03*
%TO.P,processor1,30,PB6*%
%TO.N,unconnected-(processor1-Pad30)*%
X209662500Y-92231250D03*
%TO.P,processor1,31,PC6*%
%TO.N,unconnected-(processor1-Pad31)*%
X209662500Y-93031250D03*
%TO.P,processor1,32,PC7*%
%TO.N,unconnected-(processor1-Pad32)*%
X209662500Y-93831250D03*
%TO.P,processor1,33,~{HWB/PE2}*%
%TO.N,Net-(Rboot1-Pad1)*%
X209662500Y-94631250D03*
D27*
%TO.P,processor1,34,VCC*%
%TO.N,VCC*%
X208000000Y-96293750D03*
%TO.P,processor1,35,GND*%
%TO.N,GND*%
X207200000Y-96293750D03*
%TO.P,processor1,36,PF7*%
%TO.N,unconnected-(processor1-Pad36)*%
X206400000Y-96293750D03*
%TO.P,processor1,37,PF6*%
%TO.N,unconnected-(processor1-Pad37)*%
X205600000Y-96293750D03*
%TO.P,processor1,38,PF5*%
%TO.N,/col1*%
X204800000Y-96293750D03*
%TO.P,processor1,39,PF4*%
%TO.N,/col0*%
X204000000Y-96293750D03*
%TO.P,processor1,40,PF1*%
%TO.N,/row1*%
X203200000Y-96293750D03*
%TO.P,processor1,41,PF0*%
%TO.N,/row0*%
X202400000Y-96293750D03*
%TO.P,processor1,42,AREF*%
%TO.N,unconnected-(processor1-Pad42)*%
X201600000Y-96293750D03*
%TO.P,processor1,43,GND*%
%TO.N,GND*%
X200800000Y-96293750D03*
%TO.P,processor1,44,AVCC*%
%TO.N,VCC*%
X200000000Y-96293750D03*
%TD*%
D28*
%TO.P,Rreset1,1*%
%TO.N,VCC*%
X196250000Y-100500000D03*
%TO.P,Rreset1,2*%
%TO.N,Net-(Rreset1-Pad2)*%
X196250000Y-102500000D03*
%TD*%
D17*
%TO.P,D4,1,K*%
%TO.N,/row1*%
X182550000Y-107156250D03*
D16*
X183675000Y-107156250D03*
D15*
X184875000Y-107156250D03*
D17*
%TO.P,D4,2,A*%
%TO.N,/toD4*%
X179400000Y-107156250D03*
D16*
X178275000Y-107156250D03*
D18*
X177075000Y-107156250D03*
%TD*%
D25*
%TO.P,Cd3,1*%
%TO.N,VCC*%
X206381250Y-99118750D03*
%TO.P,Cd3,2*%
%TO.N,GND*%
X206381250Y-101193750D03*
%TD*%
D28*
%TO.P,Rboot1,1*%
%TO.N,Net-(Rboot1-Pad1)*%
X211656250Y-97250000D03*
%TO.P,Rboot1,2*%
%TO.N,GND*%
X211656250Y-99250000D03*
%TD*%
D12*
%TO.P,Rusb2,1*%
%TO.N,Net-(Micro_USB1-Pad3)*%
X191750000Y-79500000D03*
%TO.P,Rusb2,2*%
%TO.N,Net-(Rusb2-Pad2)*%
X193750000Y-79500000D03*
%TD*%
D15*
%TO.P,D1,1,K*%
%TO.N,/row0*%
X165825000Y-88106250D03*
D16*
X164625000Y-88106250D03*
D17*
X163500000Y-88106250D03*
D16*
%TO.P,D1,2,A*%
%TO.N,/toD1*%
X159225000Y-88106250D03*
D18*
X158025000Y-88106250D03*
D17*
X160350000Y-88106250D03*
%TD*%
D23*
%TO.P,CCryst1,1*%
%TO.N,Net-(CCryst1-Pad1)*%
X198656250Y-80037500D03*
%TO.P,CCryst1,2*%
%TO.N,GND*%
X198656250Y-77962500D03*
%TD*%
D24*
%TO.P,Cu1,1*%
%TO.N,VCC*%
X195512500Y-95393750D03*
%TO.P,Cu1,2*%
%TO.N,GND*%
X193437500Y-95393750D03*
%TD*%
D29*
%TO.N,/row0*%
X192500000Y-96750000D03*
X201512299Y-97931750D03*
%TO.N,/col0*%
X191000000Y-100250000D03*
X203068546Y-100318545D03*
%TO.N,/col1*%
X204000000Y-100750000D03*
%TO.N,Net-(Rreset1-Pad2)*%
X205056750Y-101000000D03*
X201000000Y-87750000D03*
%TO.N,Net-(Cusb1-Pad2)*%
X195250000Y-90250000D03*
X197000000Y-90250000D03*
%TO.N,GND*%
X192400980Y-88207253D03*
X201570333Y-92500333D03*
X192406454Y-93343545D03*
X195756039Y-87981441D03*
X206220000Y-89290000D03*
X207168750Y-102393750D03*
X206520000Y-87778356D03*
X202893549Y-102881049D03*
X200595735Y-91425735D03*
%TD*%
D30*
%TO.N,VCC*%
X198337500Y-93831250D02*
X199214818Y-93831250D01*
X186868750Y-86781243D02*
X195481257Y-95393750D01*
X198928394Y-93831250D02*
X200000000Y-94902856D01*
X197075000Y-93831250D02*
X198337500Y-93831250D01*
X210106250Y-83487500D02*
X210724520Y-84105770D01*
X210475000Y-87431250D02*
X209662500Y-87431250D01*
X201600000Y-84968750D02*
X201600000Y-85559644D01*
X199214818Y-93831250D02*
X204543212Y-88502856D01*
X173500000Y-86750000D02*
X186868750Y-86750000D01*
X208000000Y-88502856D02*
X209071606Y-87431250D01*
X201600000Y-85559644D02*
X204543212Y-88502856D01*
X197893750Y-83487500D02*
X201110604Y-83487500D01*
X195512500Y-99762500D02*
X196250000Y-100500000D01*
X201110604Y-83487500D02*
X201600000Y-83976896D01*
X195512500Y-95393750D02*
X195512500Y-99762500D01*
X198337500Y-93831250D02*
X198928394Y-93831250D01*
X206381250Y-98503394D02*
X208000000Y-96884644D01*
X208000000Y-96293750D02*
X208000000Y-88502856D01*
X169850000Y-79250000D02*
X169850000Y-83100000D01*
X210724520Y-84105770D02*
X210724520Y-87181730D01*
X195512500Y-95393750D02*
X197075000Y-93831250D01*
X206381250Y-99118750D02*
X206381250Y-98503394D01*
X200000000Y-97500000D02*
X200000000Y-96293750D01*
X200000000Y-94902856D02*
X200000000Y-96293750D01*
X195481257Y-95393750D02*
X195512500Y-95393750D01*
X210724520Y-87181730D02*
X210475000Y-87431250D01*
X201618750Y-99118750D02*
X200000000Y-97500000D01*
X169850000Y-83100000D02*
X173500000Y-86750000D01*
X186868750Y-86750000D02*
X186868750Y-86781243D01*
X204543212Y-88502856D02*
X208000000Y-88502856D01*
X201600000Y-83976896D02*
X201600000Y-84968750D01*
X209071606Y-87431250D02*
X209662500Y-87431250D01*
X208000000Y-96884644D02*
X208000000Y-96293750D01*
%TO.N,Net-(Micro_USB1-Pad2)*%
X189750000Y-86250000D02*
X191750000Y-84250000D01*
X170650000Y-83150000D02*
X173750000Y-86250000D01*
X173750000Y-86250000D02*
X189750000Y-86250000D01*
X170650000Y-79250000D02*
X170650000Y-83150000D01*
%TO.N,Net-(Micro_USB1-Pad3)*%
X173847889Y-85712171D02*
X176212171Y-85712171D01*
X185537829Y-85712171D02*
X191750000Y-79500000D01*
X171450000Y-83314282D02*
X173847889Y-85712171D01*
X176212171Y-85712171D02*
X185537829Y-85712171D01*
X171450000Y-79250000D02*
X171450000Y-83314282D01*
%TO.N,/row0*%
X165825000Y-88106250D02*
X167468750Y-89750000D01*
X184875000Y-88125000D02*
X184875000Y-88106250D01*
X184875000Y-88106250D02*
X192500000Y-95731250D01*
X192500000Y-95731250D02*
X192500000Y-96750000D01*
X201512299Y-97931750D02*
X202400000Y-97044049D01*
X183250000Y-89750000D02*
X184875000Y-88125000D01*
X202400000Y-97044049D02*
X202400000Y-96293750D01*
X167468750Y-89750000D02*
X183250000Y-89750000D01*
%TO.N,/row1*%
X202080763Y-100281730D02*
X198080763Y-100281730D01*
X203200000Y-99162493D02*
X202080763Y-100281730D01*
X166949511Y-108280761D02*
X183750489Y-108280761D01*
X190455770Y-101575480D02*
X184875000Y-107156250D01*
X183750489Y-108280761D02*
X184875000Y-107156250D01*
X203200000Y-96293750D02*
X203200000Y-99162493D01*
X165825000Y-107156250D02*
X166949511Y-108280761D01*
X196787013Y-101575480D02*
X190455770Y-101575480D01*
X198080763Y-100281730D02*
X196787013Y-101575480D01*
%TO.N,/col0*%
X186487829Y-104762171D02*
X160943967Y-104762171D01*
X204000000Y-99387091D02*
X203068546Y-100318545D01*
X191000000Y-100250000D02*
X186487829Y-104762171D01*
X158670000Y-102488204D02*
X158670000Y-98873750D01*
X160943967Y-104762171D02*
X158670000Y-102488204D01*
X204000000Y-96293750D02*
X204000000Y-99387091D01*
%TO.N,/col1*%
X204800000Y-96293750D02*
X204800000Y-99950000D01*
X204800000Y-99950000D02*
X204000000Y-100750000D01*
%TO.N,Net-(Rboot1-Pad1)*%
X211656250Y-97250000D02*
X211656250Y-96625000D01*
X211656250Y-96625000D02*
X209662500Y-94631250D01*
%TO.N,Net-(Rreset1-Pad2)*%
X199150000Y-105400000D02*
X196250000Y-102500000D01*
X205056750Y-103306750D02*
X205056750Y-101000000D01*
X200850000Y-105400000D02*
X199150000Y-105400000D01*
X207150000Y-105400000D02*
X205056750Y-103306750D01*
X201000000Y-87750000D02*
X201000000Y-85168750D01*
X201000000Y-85168750D02*
X200800000Y-84968750D01*
X200850000Y-105400000D02*
X207150000Y-105400000D01*
%TO.N,Net-(Rusb1-Pad2)*%
X193750000Y-84250000D02*
X193750000Y-87243757D01*
X195193757Y-93031250D02*
X198337500Y-93031250D01*
X193750000Y-87243757D02*
X193125480Y-87868277D01*
X193125480Y-90962973D02*
X195193757Y-93031250D01*
X193125480Y-87868277D02*
X193125480Y-90962973D01*
%TO.N,Net-(Rusb2-Pad2)*%
X194906730Y-80656730D02*
X194906730Y-88156730D01*
X194906730Y-88156730D02*
X196275489Y-89525489D01*
X197481250Y-92231250D02*
X198337500Y-92231250D01*
X196275489Y-89525489D02*
X196275489Y-91025489D01*
X196275489Y-91025489D02*
X197481250Y-92231250D01*
X193750000Y-79500000D02*
X194906730Y-80656730D01*
%TO.N,Net-(Cusb1-Pad2)*%
X194037500Y-90250000D02*
X195250000Y-90250000D01*
X197000000Y-90250000D02*
X197381250Y-90631250D01*
X197381250Y-90631250D02*
X198337500Y-90631250D01*
%TO.N,Net-(CCryst1-Pad1)*%
X203200000Y-84377856D02*
X203200000Y-84968750D01*
X201520366Y-82698222D02*
X203200000Y-84377856D01*
X198907821Y-79785929D02*
X198656250Y-80037500D01*
X201520366Y-80282795D02*
X201520366Y-82698222D01*
X202017232Y-79785929D02*
X198907821Y-79785929D01*
X202017232Y-79785929D02*
X201520366Y-80282795D01*
%TO.N,Net-(CCryst2-Pad1)*%
X207906250Y-80037500D02*
X207542821Y-79674071D01*
X207542821Y-79674071D02*
X204795268Y-79674071D01*
X204000000Y-84377856D02*
X204000000Y-84968750D01*
X204795268Y-79674071D02*
X204795268Y-83582588D01*
X204795268Y-83582588D02*
X204000000Y-84377856D01*
%TO.N,GND*%
X171442500Y-76717500D02*
X173050000Y-78325000D01*
X206520000Y-87778356D02*
X207091250Y-87207106D01*
X203997477Y-92500333D02*
X203857023Y-92500333D01*
X201570333Y-92500333D02*
X200800000Y-93270666D01*
X173050000Y-78325000D02*
X173050000Y-79250000D01*
X202400000Y-85559644D02*
X203471606Y-86631250D01*
X207200000Y-96293750D02*
X207200000Y-95702856D01*
X207091250Y-86631250D02*
X209662500Y-86631250D01*
X171457500Y-76717500D02*
X171442500Y-76717500D01*
X198337500Y-91431250D02*
X200590220Y-91431250D01*
X203997477Y-92500333D02*
X203997477Y-91512523D01*
X202400000Y-84968750D02*
X202400000Y-85559644D01*
X174125000Y-74050000D02*
X171457500Y-76717500D01*
X200590220Y-91431250D02*
X200595735Y-91425735D01*
X207120000Y-86660000D02*
X207091250Y-86631250D01*
X203109971Y-81088204D02*
X203548844Y-80649331D01*
X207168750Y-102393750D02*
X207168750Y-101981250D01*
X203471606Y-86631250D02*
X207091250Y-86631250D01*
X193437500Y-94374591D02*
X192406454Y-93343545D01*
X203548844Y-80649331D02*
X203548844Y-78525481D01*
X200800000Y-93270666D02*
X200800000Y-96293750D01*
X168775000Y-74050000D02*
X171442500Y-76717500D01*
X207168750Y-101981250D02*
X206381250Y-101193750D01*
X201618750Y-101606250D02*
X202893549Y-102881049D01*
X201618750Y-101193750D02*
X201618750Y-101606250D01*
X207200000Y-95702856D02*
X203997477Y-92500333D01*
X191962500Y-88645733D02*
X192400980Y-88207253D01*
X195818750Y-87918730D02*
X195818750Y-83487500D01*
X203548844Y-78525481D02*
X203702529Y-78371796D01*
X207091250Y-87207106D02*
X207091250Y-86631250D01*
X195756039Y-87981441D02*
X195818750Y-87918730D01*
X191962500Y-90250000D02*
X191962500Y-88645733D01*
X203997477Y-91512523D02*
X206220000Y-89290000D01*
X201570333Y-92500333D02*
X203857023Y-92500333D01*
X193437500Y-95393750D02*
X193437500Y-94374591D01*
%TD*%
%TA.AperFunction,Conductor*%
%TO.N,GND*%
G36*
X167034122Y-74125502D02*
G01*
X167080615Y-74179158D01*
X167092001Y-74231500D01*
X167092001Y-74495350D01*
X167071999Y-74563471D01*
X167042705Y-74595312D01*
X166949499Y-74666832D01*
X166941276Y-74674393D01*
X166797688Y-74832194D01*
X166790933Y-74841094D01*
X166677566Y-75021815D01*
X166672489Y-75031781D01*
X166592920Y-75229714D01*
X166589685Y-75240429D01*
X166546223Y-75450301D01*
X166545020Y-75459438D01*
X166542105Y-75509990D01*
X166542000Y-75513637D01*
X166542000Y-76577885D01*
X166546475Y-76593124D01*
X166547865Y-76594329D01*
X166555548Y-76596000D01*
X167527885Y-76596000D01*
X167543124Y-76591525D01*
X167544329Y-76590135D01*
X167546000Y-76582452D01*
X167546000Y-74428000D01*
X167566002Y-74359879D01*
X167619658Y-74313386D01*
X167672000Y-74302000D01*
X167928000Y-74302000D01*
X167996121Y-74322002D01*
X168042614Y-74375658D01*
X168054000Y-74428000D01*
X168054000Y-76577885D01*
X168058475Y-76593124D01*
X168059865Y-76594329D01*
X168067548Y-76596000D01*
X169039885Y-76596000D01*
X169055124Y-76591525D01*
X169056329Y-76590135D01*
X169058000Y-76582452D01*
X169058000Y-75545825D01*
X169057751Y-75540230D01*
X169043622Y-75381922D01*
X169041640Y-75370908D01*
X168985347Y-75165135D01*
X168981454Y-75154667D01*
X168973621Y-75138244D01*
X168962348Y-75068148D01*
X168990761Y-75003085D01*
X169049839Y-74963711D01*
X169087347Y-74957999D01*
X169994669Y-74957999D01*
X170001490Y-74957629D01*
X170052352Y-74952105D01*
X170067604Y-74948479D01*
X170188054Y-74903324D01*
X170203649Y-74894786D01*
X170305724Y-74818285D01*
X170318285Y-74805724D01*
X170394786Y-74703649D01*
X170403324Y-74688054D01*
X170448478Y-74567606D01*
X170452105Y-74552351D01*
X170457631Y-74501486D01*
X170458000Y-74494672D01*
X170458000Y-74231500D01*
X170478002Y-74163379D01*
X170531658Y-74116886D01*
X170584000Y-74105500D01*
X172316001Y-74105500D01*
X172384122Y-74125502D01*
X172430615Y-74179158D01*
X172442001Y-74231500D01*
X172442001Y-74494669D01*
X172442371Y-74501490D01*
X172447895Y-74552352D01*
X172451521Y-74567604D01*
X172496676Y-74688054D01*
X172505214Y-74703649D01*
X172581715Y-74805724D01*
X172594276Y-74818285D01*
X172696351Y-74894786D01*
X172711946Y-74903324D01*
X172832394Y-74948478D01*
X172847649Y-74952105D01*
X172898514Y-74957631D01*
X172905328Y-74958000D01*
X173815697Y-74958000D01*
X173883818Y-74978002D01*
X173930311Y-75031658D01*
X173940415Y-75101932D01*
X173932605Y-75130996D01*
X173892917Y-75229724D01*
X173889685Y-75240429D01*
X173846223Y-75450301D01*
X173845020Y-75459438D01*
X173842105Y-75509990D01*
X173842000Y-75513637D01*
X173842000Y-76577885D01*
X173846475Y-76593124D01*
X173847865Y-76594329D01*
X173855548Y-76596000D01*
X174827885Y-76596000D01*
X174843124Y-76591525D01*
X174844329Y-76590135D01*
X174846000Y-76582452D01*
X174846000Y-74428000D01*
X174866002Y-74359879D01*
X174919658Y-74313386D01*
X174972000Y-74302000D01*
X175228000Y-74302000D01*
X175296121Y-74322002D01*
X175342614Y-74375658D01*
X175354000Y-74428000D01*
X175354000Y-76577885D01*
X175358475Y-76593124D01*
X175359865Y-76594329D01*
X175367548Y-76596000D01*
X176339885Y-76596000D01*
X176355124Y-76591525D01*
X176356329Y-76590135D01*
X176358000Y-76582452D01*
X176358000Y-75545825D01*
X176357751Y-75540230D01*
X176343622Y-75381922D01*
X176341640Y-75370908D01*
X176285349Y-75165140D01*
X176281451Y-75154659D01*
X176189603Y-74962097D01*
X176183918Y-74952484D01*
X176059425Y-74779233D01*
X176052117Y-74770767D01*
X175898915Y-74622304D01*
X175890231Y-74615272D01*
X175863724Y-74597460D01*
X175818339Y-74542864D01*
X175808000Y-74492878D01*
X175808000Y-74231500D01*
X175828002Y-74163379D01*
X175881658Y-74116886D01*
X175934000Y-74105500D01*
X210177715Y-74105500D01*
X210245836Y-74125502D01*
X210292329Y-74179158D01*
X210302433Y-74249432D01*
X210272939Y-74314012D01*
X210258030Y-74328585D01*
X210213727Y-74365235D01*
X210213715Y-74365246D01*
X210210668Y-74367767D01*
X209994596Y-74597860D01*
X209809066Y-74853221D01*
X209807159Y-74856690D01*
X209807157Y-74856693D01*
X209726677Y-75003085D01*
X209657003Y-75129821D01*
X209655550Y-75133490D01*
X209655548Y-75133495D01*
X209613210Y-75240429D01*
X209540807Y-75423298D01*
X209462310Y-75729025D01*
X209422750Y-76042179D01*
X209422750Y-76357821D01*
X209462310Y-76670975D01*
X209540807Y-76976702D01*
X209542260Y-76980371D01*
X209542260Y-76980372D01*
X209645019Y-77239910D01*
X209657003Y-77270179D01*
X209658909Y-77273647D01*
X209658910Y-77273648D01*
X209784352Y-77501824D01*
X209809066Y-77546779D01*
X209906131Y-77680378D01*
X209992018Y-77798591D01*
X209994596Y-77802140D01*
X210210668Y-78032233D01*
X210213719Y-78034757D01*
X210213720Y-78034758D01*
X210298351Y-78104771D01*
X210453875Y-78233432D01*
X210720381Y-78402562D01*
X210723960Y-78404246D01*
X210723967Y-78404250D01*
X211002394Y-78535267D01*
X211002398Y-78535269D01*
X211005984Y-78536956D01*
X211009756Y-78538182D01*
X211009757Y-78538182D01*
X211031790Y-78545341D01*
X211306178Y-78634495D01*
X211616230Y-78693641D01*
X211852412Y-78708500D01*
X212010088Y-78708500D01*
X212246270Y-78693641D01*
X212556322Y-78634495D01*
X212830710Y-78545341D01*
X212852743Y-78538182D01*
X212852744Y-78538182D01*
X212856516Y-78536956D01*
X212860102Y-78535269D01*
X212860106Y-78535267D01*
X213138533Y-78404250D01*
X213138540Y-78404246D01*
X213142119Y-78402562D01*
X213408625Y-78233432D01*
X213411680Y-78230904D01*
X213411685Y-78230901D01*
X213598185Y-78076615D01*
X213663422Y-78048605D01*
X213733447Y-78060312D01*
X213786027Y-78108019D01*
X213804500Y-78173700D01*
X213804500Y-107563800D01*
X213784498Y-107631921D01*
X213730842Y-107678414D01*
X213660568Y-107688518D01*
X213598185Y-107660885D01*
X213411685Y-107506599D01*
X213411677Y-107506593D01*
X213408625Y-107504068D01*
X213142119Y-107334938D01*
X213138540Y-107333254D01*
X213138533Y-107333250D01*
X212860106Y-107202233D01*
X212860102Y-107202231D01*
X212856516Y-107200544D01*
X212556322Y-107103005D01*
X212246270Y-107043859D01*
X212010088Y-107029000D01*
X211852412Y-107029000D01*
X211616230Y-107043859D01*
X211306178Y-107103005D01*
X211005984Y-107200544D01*
X211002398Y-107202231D01*
X211002394Y-107202233D01*
X210723967Y-107333250D01*
X210723960Y-107333254D01*
X210720381Y-107334938D01*
X210453875Y-107504068D01*
X210450823Y-107506593D01*
X210243128Y-107678414D01*
X210210668Y-107705267D01*
X209994596Y-107935360D01*
X209992269Y-107938562D01*
X209992268Y-107938564D01*
X209954076Y-107991131D01*
X209809066Y-108190721D01*
X209807159Y-108194190D01*
X209807157Y-108194193D01*
X209742210Y-108312331D01*
X209657003Y-108467321D01*
X209655550Y-108470990D01*
X209655548Y-108470995D01*
X209573092Y-108679256D01*
X209540807Y-108760798D01*
X209462310Y-109066525D01*
X209422750Y-109379679D01*
X209422750Y-109695321D01*
X209462310Y-110008475D01*
X209540807Y-110314202D01*
X209657003Y-110607679D01*
X209809066Y-110884279D01*
X209994596Y-111139640D01*
X209997306Y-111142526D01*
X209997307Y-111142527D01*
X210049866Y-111198497D01*
X210081917Y-111261848D01*
X210074630Y-111332469D01*
X210030319Y-111387940D01*
X209958016Y-111410750D01*
X151991984Y-111410750D01*
X151923863Y-111390748D01*
X151877370Y-111337092D01*
X151867266Y-111266818D01*
X151900134Y-111198497D01*
X151952693Y-111142527D01*
X151952694Y-111142526D01*
X151955404Y-111139640D01*
X152140934Y-110884279D01*
X152292997Y-110607679D01*
X152409193Y-110314202D01*
X152487690Y-110008475D01*
X152521016Y-109744669D01*
X199492001Y-109744669D01*
X199492371Y-109751490D01*
X199497895Y-109802352D01*
X199501521Y-109817604D01*
X199546676Y-109938054D01*
X199555214Y-109953649D01*
X199631715Y-110055724D01*
X199644276Y-110068285D01*
X199746351Y-110144786D01*
X199761946Y-110153324D01*
X199882394Y-110198478D01*
X199897649Y-110202105D01*
X199948514Y-110207631D01*
X199955328Y-110208000D01*
X200577885Y-110208000D01*
X200593124Y-110203525D01*
X200594329Y-110202135D01*
X200596000Y-110194452D01*
X200596000Y-110189884D01*
X201104000Y-110189884D01*
X201108475Y-110205123D01*
X201109865Y-110206328D01*
X201117548Y-110207999D01*
X201744669Y-110207999D01*
X201751490Y-110207629D01*
X201802352Y-110202105D01*
X201817604Y-110198479D01*
X201938054Y-110153324D01*
X201953649Y-110144786D01*
X202055724Y-110068285D01*
X202068285Y-110055724D01*
X202144786Y-109953649D01*
X202153324Y-109938054D01*
X202198478Y-109817606D01*
X202202105Y-109802351D01*
X202207631Y-109751486D01*
X202208000Y-109744672D01*
X202208000Y-109744669D01*
X205792001Y-109744669D01*
X205792371Y-109751490D01*
X205797895Y-109802352D01*
X205801521Y-109817604D01*
X205846676Y-109938054D01*
X205855214Y-109953649D01*
X205931715Y-110055724D01*
X205944276Y-110068285D01*
X206046351Y-110144786D01*
X206061946Y-110153324D01*
X206182394Y-110198478D01*
X206197649Y-110202105D01*
X206248514Y-110207631D01*
X206255328Y-110208000D01*
X206877885Y-110208000D01*
X206893124Y-110203525D01*
X206894329Y-110202135D01*
X206896000Y-110194452D01*
X206896000Y-110189884D01*
X207404000Y-110189884D01*
X207408475Y-110205123D01*
X207409865Y-110206328D01*
X207417548Y-110207999D01*
X208044669Y-110207999D01*
X208051490Y-110207629D01*
X208102352Y-110202105D01*
X208117604Y-110198479D01*
X208238054Y-110153324D01*
X208253649Y-110144786D01*
X208355724Y-110068285D01*
X208368285Y-110055724D01*
X208444786Y-109953649D01*
X208453324Y-109938054D01*
X208498478Y-109817606D01*
X208502105Y-109802351D01*
X208507631Y-109751486D01*
X208508000Y-109744672D01*
X208508000Y-109472115D01*
X208503525Y-109456876D01*
X208502135Y-109455671D01*
X208494452Y-109454000D01*
X207422115Y-109454000D01*
X207406876Y-109458475D01*
X207405671Y-109459865D01*
X207404000Y-109467548D01*
X207404000Y-110189884D01*
X206896000Y-110189884D01*
X206896000Y-109472115D01*
X206891525Y-109456876D01*
X206890135Y-109455671D01*
X206882452Y-109454000D01*
X205810116Y-109454000D01*
X205794877Y-109458475D01*
X205793672Y-109459865D01*
X205792001Y-109467548D01*
X205792001Y-109744669D01*
X202208000Y-109744669D01*
X202208000Y-109472115D01*
X202203525Y-109456876D01*
X202202135Y-109455671D01*
X202194452Y-109454000D01*
X201122115Y-109454000D01*
X201106876Y-109458475D01*
X201105671Y-109459865D01*
X201104000Y-109467548D01*
X201104000Y-110189884D01*
X200596000Y-110189884D01*
X200596000Y-109472115D01*
X200591525Y-109456876D01*
X200590135Y-109455671D01*
X200582452Y-109454000D01*
X199510116Y-109454000D01*
X199494877Y-109458475D01*
X199493672Y-109459865D01*
X199492001Y-109467548D01*
X199492001Y-109744669D01*
X152521016Y-109744669D01*
X152527250Y-109695321D01*
X152527250Y-109379679D01*
X152487690Y-109066525D01*
X152452093Y-108927885D01*
X199492000Y-108927885D01*
X199496475Y-108943124D01*
X199497865Y-108944329D01*
X199505548Y-108946000D01*
X200577885Y-108946000D01*
X200593124Y-108941525D01*
X200594329Y-108940135D01*
X200596000Y-108932452D01*
X200596000Y-108927885D01*
X201104000Y-108927885D01*
X201108475Y-108943124D01*
X201109865Y-108944329D01*
X201117548Y-108946000D01*
X202189884Y-108946000D01*
X202205123Y-108941525D01*
X202206328Y-108940135D01*
X202207999Y-108932452D01*
X202207999Y-108927885D01*
X205792000Y-108927885D01*
X205796475Y-108943124D01*
X205797865Y-108944329D01*
X205805548Y-108946000D01*
X206877885Y-108946000D01*
X206893124Y-108941525D01*
X206894329Y-108940135D01*
X206896000Y-108932452D01*
X206896000Y-108927885D01*
X207404000Y-108927885D01*
X207408475Y-108943124D01*
X207409865Y-108944329D01*
X207417548Y-108946000D01*
X208489884Y-108946000D01*
X208505123Y-108941525D01*
X208506328Y-108940135D01*
X208507999Y-108932452D01*
X208507999Y-108655331D01*
X208507629Y-108648510D01*
X208502105Y-108597648D01*
X208498479Y-108582396D01*
X208453324Y-108461946D01*
X208444786Y-108446351D01*
X208368285Y-108344276D01*
X208355724Y-108331715D01*
X208253649Y-108255214D01*
X208238054Y-108246676D01*
X208117606Y-108201522D01*
X208102351Y-108197895D01*
X208051486Y-108192369D01*
X208044672Y-108192000D01*
X207422115Y-108192000D01*
X207406876Y-108196475D01*
X207405671Y-108197865D01*
X207404000Y-108205548D01*
X207404000Y-108927885D01*
X206896000Y-108927885D01*
X206896000Y-108210116D01*
X206891525Y-108194877D01*
X206890135Y-108193672D01*
X206882452Y-108192001D01*
X206255331Y-108192001D01*
X206248510Y-108192371D01*
X206197648Y-108197895D01*
X206182396Y-108201521D01*
X206061946Y-108246676D01*
X206046351Y-108255214D01*
X205944276Y-108331715D01*
X205931715Y-108344276D01*
X205855214Y-108446351D01*
X205846676Y-108461946D01*
X205801522Y-108582394D01*
X205797895Y-108597649D01*
X205792369Y-108648514D01*
X205792000Y-108655328D01*
X205792000Y-108927885D01*
X202207999Y-108927885D01*
X202207999Y-108655331D01*
X202207629Y-108648510D01*
X202202105Y-108597648D01*
X202198479Y-108582396D01*
X202153324Y-108461946D01*
X202144786Y-108446351D01*
X202068285Y-108344276D01*
X202055724Y-108331715D01*
X201953649Y-108255214D01*
X201938054Y-108246676D01*
X201817606Y-108201522D01*
X201802351Y-108197895D01*
X201751486Y-108192369D01*
X201744672Y-108192000D01*
X201122115Y-108192000D01*
X201106876Y-108196475D01*
X201105671Y-108197865D01*
X201104000Y-108205548D01*
X201104000Y-108927885D01*
X200596000Y-108927885D01*
X200596000Y-108210116D01*
X200591525Y-108194877D01*
X200590135Y-108193672D01*
X200582452Y-108192001D01*
X199955331Y-108192001D01*
X199948510Y-108192371D01*
X199897648Y-108197895D01*
X199882396Y-108201521D01*
X199761946Y-108246676D01*
X199746351Y-108255214D01*
X199644276Y-108331715D01*
X199631715Y-108344276D01*
X199555214Y-108446351D01*
X199546676Y-108461946D01*
X199501522Y-108582394D01*
X199497895Y-108597649D01*
X199492369Y-108648514D01*
X199492000Y-108655328D01*
X199492000Y-108927885D01*
X152452093Y-108927885D01*
X152409193Y-108760798D01*
X152376908Y-108679256D01*
X152294452Y-108470995D01*
X152294450Y-108470990D01*
X152292997Y-108467321D01*
X152207790Y-108312331D01*
X152142843Y-108194193D01*
X152142841Y-108194190D01*
X152140934Y-108190721D01*
X151995924Y-107991131D01*
X151957732Y-107938564D01*
X151957731Y-107938562D01*
X151955404Y-107935360D01*
X151739332Y-107705267D01*
X151706873Y-107678414D01*
X151499177Y-107506593D01*
X151496125Y-107504068D01*
X151229619Y-107334938D01*
X151226040Y-107333254D01*
X151226033Y-107333250D01*
X150947606Y-107202233D01*
X150947602Y-107202231D01*
X150944016Y-107200544D01*
X150807693Y-107156250D01*
X156711502Y-107156250D01*
X156731457Y-107384337D01*
X156732880Y-107389649D01*
X156732881Y-107389652D01*
X156774089Y-107543439D01*
X156790716Y-107605493D01*
X156793039Y-107610474D01*
X156793039Y-107610475D01*
X156885151Y-107808012D01*
X156885154Y-107808017D01*
X156887477Y-107812999D01*
X156924985Y-107866566D01*
X157014599Y-107994547D01*
X157018802Y-108000550D01*
X157180700Y-108162448D01*
X157185208Y-108165605D01*
X157185211Y-108165607D01*
X157231323Y-108197895D01*
X157368251Y-108293773D01*
X157373233Y-108296096D01*
X157373238Y-108296099D01*
X157570775Y-108388211D01*
X157575757Y-108390534D01*
X157581065Y-108391956D01*
X157581067Y-108391957D01*
X157791598Y-108448369D01*
X157791600Y-108448369D01*
X157796913Y-108449793D01*
X158025000Y-108469748D01*
X158253087Y-108449793D01*
X158258400Y-108448369D01*
X158258402Y-108448369D01*
X158468933Y-108391957D01*
X158468935Y-108391956D01*
X158474243Y-108390534D01*
X158479225Y-108388211D01*
X158676762Y-108296099D01*
X158676767Y-108296096D01*
X158681749Y-108293773D01*
X158818677Y-108197895D01*
X158864789Y-108165607D01*
X158864792Y-108165605D01*
X158869300Y-108162448D01*
X159031198Y-108000550D01*
X159053655Y-107968479D01*
X159109110Y-107924151D01*
X159156867Y-107914750D01*
X159178991Y-107914750D01*
X159247112Y-107934752D01*
X159293605Y-107988408D01*
X159295903Y-107993944D01*
X159296232Y-107994546D01*
X159299385Y-108002955D01*
X159386739Y-108119511D01*
X159503295Y-108206865D01*
X159639684Y-108257995D01*
X159701866Y-108264750D01*
X160998134Y-108264750D01*
X161060316Y-108257995D01*
X161196705Y-108206865D01*
X161313261Y-108119511D01*
X161400615Y-108002955D01*
X161451745Y-107866566D01*
X161458500Y-107804384D01*
X161458500Y-106508116D01*
X161451745Y-106445934D01*
X161400615Y-106309545D01*
X161313261Y-106192989D01*
X161196705Y-106105635D01*
X161060316Y-106054505D01*
X160998134Y-106047750D01*
X159701866Y-106047750D01*
X159639684Y-106054505D01*
X159503295Y-106105635D01*
X159386739Y-106192989D01*
X159299385Y-106309545D01*
X159296233Y-106317953D01*
X159291923Y-106325825D01*
X159290259Y-106324914D01*
X159254337Y-106372740D01*
X159187776Y-106397443D01*
X159178991Y-106397750D01*
X159156867Y-106397750D01*
X159088746Y-106377748D01*
X159053655Y-106344022D01*
X159031198Y-106311950D01*
X158869300Y-106150052D01*
X158864792Y-106146895D01*
X158864789Y-106146893D01*
X158786611Y-106092152D01*
X158681749Y-106018727D01*
X158676767Y-106016404D01*
X158676762Y-106016401D01*
X158479225Y-105924289D01*
X158479224Y-105924289D01*
X158474243Y-105921966D01*
X158468935Y-105920544D01*
X158468933Y-105920543D01*
X158258402Y-105864131D01*
X158258400Y-105864131D01*
X158253087Y-105862707D01*
X158025000Y-105842752D01*
X157796913Y-105862707D01*
X157791600Y-105864131D01*
X157791598Y-105864131D01*
X157581067Y-105920543D01*
X157581065Y-105920544D01*
X157575757Y-105921966D01*
X157570776Y-105924289D01*
X157570775Y-105924289D01*
X157373238Y-106016401D01*
X157373233Y-106016404D01*
X157368251Y-106018727D01*
X157263389Y-106092152D01*
X157185211Y-106146893D01*
X157185208Y-106146895D01*
X157180700Y-106150052D01*
X157018802Y-106311950D01*
X157015645Y-106316458D01*
X157015643Y-106316461D01*
X156996346Y-106344020D01*
X156887477Y-106499501D01*
X156885154Y-106504483D01*
X156885151Y-106504488D01*
X156881866Y-106511533D01*
X156790716Y-106707007D01*
X156731457Y-106928163D01*
X156711502Y-107156250D01*
X150807693Y-107156250D01*
X150643822Y-107103005D01*
X150333770Y-107043859D01*
X150097588Y-107029000D01*
X149939912Y-107029000D01*
X149703730Y-107043859D01*
X149393678Y-107103005D01*
X149093484Y-107200544D01*
X149089898Y-107202231D01*
X149089894Y-107202233D01*
X148811467Y-107333250D01*
X148811460Y-107333254D01*
X148807881Y-107334938D01*
X148541375Y-107504068D01*
X148538323Y-107506593D01*
X148538315Y-107506599D01*
X148351815Y-107660885D01*
X148286578Y-107688895D01*
X148216553Y-107677188D01*
X148163973Y-107629481D01*
X148145500Y-107563800D01*
X148145500Y-102329482D01*
X155482200Y-102329482D01*
X155490854Y-102560018D01*
X155538228Y-102785800D01*
X155540186Y-102790759D01*
X155540187Y-102790761D01*
X155568945Y-102863580D01*
X155622967Y-103000372D01*
X155742647Y-103197599D01*
X155746144Y-103201629D01*
X155880543Y-103356510D01*
X155893847Y-103371842D01*
X155897978Y-103375229D01*
X156068115Y-103514734D01*
X156068121Y-103514738D01*
X156072243Y-103518118D01*
X156272735Y-103632244D01*
X156277751Y-103634065D01*
X156277756Y-103634067D01*
X156484575Y-103709139D01*
X156484579Y-103709140D01*
X156489590Y-103710959D01*
X156494839Y-103711908D01*
X156494842Y-103711909D01*
X156712523Y-103751272D01*
X156712530Y-103751273D01*
X156716607Y-103752010D01*
X156734344Y-103752846D01*
X156739292Y-103753080D01*
X156739299Y-103753080D01*
X156740780Y-103753150D01*
X156902925Y-103753150D01*
X156969881Y-103747469D01*
X157069562Y-103739011D01*
X157069566Y-103739010D01*
X157074873Y-103738560D01*
X157080028Y-103737222D01*
X157080034Y-103737221D01*
X157293003Y-103681945D01*
X157293007Y-103681944D01*
X157298172Y-103680603D01*
X157303038Y-103678411D01*
X157303041Y-103678410D01*
X157503649Y-103588043D01*
X157508515Y-103585851D01*
X157512935Y-103582875D01*
X157512939Y-103582873D01*
X157676256Y-103472920D01*
X157699885Y-103457012D01*
X157866812Y-103297772D01*
X157958941Y-103173946D01*
X158001337Y-103116964D01*
X158001339Y-103116961D01*
X158004521Y-103112684D01*
X158006934Y-103107938D01*
X158006939Y-103107930D01*
X158058670Y-103006181D01*
X158107373Y-102954523D01*
X158176273Y-102937396D01*
X158243495Y-102960238D01*
X158260082Y-102974190D01*
X160440315Y-105154424D01*
X160447855Y-105162710D01*
X160451967Y-105169189D01*
X160457744Y-105174614D01*
X160501618Y-105215814D01*
X160504460Y-105218569D01*
X160524197Y-105238306D01*
X160527394Y-105240786D01*
X160536414Y-105248489D01*
X160568646Y-105278757D01*
X160575592Y-105282576D01*
X160575595Y-105282578D01*
X160586401Y-105288519D01*
X160602920Y-105299370D01*
X160618926Y-105311785D01*
X160626195Y-105314930D01*
X160626199Y-105314933D01*
X160659504Y-105329345D01*
X160670154Y-105334562D01*
X160708907Y-105355866D01*
X160716582Y-105357837D01*
X160716583Y-105357837D01*
X160728529Y-105360904D01*
X160747234Y-105367308D01*
X160765822Y-105375352D01*
X160773645Y-105376591D01*
X160773655Y-105376594D01*
X160809491Y-105382270D01*
X160821111Y-105384676D01*
X160856256Y-105393699D01*
X160863937Y-105395671D01*
X160884191Y-105395671D01*
X160903901Y-105397222D01*
X160923910Y-105400391D01*
X160931802Y-105399645D01*
X160967928Y-105396230D01*
X160979786Y-105395671D01*
X185435484Y-105395671D01*
X185503605Y-105415673D01*
X185550098Y-105469329D01*
X185560202Y-105539603D01*
X185530708Y-105604183D01*
X185524579Y-105610766D01*
X185324500Y-105810845D01*
X185262188Y-105844871D01*
X185235405Y-105847750D01*
X184026866Y-105847750D01*
X183964684Y-105854505D01*
X183828295Y-105905635D01*
X183711739Y-105992989D01*
X183624385Y-106109545D01*
X183623010Y-106108514D01*
X183580224Y-106151206D01*
X183510834Y-106166221D01*
X183444398Y-106141379D01*
X183396705Y-106105635D01*
X183260316Y-106054505D01*
X183198134Y-106047750D01*
X181901866Y-106047750D01*
X181839684Y-106054505D01*
X181703295Y-106105635D01*
X181586739Y-106192989D01*
X181499385Y-106309545D01*
X181448255Y-106445934D01*
X181441500Y-106508116D01*
X181441500Y-107521261D01*
X181421498Y-107589382D01*
X181367842Y-107635875D01*
X181315500Y-107647261D01*
X180634500Y-107647261D01*
X180566379Y-107627259D01*
X180519886Y-107573603D01*
X180508500Y-107521261D01*
X180508500Y-106508116D01*
X180501745Y-106445934D01*
X180450615Y-106309545D01*
X180363261Y-106192989D01*
X180246705Y-106105635D01*
X180110316Y-106054505D01*
X180048134Y-106047750D01*
X178751866Y-106047750D01*
X178689684Y-106054505D01*
X178553295Y-106105635D01*
X178436739Y-106192989D01*
X178349385Y-106309545D01*
X178346233Y-106317953D01*
X178341923Y-106325825D01*
X178340259Y-106324914D01*
X178304337Y-106372740D01*
X178237776Y-106397443D01*
X178228991Y-106397750D01*
X178206867Y-106397750D01*
X178138746Y-106377748D01*
X178103655Y-106344022D01*
X178081198Y-106311950D01*
X177919300Y-106150052D01*
X177914792Y-106146895D01*
X177914789Y-106146893D01*
X177836611Y-106092152D01*
X177731749Y-106018727D01*
X177726767Y-106016404D01*
X177726762Y-106016401D01*
X177529225Y-105924289D01*
X177529224Y-105924289D01*
X177524243Y-105921966D01*
X177518935Y-105920544D01*
X177518933Y-105920543D01*
X177308402Y-105864131D01*
X177308400Y-105864131D01*
X177303087Y-105862707D01*
X177075000Y-105842752D01*
X176846913Y-105862707D01*
X176841600Y-105864131D01*
X176841598Y-105864131D01*
X176631067Y-105920543D01*
X176631065Y-105920544D01*
X176625757Y-105921966D01*
X176620776Y-105924289D01*
X176620775Y-105924289D01*
X176423238Y-106016401D01*
X176423233Y-106016404D01*
X176418251Y-106018727D01*
X176313389Y-106092152D01*
X176235211Y-106146893D01*
X176235208Y-106146895D01*
X176230700Y-106150052D01*
X176068802Y-106311950D01*
X176065645Y-106316458D01*
X176065643Y-106316461D01*
X176046346Y-106344020D01*
X175937477Y-106499501D01*
X175935154Y-106504483D01*
X175935151Y-106504488D01*
X175931866Y-106511533D01*
X175840716Y-106707007D01*
X175781457Y-106928163D01*
X175761502Y-107156250D01*
X175781457Y-107384337D01*
X175809408Y-107488649D01*
X175807718Y-107559626D01*
X175767924Y-107618422D01*
X175702660Y-107646370D01*
X175687701Y-107647261D01*
X167264105Y-107647261D01*
X167195984Y-107627259D01*
X167175010Y-107610356D01*
X167170405Y-107605751D01*
X167136379Y-107543439D01*
X167133500Y-107516656D01*
X167133500Y-106308116D01*
X167126745Y-106245934D01*
X167075615Y-106109545D01*
X166988261Y-105992989D01*
X166871705Y-105905635D01*
X166735316Y-105854505D01*
X166673134Y-105847750D01*
X164976866Y-105847750D01*
X164914684Y-105854505D01*
X164778295Y-105905635D01*
X164661739Y-105992989D01*
X164574385Y-106109545D01*
X164573010Y-106108514D01*
X164530224Y-106151206D01*
X164460834Y-106166221D01*
X164394398Y-106141379D01*
X164346705Y-106105635D01*
X164210316Y-106054505D01*
X164148134Y-106047750D01*
X162851866Y-106047750D01*
X162789684Y-106054505D01*
X162653295Y-106105635D01*
X162536739Y-106192989D01*
X162449385Y-106309545D01*
X162398255Y-106445934D01*
X162391500Y-106508116D01*
X162391500Y-107804384D01*
X162398255Y-107866566D01*
X162449385Y-108002955D01*
X162536739Y-108119511D01*
X162653295Y-108206865D01*
X162789684Y-108257995D01*
X162851866Y-108264750D01*
X164148134Y-108264750D01*
X164210316Y-108257995D01*
X164346705Y-108206865D01*
X164394398Y-108171121D01*
X164460901Y-108146274D01*
X164530284Y-108161326D01*
X164573012Y-108203984D01*
X164574385Y-108202955D01*
X164661739Y-108319511D01*
X164778295Y-108406865D01*
X164914684Y-108457995D01*
X164976866Y-108464750D01*
X166185406Y-108464750D01*
X166253527Y-108484752D01*
X166274501Y-108501655D01*
X166445854Y-108673008D01*
X166453398Y-108681298D01*
X166457511Y-108687779D01*
X166463288Y-108693204D01*
X166507178Y-108734419D01*
X166510020Y-108737174D01*
X166529742Y-108756896D01*
X166532884Y-108759333D01*
X166532944Y-108759380D01*
X166541956Y-108767078D01*
X166555389Y-108779692D01*
X166574190Y-108797347D01*
X166581133Y-108801164D01*
X166591942Y-108807106D01*
X166608464Y-108817959D01*
X166624470Y-108830375D01*
X166631748Y-108833525D01*
X166631749Y-108833525D01*
X166665048Y-108847935D01*
X166675698Y-108853152D01*
X166714451Y-108874456D01*
X166722126Y-108876427D01*
X166722127Y-108876427D01*
X166734073Y-108879494D01*
X166752778Y-108885898D01*
X166771366Y-108893942D01*
X166779189Y-108895181D01*
X166779199Y-108895184D01*
X166815035Y-108900860D01*
X166826655Y-108903266D01*
X166858470Y-108911434D01*
X166869481Y-108914261D01*
X166889735Y-108914261D01*
X166909445Y-108915812D01*
X166929454Y-108918981D01*
X166937346Y-108918235D01*
X166956091Y-108916463D01*
X166973473Y-108914820D01*
X166985330Y-108914261D01*
X183671722Y-108914261D01*
X183682905Y-108914788D01*
X183690398Y-108916463D01*
X183698324Y-108916214D01*
X183698325Y-108916214D01*
X183758475Y-108914323D01*
X183762434Y-108914261D01*
X183790345Y-108914261D01*
X183794280Y-108913764D01*
X183794345Y-108913756D01*
X183806182Y-108912823D01*
X183838440Y-108911809D01*
X183842459Y-108911683D01*
X183850378Y-108911434D01*
X183869832Y-108905782D01*
X183889189Y-108901774D01*
X183901419Y-108900229D01*
X183901420Y-108900229D01*
X183909286Y-108899235D01*
X183916657Y-108896316D01*
X183916659Y-108896316D01*
X183950401Y-108882957D01*
X183961631Y-108879112D01*
X183996472Y-108868990D01*
X183996473Y-108868990D01*
X184004082Y-108866779D01*
X184010901Y-108862746D01*
X184010906Y-108862744D01*
X184021517Y-108856468D01*
X184039265Y-108847773D01*
X184058106Y-108840313D01*
X184093876Y-108814325D01*
X184103796Y-108807809D01*
X184135024Y-108789341D01*
X184135027Y-108789339D01*
X184141851Y-108785303D01*
X184156172Y-108770982D01*
X184171206Y-108758141D01*
X184172920Y-108756896D01*
X184187596Y-108746233D01*
X184215787Y-108712156D01*
X184223777Y-108703377D01*
X184425499Y-108501655D01*
X184487811Y-108467629D01*
X184514594Y-108464750D01*
X185723134Y-108464750D01*
X185785316Y-108457995D01*
X185921705Y-108406865D01*
X186038261Y-108319511D01*
X186125615Y-108202955D01*
X186176745Y-108066566D01*
X186183500Y-108004384D01*
X186183500Y-106795844D01*
X186203502Y-106727723D01*
X186220405Y-106706749D01*
X190681269Y-102245885D01*
X190743581Y-102211859D01*
X190770364Y-102208980D01*
X194915500Y-102208980D01*
X194983621Y-102228982D01*
X195030114Y-102282638D01*
X195041500Y-102334980D01*
X195041500Y-102900400D01*
X195041837Y-102903646D01*
X195041837Y-102903650D01*
X195047709Y-102960238D01*
X195052474Y-103006166D01*
X195054655Y-103012702D01*
X195054655Y-103012704D01*
X195077524Y-103081250D01*
X195108450Y-103173946D01*
X195201522Y-103324348D01*
X195326697Y-103449305D01*
X195332927Y-103453145D01*
X195332928Y-103453146D01*
X195442615Y-103520758D01*
X195477262Y-103542115D01*
X195532218Y-103560343D01*
X195638611Y-103595632D01*
X195638613Y-103595632D01*
X195645139Y-103597797D01*
X195651975Y-103598497D01*
X195651978Y-103598498D01*
X195695031Y-103602909D01*
X195749600Y-103608500D01*
X196410406Y-103608500D01*
X196478527Y-103628502D01*
X196499501Y-103645405D01*
X198646343Y-105792247D01*
X198653887Y-105800537D01*
X198658000Y-105807018D01*
X198663777Y-105812443D01*
X198707667Y-105853658D01*
X198710509Y-105856413D01*
X198730230Y-105876134D01*
X198733425Y-105878612D01*
X198742447Y-105886318D01*
X198774679Y-105916586D01*
X198781628Y-105920406D01*
X198792432Y-105926346D01*
X198808956Y-105937199D01*
X198824959Y-105949613D01*
X198865543Y-105967176D01*
X198876173Y-105972383D01*
X198914940Y-105993695D01*
X198922617Y-105995666D01*
X198922622Y-105995668D01*
X198934558Y-105998732D01*
X198953266Y-106005137D01*
X198971855Y-106013181D01*
X198979680Y-106014420D01*
X198979682Y-106014421D01*
X199015519Y-106020097D01*
X199027140Y-106022504D01*
X199062289Y-106031528D01*
X199069970Y-106033500D01*
X199090231Y-106033500D01*
X199109940Y-106035051D01*
X199129943Y-106038219D01*
X199137835Y-106037473D01*
X199143062Y-106036979D01*
X199173954Y-106034059D01*
X199185811Y-106033500D01*
X199419618Y-106033500D01*
X199487739Y-106053502D01*
X199534232Y-106107158D01*
X199537599Y-106115269D01*
X199546231Y-106138293D01*
X199549385Y-106146705D01*
X199636739Y-106263261D01*
X199753295Y-106350615D01*
X199889684Y-106401745D01*
X199951866Y-106408500D01*
X201748134Y-106408500D01*
X201810316Y-106401745D01*
X201946705Y-106350615D01*
X202063261Y-106263261D01*
X202150615Y-106146705D01*
X202153769Y-106138293D01*
X202162401Y-106115269D01*
X202205043Y-106058505D01*
X202271605Y-106033806D01*
X202280382Y-106033500D01*
X205719618Y-106033500D01*
X205787739Y-106053502D01*
X205834232Y-106107158D01*
X205837599Y-106115269D01*
X205846231Y-106138293D01*
X205849385Y-106146705D01*
X205936739Y-106263261D01*
X206053295Y-106350615D01*
X206189684Y-106401745D01*
X206251866Y-106408500D01*
X208048134Y-106408500D01*
X208110316Y-106401745D01*
X208246705Y-106350615D01*
X208363261Y-106263261D01*
X208450615Y-106146705D01*
X208501745Y-106010316D01*
X208508500Y-105948134D01*
X208508500Y-104851866D01*
X208501745Y-104789684D01*
X208450615Y-104653295D01*
X208363261Y-104536739D01*
X208246705Y-104449385D01*
X208110316Y-104398255D01*
X208048134Y-104391500D01*
X207089594Y-104391500D01*
X207021473Y-104371498D01*
X207000499Y-104354595D01*
X205727155Y-103081250D01*
X205693129Y-103018938D01*
X205690250Y-102992155D01*
X205690250Y-102411849D01*
X205710252Y-102343728D01*
X205763908Y-102297235D01*
X205829091Y-102286505D01*
X205852685Y-102288922D01*
X205859104Y-102289250D01*
X206109135Y-102289250D01*
X206124374Y-102284775D01*
X206125579Y-102283385D01*
X206127250Y-102275702D01*
X206127250Y-102271134D01*
X206635250Y-102271134D01*
X206639725Y-102286373D01*
X206641115Y-102287578D01*
X206648798Y-102289249D01*
X206903345Y-102289249D01*
X206909864Y-102288912D01*
X207005456Y-102278993D01*
X207018850Y-102276101D01*
X207173034Y-102224662D01*
X207186212Y-102218489D01*
X207324057Y-102133187D01*
X207335458Y-102124151D01*
X207449989Y-102009421D01*
X207459001Y-101998010D01*
X207544066Y-101860007D01*
X207550213Y-101846826D01*
X207601388Y-101692540D01*
X207604255Y-101679164D01*
X207613922Y-101584812D01*
X207614250Y-101578396D01*
X207614250Y-101465865D01*
X207609775Y-101450626D01*
X207608385Y-101449421D01*
X207600702Y-101447750D01*
X206653365Y-101447750D01*
X206638126Y-101452225D01*
X206636921Y-101453615D01*
X206635250Y-101461298D01*
X206635250Y-102271134D01*
X206127250Y-102271134D01*
X206127250Y-101065750D01*
X206147252Y-100997629D01*
X206200908Y-100951136D01*
X206253250Y-100939750D01*
X207596134Y-100939750D01*
X207611373Y-100935275D01*
X207612578Y-100933885D01*
X207614249Y-100926202D01*
X207614249Y-100809155D01*
X207613912Y-100802636D01*
X207603993Y-100707044D01*
X207601101Y-100693650D01*
X207549662Y-100539466D01*
X207543489Y-100526288D01*
X207458187Y-100388443D01*
X207449151Y-100377042D01*
X207334422Y-100262512D01*
X207325488Y-100255456D01*
X207284427Y-100197538D01*
X207281197Y-100126615D01*
X207316824Y-100065204D01*
X207324657Y-100058404D01*
X207330598Y-100054728D01*
X207455555Y-99929553D01*
X207464171Y-99915576D01*
X207544525Y-99785218D01*
X207544526Y-99785216D01*
X207548365Y-99778988D01*
X207577032Y-99692558D01*
X207592112Y-99647095D01*
X210448251Y-99647095D01*
X210448588Y-99653614D01*
X210458507Y-99749206D01*
X210461399Y-99762600D01*
X210512838Y-99916784D01*
X210519011Y-99929962D01*
X210604313Y-100067807D01*
X210613349Y-100079208D01*
X210728079Y-100193739D01*
X210739490Y-100202751D01*
X210877493Y-100287816D01*
X210890674Y-100293963D01*
X211044960Y-100345138D01*
X211058336Y-100348005D01*
X211152688Y-100357672D01*
X211159104Y-100358000D01*
X211384135Y-100358000D01*
X211399374Y-100353525D01*
X211400579Y-100352135D01*
X211402250Y-100344452D01*
X211402250Y-100339884D01*
X211910250Y-100339884D01*
X211914725Y-100355123D01*
X211916115Y-100356328D01*
X211923798Y-100357999D01*
X212153345Y-100357999D01*
X212159864Y-100357662D01*
X212255456Y-100347743D01*
X212268850Y-100344851D01*
X212423034Y-100293412D01*
X212436212Y-100287239D01*
X212574057Y-100201937D01*
X212585458Y-100192901D01*
X212699989Y-100078171D01*
X212709001Y-100066760D01*
X212794066Y-99928757D01*
X212800213Y-99915576D01*
X212851388Y-99761290D01*
X212854255Y-99747914D01*
X212863922Y-99653562D01*
X212864250Y-99647146D01*
X212864250Y-99522115D01*
X212859775Y-99506876D01*
X212858385Y-99505671D01*
X212850702Y-99504000D01*
X211928365Y-99504000D01*
X211913126Y-99508475D01*
X211911921Y-99509865D01*
X211910250Y-99517548D01*
X211910250Y-100339884D01*
X211402250Y-100339884D01*
X211402250Y-99522115D01*
X211397775Y-99506876D01*
X211396385Y-99505671D01*
X211388702Y-99504000D01*
X210466366Y-99504000D01*
X210451127Y-99508475D01*
X210449922Y-99509865D01*
X210448251Y-99517548D01*
X210448251Y-99647095D01*
X207592112Y-99647095D01*
X207601882Y-99617639D01*
X207601882Y-99617637D01*
X207604047Y-99611111D01*
X207606824Y-99584013D01*
X207613633Y-99517548D01*
X207614750Y-99506650D01*
X207614750Y-98730850D01*
X207605551Y-98642187D01*
X207604488Y-98631942D01*
X207604487Y-98631938D01*
X207603776Y-98625084D01*
X207547800Y-98457304D01*
X207514463Y-98403432D01*
X207495626Y-98334980D01*
X207516788Y-98267211D01*
X207532513Y-98248035D01*
X208222573Y-97557975D01*
X208276515Y-97526073D01*
X208388483Y-97493543D01*
X208388484Y-97493542D01*
X208396096Y-97491331D01*
X208402919Y-97487296D01*
X208529765Y-97412281D01*
X208529769Y-97412278D01*
X208536585Y-97408247D01*
X208651997Y-97292835D01*
X208656028Y-97286019D01*
X208656031Y-97286015D01*
X208731046Y-97159169D01*
X208735081Y-97152346D01*
X208737293Y-97144733D01*
X208778823Y-97001787D01*
X208778824Y-97001782D01*
X208780617Y-96995610D01*
X208783500Y-96958980D01*
X208783500Y-95628520D01*
X208783104Y-95623486D01*
X208781122Y-95598300D01*
X208781121Y-95598295D01*
X208780617Y-95591890D01*
X208778824Y-95585718D01*
X208778823Y-95585713D01*
X208770841Y-95558241D01*
X208771044Y-95487245D01*
X208809598Y-95427628D01*
X208874262Y-95398320D01*
X208926991Y-95402091D01*
X208954463Y-95410073D01*
X208954468Y-95410074D01*
X208960640Y-95411867D01*
X208967045Y-95412371D01*
X208967050Y-95412372D01*
X208994814Y-95414557D01*
X208994822Y-95414557D01*
X208997270Y-95414750D01*
X209497906Y-95414750D01*
X209566027Y-95434752D01*
X209587001Y-95451655D01*
X210519395Y-96384049D01*
X210553421Y-96446361D01*
X210548356Y-96517176D01*
X210537560Y-96539260D01*
X210520686Y-96566635D01*
X210514135Y-96577262D01*
X210511831Y-96584209D01*
X210462288Y-96733578D01*
X210458453Y-96745139D01*
X210447750Y-96849600D01*
X210447750Y-97650400D01*
X210448087Y-97653646D01*
X210448087Y-97653650D01*
X210449343Y-97665750D01*
X210458724Y-97756166D01*
X210460905Y-97762702D01*
X210460905Y-97762704D01*
X210486585Y-97839676D01*
X210514700Y-97923946D01*
X210607772Y-98074348D01*
X210612954Y-98079521D01*
X210694713Y-98161138D01*
X210728792Y-98223421D01*
X210723789Y-98294241D01*
X210694868Y-98339329D01*
X210612511Y-98421829D01*
X210603499Y-98433240D01*
X210518434Y-98571243D01*
X210512287Y-98584424D01*
X210461112Y-98738710D01*
X210458245Y-98752086D01*
X210448578Y-98846438D01*
X210448250Y-98852855D01*
X210448250Y-98977885D01*
X210452725Y-98993124D01*
X210454115Y-98994329D01*
X210461798Y-98996000D01*
X212846134Y-98996000D01*
X212861373Y-98991525D01*
X212862578Y-98990135D01*
X212864249Y-98982452D01*
X212864249Y-98852905D01*
X212863912Y-98846386D01*
X212853993Y-98750794D01*
X212851101Y-98737400D01*
X212799662Y-98583216D01*
X212793489Y-98570038D01*
X212708187Y-98432193D01*
X212699151Y-98420792D01*
X212617788Y-98339570D01*
X212583709Y-98277287D01*
X212588712Y-98206467D01*
X212617633Y-98161380D01*
X212700380Y-98078488D01*
X212700384Y-98078483D01*
X212705555Y-98073303D01*
X212736509Y-98023087D01*
X212794525Y-97928968D01*
X212794526Y-97928966D01*
X212798365Y-97922738D01*
X212854047Y-97754861D01*
X212864750Y-97650400D01*
X212864750Y-96849600D01*
X212864413Y-96846350D01*
X212854488Y-96750692D01*
X212854487Y-96750688D01*
X212853776Y-96743834D01*
X212850355Y-96733578D01*
X212800118Y-96583002D01*
X212797800Y-96576054D01*
X212704728Y-96425652D01*
X212579553Y-96300695D01*
X212538084Y-96275133D01*
X212435218Y-96211725D01*
X212435216Y-96211724D01*
X212428988Y-96207885D01*
X212309199Y-96168153D01*
X212267639Y-96154368D01*
X212267637Y-96154368D01*
X212261111Y-96152203D01*
X212254275Y-96151503D01*
X212254272Y-96151502D01*
X212211219Y-96147091D01*
X212156650Y-96141500D01*
X212120845Y-96141500D01*
X212052724Y-96121498D01*
X212031750Y-96104595D01*
X210934028Y-95006873D01*
X210900002Y-94944561D01*
X210902127Y-94882622D01*
X210903823Y-94876786D01*
X210903824Y-94876783D01*
X210905617Y-94870610D01*
X210908500Y-94833980D01*
X210908500Y-94428520D01*
X210905617Y-94391890D01*
X210869160Y-94266403D01*
X210869160Y-94196097D01*
X210903822Y-94076787D01*
X210905617Y-94070610D01*
X210906173Y-94063557D01*
X210908307Y-94036436D01*
X210908307Y-94036428D01*
X210908500Y-94033980D01*
X210908500Y-93628520D01*
X210908219Y-93624945D01*
X210906122Y-93598300D01*
X210906121Y-93598295D01*
X210905617Y-93591890D01*
X210881066Y-93507384D01*
X210869160Y-93466403D01*
X210869160Y-93396097D01*
X210903822Y-93276787D01*
X210905617Y-93270610D01*
X210908500Y-93233980D01*
X210908500Y-92828520D01*
X210905617Y-92791890D01*
X210869160Y-92666403D01*
X210869160Y-92596097D01*
X210903822Y-92476787D01*
X210905617Y-92470610D01*
X210908500Y-92433980D01*
X210908500Y-92028520D01*
X210905617Y-91991890D01*
X210869160Y-91866403D01*
X210869160Y-91796097D01*
X210900406Y-91688545D01*
X210905617Y-91670610D01*
X210907370Y-91648345D01*
X210908307Y-91636436D01*
X210908307Y-91636428D01*
X210908500Y-91633980D01*
X210908500Y-91228520D01*
X210908255Y-91225401D01*
X210906122Y-91198300D01*
X210906121Y-91198295D01*
X210905617Y-91191890D01*
X210869160Y-91066403D01*
X210869160Y-90996097D01*
X210903822Y-90876787D01*
X210905617Y-90870610D01*
X210908500Y-90833980D01*
X210908500Y-90428520D01*
X210905617Y-90391890D01*
X210877397Y-90294757D01*
X210869160Y-90266403D01*
X210869160Y-90196097D01*
X210903822Y-90076787D01*
X210905617Y-90070610D01*
X210908500Y-90033980D01*
X210908500Y-89628520D01*
X210908307Y-89626064D01*
X210906122Y-89598300D01*
X210906121Y-89598295D01*
X210905617Y-89591890D01*
X210869160Y-89466403D01*
X210869160Y-89396097D01*
X210885977Y-89338211D01*
X210905617Y-89270610D01*
X210906889Y-89254457D01*
X210908307Y-89236436D01*
X210908307Y-89236428D01*
X210908500Y-89233980D01*
X210908500Y-88828520D01*
X210908259Y-88825457D01*
X210906122Y-88798300D01*
X210906121Y-88798295D01*
X210905617Y-88791890D01*
X210869160Y-88666403D01*
X210869160Y-88596097D01*
X210895648Y-88504922D01*
X210905617Y-88470610D01*
X210906691Y-88456976D01*
X210908307Y-88436436D01*
X210908307Y-88436428D01*
X210908500Y-88433980D01*
X210908500Y-88028520D01*
X210905617Y-87991890D01*
X210903823Y-87985715D01*
X210902665Y-87979376D01*
X210905490Y-87978860D01*
X210905656Y-87920335D01*
X210929365Y-87875862D01*
X210940297Y-87862647D01*
X210948288Y-87853866D01*
X211116767Y-87685387D01*
X211125057Y-87677843D01*
X211131538Y-87673730D01*
X211178179Y-87624062D01*
X211180933Y-87621221D01*
X211200655Y-87601499D01*
X211203132Y-87598306D01*
X211210837Y-87589285D01*
X211210855Y-87589266D01*
X211241106Y-87557051D01*
X211248701Y-87543236D01*
X211250866Y-87539298D01*
X211261722Y-87522771D01*
X211269277Y-87513032D01*
X211269278Y-87513030D01*
X211274134Y-87506770D01*
X211291694Y-87466190D01*
X211296911Y-87455542D01*
X211314395Y-87423739D01*
X211314396Y-87423737D01*
X211318215Y-87416790D01*
X211323253Y-87397167D01*
X211329657Y-87378464D01*
X211334553Y-87367150D01*
X211334553Y-87367149D01*
X211337701Y-87359875D01*
X211338940Y-87352052D01*
X211338943Y-87352042D01*
X211344619Y-87316206D01*
X211347025Y-87304586D01*
X211356048Y-87269441D01*
X211356048Y-87269440D01*
X211358020Y-87261760D01*
X211358020Y-87241506D01*
X211359571Y-87221795D01*
X211360050Y-87218774D01*
X211362740Y-87201787D01*
X211358579Y-87157768D01*
X211358020Y-87145911D01*
X211358020Y-84774568D01*
X211378022Y-84706447D01*
X211431678Y-84659954D01*
X211501952Y-84649850D01*
X211523688Y-84654975D01*
X211682460Y-84707638D01*
X211695836Y-84710505D01*
X211790188Y-84720172D01*
X211796604Y-84720500D01*
X211909135Y-84720500D01*
X211924374Y-84716025D01*
X211925579Y-84714635D01*
X211927250Y-84706952D01*
X211927250Y-84702384D01*
X212435250Y-84702384D01*
X212439725Y-84717623D01*
X212441115Y-84718828D01*
X212448798Y-84720499D01*
X212565845Y-84720499D01*
X212572364Y-84720162D01*
X212667956Y-84710243D01*
X212681350Y-84707351D01*
X212835534Y-84655912D01*
X212848712Y-84649739D01*
X212986557Y-84564437D01*
X212997958Y-84555401D01*
X213112489Y-84440671D01*
X213121501Y-84429260D01*
X213206566Y-84291257D01*
X213212713Y-84278076D01*
X213263888Y-84123790D01*
X213266755Y-84110414D01*
X213276422Y-84016062D01*
X213276750Y-84009646D01*
X213276750Y-83759615D01*
X213272275Y-83744376D01*
X213270885Y-83743171D01*
X213263202Y-83741500D01*
X212453365Y-83741500D01*
X212438126Y-83745975D01*
X212436921Y-83747365D01*
X212435250Y-83755048D01*
X212435250Y-84702384D01*
X211927250Y-84702384D01*
X211927250Y-83215385D01*
X212435250Y-83215385D01*
X212439725Y-83230624D01*
X212441115Y-83231829D01*
X212448798Y-83233500D01*
X213258634Y-83233500D01*
X213273873Y-83229025D01*
X213275078Y-83227635D01*
X213276749Y-83219952D01*
X213276749Y-82965405D01*
X213276412Y-82958886D01*
X213266493Y-82863294D01*
X213263601Y-82849900D01*
X213212162Y-82695716D01*
X213205989Y-82682538D01*
X213120687Y-82544693D01*
X213111651Y-82533292D01*
X212996921Y-82418761D01*
X212985510Y-82409749D01*
X212847507Y-82324684D01*
X212834326Y-82318537D01*
X212680040Y-82267362D01*
X212666664Y-82264495D01*
X212572312Y-82254828D01*
X212565895Y-82254500D01*
X212453365Y-82254500D01*
X212438126Y-82258975D01*
X212436921Y-82260365D01*
X212435250Y-82268048D01*
X212435250Y-83215385D01*
X211927250Y-83215385D01*
X211927250Y-82272616D01*
X211922775Y-82257377D01*
X211921385Y-82256172D01*
X211913702Y-82254501D01*
X211796655Y-82254501D01*
X211790136Y-82254838D01*
X211694544Y-82264757D01*
X211681150Y-82267649D01*
X211526966Y-82319088D01*
X211513788Y-82325261D01*
X211375943Y-82410563D01*
X211364542Y-82419599D01*
X211250012Y-82534328D01*
X211242956Y-82543262D01*
X211185038Y-82584323D01*
X211114115Y-82587553D01*
X211052704Y-82551926D01*
X211045904Y-82544093D01*
X211042228Y-82538152D01*
X210917053Y-82413195D01*
X210836456Y-82363514D01*
X210772718Y-82324225D01*
X210772716Y-82324224D01*
X210766488Y-82320385D01*
X210680876Y-82291989D01*
X210605139Y-82266868D01*
X210605137Y-82266868D01*
X210598611Y-82264703D01*
X210591775Y-82264003D01*
X210591772Y-82264002D01*
X210548719Y-82259591D01*
X210494150Y-82254000D01*
X209718350Y-82254000D01*
X209715104Y-82254337D01*
X209715100Y-82254337D01*
X209619442Y-82264262D01*
X209619438Y-82264263D01*
X209612584Y-82264974D01*
X209606048Y-82267155D01*
X209606046Y-82267155D01*
X209539598Y-82289324D01*
X209444804Y-82320950D01*
X209294402Y-82414022D01*
X209169445Y-82539197D01*
X209165605Y-82545427D01*
X209165604Y-82545428D01*
X209103575Y-82646058D01*
X209076635Y-82689762D01*
X209060609Y-82738078D01*
X209025126Y-82845059D01*
X209020953Y-82857639D01*
X209020253Y-82864475D01*
X209020252Y-82864478D01*
X209015841Y-82907531D01*
X209010250Y-82962100D01*
X209010250Y-84012900D01*
X209010587Y-84016146D01*
X209010587Y-84016150D01*
X209020368Y-84110414D01*
X209021224Y-84118666D01*
X209023405Y-84125202D01*
X209023405Y-84125204D01*
X209040256Y-84175712D01*
X209077200Y-84286446D01*
X209170272Y-84436848D01*
X209295447Y-84561805D01*
X209301677Y-84565645D01*
X209301678Y-84565646D01*
X209438840Y-84650194D01*
X209446012Y-84654615D01*
X209462109Y-84659954D01*
X209607361Y-84708132D01*
X209607363Y-84708132D01*
X209613889Y-84710297D01*
X209620725Y-84710997D01*
X209620728Y-84710998D01*
X209663781Y-84715409D01*
X209718350Y-84721000D01*
X209965020Y-84721000D01*
X210033141Y-84741002D01*
X210079634Y-84794658D01*
X210091020Y-84847000D01*
X210091020Y-85722250D01*
X210071018Y-85790371D01*
X210017362Y-85836864D01*
X209965020Y-85848250D01*
X209934615Y-85848250D01*
X209919376Y-85852725D01*
X209918171Y-85854115D01*
X209916500Y-85861798D01*
X209916500Y-86521750D01*
X209896498Y-86589871D01*
X209842842Y-86636364D01*
X209790500Y-86647750D01*
X208997270Y-86647750D01*
X208994822Y-86647943D01*
X208994814Y-86647943D01*
X208967050Y-86650128D01*
X208967045Y-86650129D01*
X208960640Y-86650633D01*
X208954468Y-86652426D01*
X208954463Y-86652427D01*
X208811517Y-86693957D01*
X208811515Y-86693958D01*
X208803904Y-86696169D01*
X208797081Y-86700204D01*
X208670235Y-86775219D01*
X208670231Y-86775222D01*
X208663415Y-86779253D01*
X208594323Y-86848345D01*
X208532011Y-86882371D01*
X208505228Y-86885250D01*
X208442271Y-86885250D01*
X208428740Y-86889223D01*
X208427605Y-86897121D01*
X208456100Y-86995202D01*
X208456100Y-87065507D01*
X208430179Y-87154731D01*
X208398277Y-87208675D01*
X207774499Y-87832452D01*
X207712187Y-87866477D01*
X207685404Y-87869356D01*
X204857807Y-87869356D01*
X204789686Y-87849354D01*
X204768712Y-87832451D01*
X203362420Y-86426159D01*
X203328394Y-86363847D01*
X203333459Y-86293032D01*
X203376006Y-86236196D01*
X203428879Y-86213114D01*
X203432941Y-86212372D01*
X203439360Y-86211867D01*
X203445542Y-86210071D01*
X203564847Y-86175410D01*
X203635153Y-86175410D01*
X203687886Y-86190730D01*
X203760640Y-86211867D01*
X203767045Y-86212371D01*
X203767050Y-86212372D01*
X203794814Y-86214557D01*
X203794822Y-86214557D01*
X203797270Y-86214750D01*
X204202730Y-86214750D01*
X204205178Y-86214557D01*
X204205186Y-86214557D01*
X204232950Y-86212372D01*
X204232955Y-86212371D01*
X204239360Y-86211867D01*
X204312114Y-86190730D01*
X204364847Y-86175410D01*
X204435153Y-86175410D01*
X204487886Y-86190730D01*
X204560640Y-86211867D01*
X204567045Y-86212371D01*
X204567050Y-86212372D01*
X204594814Y-86214557D01*
X204594822Y-86214557D01*
X204597270Y-86214750D01*
X205002730Y-86214750D01*
X205005178Y-86214557D01*
X205005186Y-86214557D01*
X205032950Y-86212372D01*
X205032955Y-86212371D01*
X205039360Y-86211867D01*
X205112114Y-86190730D01*
X205164847Y-86175410D01*
X205235153Y-86175410D01*
X205287886Y-86190730D01*
X205360640Y-86211867D01*
X205367045Y-86212371D01*
X205367050Y-86212372D01*
X205394814Y-86214557D01*
X205394822Y-86214557D01*
X205397270Y-86214750D01*
X205802730Y-86214750D01*
X205805178Y-86214557D01*
X205805186Y-86214557D01*
X205832950Y-86212372D01*
X205832955Y-86212371D01*
X205839360Y-86211867D01*
X205912114Y-86190730D01*
X205964847Y-86175410D01*
X206035153Y-86175410D01*
X206087886Y-86190730D01*
X206160640Y-86211867D01*
X206167045Y-86212371D01*
X206167050Y-86212372D01*
X206194814Y-86214557D01*
X206194822Y-86214557D01*
X206197270Y-86214750D01*
X206602730Y-86214750D01*
X206605178Y-86214557D01*
X206605186Y-86214557D01*
X206632950Y-86212372D01*
X206632955Y-86212371D01*
X206639360Y-86211867D01*
X206712114Y-86190730D01*
X206764847Y-86175410D01*
X206835153Y-86175410D01*
X206887886Y-86190730D01*
X206960640Y-86211867D01*
X206967045Y-86212371D01*
X206967050Y-86212372D01*
X206994814Y-86214557D01*
X206994822Y-86214557D01*
X206997270Y-86214750D01*
X207402730Y-86214750D01*
X207405178Y-86214557D01*
X207405186Y-86214557D01*
X207432950Y-86212372D01*
X207432955Y-86212371D01*
X207439360Y-86211867D01*
X207512114Y-86190730D01*
X207564847Y-86175410D01*
X207635153Y-86175410D01*
X207687886Y-86190730D01*
X207760640Y-86211867D01*
X207767045Y-86212371D01*
X207767050Y-86212372D01*
X207794814Y-86214557D01*
X207794822Y-86214557D01*
X207797270Y-86214750D01*
X208202730Y-86214750D01*
X208205178Y-86214557D01*
X208205186Y-86214557D01*
X208232950Y-86212372D01*
X208232955Y-86212371D01*
X208239360Y-86211867D01*
X208245532Y-86210074D01*
X208245537Y-86210073D01*
X208273577Y-86201926D01*
X208344573Y-86202129D01*
X208404190Y-86240683D01*
X208433498Y-86305347D01*
X208429726Y-86358078D01*
X208429210Y-86359855D01*
X208429250Y-86373955D01*
X208436520Y-86377250D01*
X209390385Y-86377250D01*
X209405624Y-86372775D01*
X209406829Y-86371385D01*
X209408500Y-86363702D01*
X209408500Y-85866365D01*
X209404025Y-85851126D01*
X209402635Y-85849921D01*
X209394952Y-85848250D01*
X208999784Y-85848250D01*
X208994857Y-85848443D01*
X208967129Y-85850626D01*
X208954543Y-85852924D01*
X208926826Y-85860977D01*
X208855830Y-85860774D01*
X208796214Y-85822221D01*
X208766905Y-85757556D01*
X208770676Y-85704827D01*
X208778823Y-85676787D01*
X208778824Y-85676782D01*
X208780617Y-85670610D01*
X208783500Y-85633980D01*
X208783500Y-84303520D01*
X208782647Y-84292676D01*
X208781122Y-84273300D01*
X208781121Y-84273295D01*
X208780617Y-84266890D01*
X208778824Y-84260718D01*
X208778823Y-84260713D01*
X208737293Y-84117767D01*
X208737292Y-84117765D01*
X208735081Y-84110154D01*
X208677566Y-84012900D01*
X208656031Y-83976485D01*
X208656028Y-83976481D01*
X208651997Y-83969665D01*
X208536585Y-83854253D01*
X208529769Y-83850222D01*
X208529765Y-83850219D01*
X208402919Y-83775204D01*
X208396096Y-83771169D01*
X208388485Y-83768958D01*
X208388483Y-83768957D01*
X208245537Y-83727427D01*
X208245532Y-83727426D01*
X208239360Y-83725633D01*
X208232955Y-83725129D01*
X208232950Y-83725128D01*
X208205186Y-83722943D01*
X208205178Y-83722943D01*
X208202730Y-83722750D01*
X207797270Y-83722750D01*
X207794822Y-83722943D01*
X207794814Y-83722943D01*
X207767050Y-83725128D01*
X207767045Y-83725129D01*
X207760640Y-83725633D01*
X207700274Y-83743171D01*
X207635153Y-83762090D01*
X207564847Y-83762090D01*
X207499726Y-83743171D01*
X207439360Y-83725633D01*
X207432955Y-83725129D01*
X207432950Y-83725128D01*
X207405186Y-83722943D01*
X207405178Y-83722943D01*
X207402730Y-83722750D01*
X206997270Y-83722750D01*
X206994822Y-83722943D01*
X206994814Y-83722943D01*
X206967050Y-83725128D01*
X206967045Y-83725129D01*
X206960640Y-83725633D01*
X206900274Y-83743171D01*
X206835153Y-83762090D01*
X206764847Y-83762090D01*
X206699726Y-83743171D01*
X206639360Y-83725633D01*
X206632955Y-83725129D01*
X206632950Y-83725128D01*
X206605186Y-83722943D01*
X206605178Y-83722943D01*
X206602730Y-83722750D01*
X206197270Y-83722750D01*
X206194822Y-83722943D01*
X206194814Y-83722943D01*
X206167050Y-83725128D01*
X206167045Y-83725129D01*
X206160640Y-83725633D01*
X206100274Y-83743171D01*
X206035153Y-83762090D01*
X205964847Y-83762090D01*
X205899726Y-83743171D01*
X205839360Y-83725633D01*
X205832955Y-83725129D01*
X205832950Y-83725128D01*
X205805186Y-83722943D01*
X205805178Y-83722943D01*
X205802730Y-83722750D01*
X205558742Y-83722750D01*
X205490621Y-83702748D01*
X205444128Y-83649092D01*
X205434760Y-83602525D01*
X205433488Y-83602645D01*
X205429327Y-83558627D01*
X205428768Y-83546769D01*
X205428768Y-80648301D01*
X205448770Y-80580180D01*
X205473777Y-80551779D01*
X205729682Y-80337049D01*
X205794722Y-80308585D01*
X205810673Y-80307571D01*
X206547173Y-80307571D01*
X206615294Y-80327573D01*
X206661787Y-80381229D01*
X206672602Y-80425415D01*
X206672750Y-80425400D01*
X206673087Y-80428647D01*
X206673087Y-80428649D01*
X206682990Y-80524090D01*
X206683724Y-80531166D01*
X206685905Y-80537702D01*
X206685905Y-80537704D01*
X206713641Y-80620838D01*
X206739700Y-80698946D01*
X206832772Y-80849348D01*
X206957947Y-80974305D01*
X206964177Y-80978145D01*
X206964178Y-80978146D01*
X207101340Y-81062694D01*
X207108512Y-81067115D01*
X207129650Y-81074126D01*
X207269861Y-81120632D01*
X207269863Y-81120632D01*
X207276389Y-81122797D01*
X207283225Y-81123497D01*
X207283228Y-81123498D01*
X207326281Y-81127909D01*
X207380850Y-81133500D01*
X208431650Y-81133500D01*
X208434896Y-81133163D01*
X208434900Y-81133163D01*
X208530558Y-81123238D01*
X208530562Y-81123237D01*
X208537416Y-81122526D01*
X208543952Y-81120345D01*
X208543954Y-81120345D01*
X208682488Y-81074126D01*
X208705196Y-81066550D01*
X208855598Y-80973478D01*
X208980555Y-80848303D01*
X208998787Y-80818726D01*
X209069525Y-80703968D01*
X209069526Y-80703966D01*
X209073365Y-80697738D01*
X209105441Y-80601031D01*
X209126882Y-80536389D01*
X209126882Y-80536387D01*
X209129047Y-80529861D01*
X209130159Y-80519014D01*
X209136027Y-80461736D01*
X209139750Y-80425400D01*
X209139750Y-79649600D01*
X209128776Y-79543834D01*
X209120196Y-79518115D01*
X209075118Y-79383002D01*
X209072800Y-79376054D01*
X208979728Y-79225652D01*
X208854553Y-79100695D01*
X208850015Y-79097898D01*
X208809426Y-79040647D01*
X208806196Y-78969724D01*
X208841822Y-78908313D01*
X208850318Y-78900938D01*
X208860457Y-78892902D01*
X208974989Y-78778171D01*
X208984001Y-78766760D01*
X209069066Y-78628757D01*
X209075213Y-78615576D01*
X209126388Y-78461290D01*
X209129255Y-78447914D01*
X209138922Y-78353562D01*
X209139250Y-78347146D01*
X209139250Y-78234615D01*
X209134775Y-78219376D01*
X209133385Y-78218171D01*
X209125702Y-78216500D01*
X206691366Y-78216500D01*
X206676127Y-78220975D01*
X206674922Y-78222365D01*
X206673251Y-78230048D01*
X206673251Y-78347095D01*
X206673588Y-78353614D01*
X206683507Y-78449206D01*
X206686399Y-78462600D01*
X206737838Y-78616784D01*
X206744011Y-78629962D01*
X206829313Y-78767807D01*
X206838349Y-78779208D01*
X206884619Y-78825398D01*
X206918698Y-78887681D01*
X206913695Y-78958501D01*
X206871197Y-79015374D01*
X206804699Y-79040242D01*
X206795601Y-79040571D01*
X205900038Y-79040571D01*
X205831917Y-79020569D01*
X205803516Y-78995562D01*
X205306611Y-78403374D01*
X205306610Y-78403373D01*
X205304420Y-78400763D01*
X205259276Y-78357471D01*
X205252353Y-78353562D01*
X205169843Y-78306975D01*
X205120359Y-78256065D01*
X205112983Y-78239211D01*
X205081885Y-78151147D01*
X205074858Y-78137130D01*
X205046387Y-78094602D01*
X205042307Y-78089167D01*
X204802823Y-77803762D01*
X204789598Y-77794963D01*
X204787759Y-77794934D01*
X204780801Y-77798591D01*
X203767743Y-78648648D01*
X203702703Y-78677112D01*
X203632598Y-78665895D01*
X203590230Y-78633117D01*
X203344686Y-78340489D01*
X202807391Y-77700165D01*
X202794166Y-77691366D01*
X202792327Y-77691337D01*
X202785369Y-77694994D01*
X202419863Y-78001690D01*
X202414893Y-78006341D01*
X202379469Y-78043279D01*
X202370120Y-78055857D01*
X202306873Y-78167874D01*
X202300417Y-78184434D01*
X202280410Y-78270070D01*
X202245435Y-78331854D01*
X202182609Y-78364921D01*
X202164641Y-78367214D01*
X202067128Y-78372581D01*
X201929782Y-78421082D01*
X201923216Y-78425477D01*
X201923215Y-78425478D01*
X201890068Y-78447668D01*
X201877806Y-78455877D01*
X201818926Y-78505283D01*
X201082818Y-79122951D01*
X201017778Y-79151415D01*
X201001827Y-79152429D01*
X199708504Y-79152429D01*
X199640383Y-79132427D01*
X199619486Y-79115602D01*
X199609736Y-79105869D01*
X199604553Y-79100695D01*
X199600015Y-79097898D01*
X199559426Y-79040647D01*
X199556196Y-78969724D01*
X199591822Y-78908313D01*
X199600318Y-78900938D01*
X199610457Y-78892902D01*
X199724989Y-78778171D01*
X199734001Y-78766760D01*
X199819066Y-78628757D01*
X199825213Y-78615576D01*
X199876388Y-78461290D01*
X199879255Y-78447914D01*
X199888922Y-78353562D01*
X199889250Y-78347146D01*
X199889250Y-78234615D01*
X199884775Y-78219376D01*
X199883385Y-78218171D01*
X199875702Y-78216500D01*
X197441366Y-78216500D01*
X197426127Y-78220975D01*
X197424922Y-78222365D01*
X197423251Y-78230048D01*
X197423251Y-78347095D01*
X197423588Y-78353614D01*
X197433507Y-78449206D01*
X197436399Y-78462600D01*
X197487838Y-78616784D01*
X197494011Y-78629962D01*
X197579313Y-78767807D01*
X197588349Y-78779208D01*
X197703078Y-78893738D01*
X197712012Y-78900794D01*
X197753073Y-78958712D01*
X197756303Y-79029635D01*
X197720676Y-79091046D01*
X197712843Y-79097846D01*
X197706902Y-79101522D01*
X197701729Y-79106704D01*
X197685510Y-79122951D01*
X197581945Y-79226697D01*
X197578105Y-79232927D01*
X197578104Y-79232928D01*
X197515905Y-79333834D01*
X197489135Y-79377262D01*
X197486831Y-79384209D01*
X197446480Y-79505865D01*
X197433453Y-79545139D01*
X197422750Y-79649600D01*
X197422750Y-80425400D01*
X197423087Y-80428646D01*
X197423087Y-80428650D01*
X197432990Y-80524090D01*
X197433724Y-80531166D01*
X197435905Y-80537702D01*
X197435905Y-80537704D01*
X197463641Y-80620838D01*
X197489700Y-80698946D01*
X197582772Y-80849348D01*
X197707947Y-80974305D01*
X197714177Y-80978145D01*
X197714178Y-80978146D01*
X197851340Y-81062694D01*
X197858512Y-81067115D01*
X197879650Y-81074126D01*
X198019861Y-81120632D01*
X198019863Y-81120632D01*
X198026389Y-81122797D01*
X198033225Y-81123497D01*
X198033228Y-81123498D01*
X198076281Y-81127909D01*
X198130850Y-81133500D01*
X199181650Y-81133500D01*
X199184896Y-81133163D01*
X199184900Y-81133163D01*
X199280558Y-81123238D01*
X199280562Y-81123237D01*
X199287416Y-81122526D01*
X199293952Y-81120345D01*
X199293954Y-81120345D01*
X199432488Y-81074126D01*
X199455196Y-81066550D01*
X199605598Y-80973478D01*
X199730555Y-80848303D01*
X199748787Y-80818726D01*
X199819525Y-80703968D01*
X199819526Y-80703966D01*
X199823365Y-80697738D01*
X199879047Y-80529861D01*
X199879748Y-80523020D01*
X199880607Y-80519014D01*
X199914446Y-80456600D01*
X199976656Y-80422389D01*
X200003807Y-80419429D01*
X200760866Y-80419429D01*
X200828987Y-80439431D01*
X200875480Y-80493087D01*
X200886866Y-80545429D01*
X200886866Y-82619455D01*
X200886339Y-82630638D01*
X200884664Y-82638131D01*
X200884913Y-82646057D01*
X200884913Y-82646058D01*
X200886804Y-82706208D01*
X200886866Y-82710167D01*
X200886866Y-82728000D01*
X200866864Y-82796121D01*
X200813208Y-82842614D01*
X200760866Y-82854000D01*
X199068788Y-82854000D01*
X199000667Y-82833998D01*
X198954174Y-82780342D01*
X198949264Y-82767876D01*
X198925118Y-82695502D01*
X198922800Y-82688554D01*
X198829728Y-82538152D01*
X198704553Y-82413195D01*
X198623956Y-82363514D01*
X198560218Y-82324225D01*
X198560216Y-82324224D01*
X198553988Y-82320385D01*
X198468376Y-82291989D01*
X198392639Y-82266868D01*
X198392637Y-82266868D01*
X198386111Y-82264703D01*
X198379275Y-82264003D01*
X198379272Y-82264002D01*
X198336219Y-82259591D01*
X198281650Y-82254000D01*
X197505850Y-82254000D01*
X197502604Y-82254337D01*
X197502600Y-82254337D01*
X197406942Y-82264262D01*
X197406938Y-82264263D01*
X197400084Y-82264974D01*
X197393548Y-82267155D01*
X197393546Y-82267155D01*
X197327098Y-82289324D01*
X197232304Y-82320950D01*
X197081902Y-82414022D01*
X196956945Y-82539197D01*
X196954148Y-82543735D01*
X196896897Y-82584324D01*
X196825974Y-82587554D01*
X196764563Y-82551928D01*
X196757188Y-82543432D01*
X196749152Y-82533293D01*
X196634421Y-82418761D01*
X196623010Y-82409749D01*
X196485007Y-82324684D01*
X196471826Y-82318537D01*
X196317540Y-82267362D01*
X196304164Y-82264495D01*
X196209812Y-82254828D01*
X196203395Y-82254500D01*
X196090865Y-82254500D01*
X196075626Y-82258975D01*
X196074421Y-82260365D01*
X196072750Y-82268048D01*
X196072750Y-84702384D01*
X196077225Y-84717623D01*
X196078615Y-84718828D01*
X196086298Y-84720499D01*
X196203345Y-84720499D01*
X196209864Y-84720162D01*
X196305456Y-84710243D01*
X196318850Y-84707351D01*
X196473034Y-84655912D01*
X196486212Y-84649739D01*
X196624057Y-84564437D01*
X196635458Y-84555401D01*
X196749988Y-84440672D01*
X196757044Y-84431738D01*
X196814962Y-84390677D01*
X196885885Y-84387447D01*
X196947296Y-84423074D01*
X196954096Y-84430907D01*
X196957772Y-84436848D01*
X197082947Y-84561805D01*
X197089177Y-84565645D01*
X197089178Y-84565646D01*
X197226340Y-84650194D01*
X197233512Y-84654615D01*
X197249609Y-84659954D01*
X197394861Y-84708132D01*
X197394863Y-84708132D01*
X197401389Y-84710297D01*
X197408225Y-84710997D01*
X197408228Y-84710998D01*
X197451281Y-84715409D01*
X197505850Y-84721000D01*
X198281650Y-84721000D01*
X198284896Y-84720663D01*
X198284900Y-84720663D01*
X198380558Y-84710738D01*
X198380562Y-84710737D01*
X198387416Y-84710026D01*
X198393952Y-84707845D01*
X198393954Y-84707845D01*
X198539942Y-84659139D01*
X198555196Y-84654050D01*
X198705598Y-84560978D01*
X198830555Y-84435803D01*
X198846469Y-84409986D01*
X198919525Y-84291468D01*
X198919526Y-84291466D01*
X198923365Y-84285238D01*
X198949205Y-84207333D01*
X198989636Y-84148973D01*
X199055200Y-84121736D01*
X199068798Y-84121000D01*
X199095598Y-84121000D01*
X199163719Y-84141002D01*
X199210212Y-84194658D01*
X199219204Y-84266876D01*
X199219383Y-84266890D01*
X199218878Y-84273304D01*
X199218878Y-84273305D01*
X199217449Y-84291468D01*
X199216500Y-84303520D01*
X199216500Y-85633980D01*
X199219383Y-85670610D01*
X199221176Y-85676782D01*
X199221177Y-85676787D01*
X199229159Y-85704259D01*
X199228956Y-85775255D01*
X199190402Y-85834872D01*
X199125738Y-85864180D01*
X199073009Y-85860409D01*
X199045537Y-85852427D01*
X199045532Y-85852426D01*
X199039360Y-85850633D01*
X199032955Y-85850129D01*
X199032950Y-85850128D01*
X199005186Y-85847943D01*
X199005178Y-85847943D01*
X199002730Y-85847750D01*
X197672270Y-85847750D01*
X197669822Y-85847943D01*
X197669814Y-85847943D01*
X197642050Y-85850128D01*
X197642045Y-85850129D01*
X197635640Y-85850633D01*
X197629468Y-85852426D01*
X197629463Y-85852427D01*
X197486517Y-85893957D01*
X197486515Y-85893958D01*
X197478904Y-85896169D01*
X197472081Y-85900204D01*
X197345235Y-85975219D01*
X197345231Y-85975222D01*
X197338415Y-85979253D01*
X197223003Y-86094665D01*
X197218972Y-86101481D01*
X197218969Y-86101485D01*
X197175251Y-86175410D01*
X197139919Y-86235154D01*
X197137708Y-86242765D01*
X197137707Y-86242767D01*
X197096177Y-86385713D01*
X197096176Y-86385718D01*
X197094383Y-86391890D01*
X197091500Y-86428520D01*
X197091500Y-86833980D01*
X197091693Y-86836428D01*
X197091693Y-86836436D01*
X197092934Y-86852196D01*
X197094383Y-86870610D01*
X197111394Y-86929162D01*
X197130840Y-86996097D01*
X197130840Y-87066403D01*
X197121982Y-87096893D01*
X197094383Y-87191890D01*
X197093879Y-87198295D01*
X197093878Y-87198300D01*
X197092029Y-87221795D01*
X197091500Y-87228520D01*
X197091500Y-87633980D01*
X197091693Y-87636428D01*
X197091693Y-87636436D01*
X197093205Y-87655642D01*
X197094383Y-87670610D01*
X197112742Y-87733801D01*
X197130840Y-87796097D01*
X197130840Y-87866403D01*
X197117700Y-87911632D01*
X197094383Y-87991890D01*
X197091500Y-88028520D01*
X197091500Y-88433980D01*
X197091693Y-88436428D01*
X197091693Y-88436436D01*
X197093310Y-88456976D01*
X197094383Y-88470610D01*
X197104352Y-88504922D01*
X197130840Y-88596097D01*
X197130840Y-88666403D01*
X197094383Y-88791890D01*
X197093879Y-88798295D01*
X197093878Y-88798300D01*
X197091741Y-88825457D01*
X197091500Y-88828520D01*
X197091500Y-89200212D01*
X197071498Y-89268333D01*
X197017842Y-89314826D01*
X196947568Y-89324930D01*
X196882988Y-89295436D01*
X196857047Y-89264352D01*
X196851195Y-89254457D01*
X196842497Y-89236702D01*
X196837961Y-89225247D01*
X196835041Y-89217872D01*
X196809052Y-89182101D01*
X196802536Y-89172181D01*
X196784067Y-89140952D01*
X196780031Y-89134127D01*
X196765710Y-89119806D01*
X196752869Y-89104772D01*
X196751544Y-89102948D01*
X196740961Y-89088382D01*
X196706884Y-89060191D01*
X196698105Y-89052201D01*
X195577135Y-87931230D01*
X195543109Y-87868918D01*
X195540230Y-87842135D01*
X195540230Y-84788000D01*
X195560232Y-84719879D01*
X195562637Y-84716667D01*
X195564750Y-84706952D01*
X195564750Y-82272616D01*
X195551536Y-82227613D01*
X195545333Y-82217961D01*
X195540230Y-82182465D01*
X195540230Y-80735497D01*
X195540757Y-80724314D01*
X195542432Y-80716821D01*
X195542171Y-80708500D01*
X195540292Y-80648744D01*
X195540230Y-80644785D01*
X195540230Y-80616874D01*
X195539725Y-80612874D01*
X195538792Y-80601031D01*
X195538273Y-80584500D01*
X195537403Y-80556840D01*
X195531752Y-80537388D01*
X195527744Y-80518036D01*
X195526197Y-80505793D01*
X195525204Y-80497933D01*
X195514100Y-80469886D01*
X195508930Y-80456827D01*
X195505085Y-80445600D01*
X195503293Y-80439431D01*
X195492748Y-80403137D01*
X195488714Y-80396315D01*
X195488711Y-80396309D01*
X195482436Y-80385698D01*
X195473740Y-80367948D01*
X195469202Y-80356486D01*
X195469199Y-80356481D01*
X195466282Y-80349113D01*
X195451111Y-80328232D01*
X195440303Y-80313355D01*
X195433787Y-80303437D01*
X195415305Y-80272187D01*
X195411272Y-80265367D01*
X195396948Y-80251043D01*
X195384106Y-80236008D01*
X195372202Y-80219623D01*
X195338136Y-80191441D01*
X195329357Y-80183452D01*
X194895405Y-79749500D01*
X194861379Y-79687188D01*
X194858500Y-79660405D01*
X194858500Y-78999600D01*
X194854236Y-78958501D01*
X194848238Y-78900692D01*
X194848237Y-78900688D01*
X194847526Y-78893834D01*
X194838843Y-78867806D01*
X194795503Y-78737903D01*
X194791550Y-78726054D01*
X194698478Y-78575652D01*
X194659715Y-78536956D01*
X194621160Y-78498469D01*
X194573303Y-78450695D01*
X194497956Y-78404250D01*
X194428968Y-78361725D01*
X194428966Y-78361724D01*
X194422738Y-78357885D01*
X194308967Y-78320149D01*
X194261389Y-78304368D01*
X194261387Y-78304368D01*
X194254861Y-78302203D01*
X194248025Y-78301503D01*
X194248022Y-78301502D01*
X194204969Y-78297091D01*
X194150400Y-78291500D01*
X193349600Y-78291500D01*
X193346354Y-78291837D01*
X193346350Y-78291837D01*
X193250692Y-78301762D01*
X193250688Y-78301763D01*
X193243834Y-78302474D01*
X193237298Y-78304655D01*
X193237296Y-78304655D01*
X193119309Y-78344019D01*
X193076054Y-78358450D01*
X192925652Y-78451522D01*
X192864660Y-78512621D01*
X192839216Y-78538109D01*
X192776934Y-78572188D01*
X192706114Y-78567185D01*
X192661025Y-78538264D01*
X192578483Y-78455866D01*
X192573303Y-78450695D01*
X192497956Y-78404250D01*
X192428968Y-78361725D01*
X192428966Y-78361724D01*
X192422738Y-78357885D01*
X192308967Y-78320149D01*
X192261389Y-78304368D01*
X192261387Y-78304368D01*
X192254861Y-78302203D01*
X192248025Y-78301503D01*
X192248022Y-78301502D01*
X192204969Y-78297091D01*
X192150400Y-78291500D01*
X191349600Y-78291500D01*
X191346354Y-78291837D01*
X191346350Y-78291837D01*
X191250692Y-78301762D01*
X191250688Y-78301763D01*
X191243834Y-78302474D01*
X191237298Y-78304655D01*
X191237296Y-78304655D01*
X191119309Y-78344019D01*
X191076054Y-78358450D01*
X190925652Y-78451522D01*
X190800695Y-78576697D01*
X190796855Y-78582927D01*
X190796854Y-78582928D01*
X190756344Y-78648648D01*
X190707885Y-78727262D01*
X190687183Y-78789676D01*
X190654677Y-78887681D01*
X190652203Y-78895139D01*
X190641500Y-78999600D01*
X190641500Y-79660405D01*
X190621498Y-79728526D01*
X190604595Y-79749500D01*
X187509036Y-82845059D01*
X187446724Y-82879085D01*
X187375909Y-82874020D01*
X187319073Y-82831473D01*
X187302749Y-82802245D01*
X187278994Y-82742093D01*
X187278992Y-82742089D01*
X187277033Y-82737128D01*
X187157353Y-82539901D01*
X187130157Y-82508560D01*
X187009653Y-82369691D01*
X187009651Y-82369689D01*
X187006153Y-82365658D01*
X186918830Y-82294057D01*
X186831885Y-82222766D01*
X186831879Y-82222762D01*
X186827757Y-82219382D01*
X186627265Y-82105256D01*
X186622249Y-82103435D01*
X186622244Y-82103433D01*
X186415425Y-82028361D01*
X186415421Y-82028360D01*
X186410410Y-82026541D01*
X186405161Y-82025592D01*
X186405158Y-82025591D01*
X186187477Y-81986228D01*
X186187470Y-81986227D01*
X186183393Y-81985490D01*
X186165656Y-81984654D01*
X186160708Y-81984420D01*
X186160701Y-81984420D01*
X186159220Y-81984350D01*
X185997075Y-81984350D01*
X185930119Y-81990031D01*
X185830438Y-81998489D01*
X185830434Y-81998490D01*
X185825127Y-81998940D01*
X185819972Y-82000278D01*
X185819966Y-82000279D01*
X185606997Y-82055555D01*
X185606993Y-82055556D01*
X185601828Y-82056897D01*
X185596962Y-82059089D01*
X185596959Y-82059090D01*
X185410667Y-82143008D01*
X185391485Y-82151649D01*
X185387065Y-82154625D01*
X185387061Y-82154627D01*
X185294800Y-82216742D01*
X185200115Y-82280488D01*
X185033188Y-82439728D01*
X185030000Y-82444013D01*
X184899468Y-82619455D01*
X184895479Y-82624816D01*
X184893064Y-82629566D01*
X184837894Y-82738078D01*
X184790923Y-82830462D01*
X184780361Y-82864478D01*
X184724095Y-83045680D01*
X184724094Y-83045686D01*
X184722511Y-83050783D01*
X184717475Y-83088782D01*
X184693723Y-83267994D01*
X184692200Y-83279482D01*
X184692400Y-83284812D01*
X184692400Y-83284813D01*
X184695957Y-83379563D01*
X184700854Y-83510018D01*
X184748228Y-83735800D01*
X184750186Y-83740759D01*
X184750187Y-83740761D01*
X184778945Y-83813580D01*
X184832967Y-83950372D01*
X184903717Y-84066964D01*
X184934545Y-84117767D01*
X184952647Y-84147599D01*
X184956144Y-84151629D01*
X185085817Y-84301064D01*
X185103847Y-84321842D01*
X185107978Y-84325229D01*
X185278115Y-84464734D01*
X185278121Y-84464738D01*
X185282243Y-84468118D01*
X185482735Y-84582244D01*
X185487759Y-84584068D01*
X185487762Y-84584069D01*
X185508763Y-84591692D01*
X185565972Y-84633735D01*
X185591369Y-84700034D01*
X185576890Y-84769539D01*
X185554869Y-84799226D01*
X185312329Y-85041766D01*
X185250017Y-85075792D01*
X185223234Y-85078671D01*
X183054932Y-85078671D01*
X182986811Y-85058669D01*
X182940318Y-85005013D01*
X182930214Y-84934739D01*
X182952996Y-84878610D01*
X183010672Y-84799226D01*
X183092024Y-84687254D01*
X183107033Y-84659954D01*
X183241813Y-84414789D01*
X183241814Y-84414786D01*
X183243716Y-84411327D01*
X183357001Y-84125204D01*
X183358177Y-84122233D01*
X183358177Y-84122232D01*
X183359630Y-84118563D01*
X183437936Y-83813580D01*
X183477400Y-83501188D01*
X183477400Y-83186312D01*
X183437936Y-82873920D01*
X183359630Y-82568937D01*
X183345518Y-82533293D01*
X183298939Y-82415650D01*
X183243716Y-82276173D01*
X183238872Y-82267362D01*
X183093933Y-82003718D01*
X183093931Y-82003715D01*
X183092024Y-82000246D01*
X182939288Y-81790022D01*
X182909273Y-81748710D01*
X182909272Y-81748708D01*
X182906945Y-81745506D01*
X182691398Y-81515972D01*
X182448782Y-81315263D01*
X182182924Y-81146544D01*
X182179345Y-81144860D01*
X182179338Y-81144856D01*
X181901606Y-81014166D01*
X181901602Y-81014164D01*
X181898016Y-81012477D01*
X181598552Y-80915175D01*
X181289254Y-80856173D01*
X181195700Y-80850287D01*
X181055642Y-80841475D01*
X181055626Y-80841474D01*
X181053647Y-80841350D01*
X180896353Y-80841350D01*
X180894374Y-80841474D01*
X180894358Y-80841475D01*
X180754300Y-80850287D01*
X180660746Y-80856173D01*
X180351448Y-80915175D01*
X180051984Y-81012477D01*
X180048398Y-81014164D01*
X180048394Y-81014166D01*
X179770662Y-81144856D01*
X179770655Y-81144860D01*
X179767076Y-81146544D01*
X179501218Y-81315263D01*
X179258602Y-81515972D01*
X179043055Y-81745506D01*
X179040728Y-81748708D01*
X179040727Y-81748710D01*
X179010712Y-81790022D01*
X178857976Y-82000246D01*
X178856069Y-82003715D01*
X178856067Y-82003718D01*
X178711128Y-82267362D01*
X178706284Y-82276173D01*
X178651061Y-82415650D01*
X178604483Y-82533293D01*
X178590370Y-82568937D01*
X178512064Y-82873920D01*
X178472600Y-83186312D01*
X178472600Y-83501188D01*
X178512064Y-83813580D01*
X178590370Y-84118563D01*
X178591823Y-84122232D01*
X178591823Y-84122233D01*
X178592999Y-84125204D01*
X178706284Y-84411327D01*
X178708186Y-84414786D01*
X178708187Y-84414789D01*
X178842968Y-84659954D01*
X178857976Y-84687254D01*
X178939328Y-84799226D01*
X178997004Y-84878610D01*
X179020863Y-84945478D01*
X179004782Y-85014629D01*
X178953868Y-85064110D01*
X178895068Y-85078671D01*
X174162483Y-85078671D01*
X174094362Y-85058669D01*
X174073388Y-85041766D01*
X172311105Y-83279482D01*
X174532200Y-83279482D01*
X174532400Y-83284812D01*
X174532400Y-83284813D01*
X174535957Y-83379563D01*
X174540854Y-83510018D01*
X174588228Y-83735800D01*
X174590186Y-83740759D01*
X174590187Y-83740761D01*
X174618945Y-83813580D01*
X174672967Y-83950372D01*
X174743717Y-84066964D01*
X174774545Y-84117767D01*
X174792647Y-84147599D01*
X174796144Y-84151629D01*
X174925817Y-84301064D01*
X174943847Y-84321842D01*
X174947978Y-84325229D01*
X175118115Y-84464734D01*
X175118121Y-84464738D01*
X175122243Y-84468118D01*
X175322735Y-84582244D01*
X175327751Y-84584065D01*
X175327756Y-84584067D01*
X175534575Y-84659139D01*
X175534579Y-84659140D01*
X175539590Y-84660959D01*
X175544839Y-84661908D01*
X175544842Y-84661909D01*
X175762523Y-84701272D01*
X175762530Y-84701273D01*
X175766607Y-84702010D01*
X175784344Y-84702846D01*
X175789292Y-84703080D01*
X175789299Y-84703080D01*
X175790780Y-84703150D01*
X175952925Y-84703150D01*
X176019881Y-84697469D01*
X176119562Y-84689011D01*
X176119566Y-84689010D01*
X176124873Y-84688560D01*
X176130028Y-84687222D01*
X176130034Y-84687221D01*
X176343003Y-84631945D01*
X176343007Y-84631944D01*
X176348172Y-84630603D01*
X176353038Y-84628411D01*
X176353041Y-84628410D01*
X176553649Y-84538043D01*
X176558515Y-84535851D01*
X176562935Y-84532875D01*
X176562939Y-84532873D01*
X176667324Y-84462596D01*
X176749885Y-84407012D01*
X176916812Y-84247772D01*
X177009057Y-84123790D01*
X177051337Y-84066964D01*
X177051339Y-84066961D01*
X177054521Y-84062684D01*
X177109305Y-83954933D01*
X177156658Y-83861796D01*
X177156658Y-83861795D01*
X177159077Y-83857038D01*
X177199880Y-83725633D01*
X177225905Y-83641820D01*
X177225906Y-83641814D01*
X177227489Y-83636717D01*
X177248623Y-83477262D01*
X177257100Y-83413303D01*
X177257100Y-83413298D01*
X177257800Y-83408018D01*
X177256412Y-83371028D01*
X177249346Y-83182813D01*
X177249146Y-83177482D01*
X177201772Y-82951700D01*
X177172610Y-82877856D01*
X177152558Y-82827083D01*
X177117033Y-82737128D01*
X177107471Y-82721370D01*
X177089231Y-82652757D01*
X177110982Y-82585174D01*
X177165818Y-82540080D01*
X177213540Y-82530015D01*
X177218279Y-82529953D01*
X177269231Y-82529286D01*
X177527203Y-82487272D01*
X177556200Y-82477990D01*
X177771686Y-82409013D01*
X177771688Y-82409012D01*
X177776131Y-82407590D01*
X177780316Y-82405526D01*
X177780319Y-82405525D01*
X178006354Y-82294057D01*
X178006357Y-82294055D01*
X178010547Y-82291989D01*
X178046047Y-82267362D01*
X178168424Y-82182465D01*
X178225301Y-82143008D01*
X178228704Y-82139807D01*
X178228710Y-82139802D01*
X178412274Y-81967123D01*
X178415676Y-81963923D01*
X178550751Y-81792581D01*
X178688005Y-81577136D01*
X179841955Y-79765797D01*
X179841959Y-79765791D01*
X179843218Y-79763814D01*
X179935436Y-79592187D01*
X180023757Y-79346192D01*
X180074749Y-79089843D01*
X180081360Y-78952203D01*
X180087065Y-78833446D01*
X180087065Y-78833441D01*
X180087289Y-78828775D01*
X180083352Y-78789676D01*
X181716335Y-78789676D01*
X181716349Y-78791994D01*
X181716349Y-78791999D01*
X181717436Y-78969724D01*
X181717526Y-78984506D01*
X181757738Y-79242764D01*
X181759133Y-79247228D01*
X181759134Y-79247234D01*
X181801551Y-79383002D01*
X181835680Y-79492243D01*
X181949642Y-79727460D01*
X182097120Y-79943249D01*
X182274874Y-80134868D01*
X182278518Y-80137782D01*
X182278521Y-80137785D01*
X182422173Y-80252667D01*
X182478998Y-80298111D01*
X182705008Y-80429387D01*
X182709354Y-80431112D01*
X182709358Y-80431114D01*
X182943593Y-80524090D01*
X182943599Y-80524092D01*
X182947940Y-80525815D01*
X182952490Y-80526878D01*
X183061440Y-80552332D01*
X183202457Y-80585278D01*
X183207109Y-80585656D01*
X183207113Y-80585657D01*
X183458305Y-80606087D01*
X183458308Y-80606087D01*
X183462968Y-80606466D01*
X183723748Y-80588916D01*
X183728308Y-80587918D01*
X183728312Y-80587917D01*
X183922364Y-80545429D01*
X183979071Y-80533013D01*
X184223324Y-80439986D01*
X184438168Y-80319174D01*
X184447072Y-80314167D01*
X184447073Y-80314166D01*
X184451146Y-80311876D01*
X184657529Y-80151499D01*
X184837940Y-79962380D01*
X184851411Y-79943249D01*
X184985730Y-79752486D01*
X184985731Y-79752484D01*
X184988416Y-79748671D01*
X185105650Y-79515067D01*
X185187069Y-79266702D01*
X185194929Y-79220479D01*
X185223112Y-79054724D01*
X185223642Y-79051607D01*
X185273665Y-78317824D01*
X185273624Y-78311091D01*
X185272503Y-78127666D01*
X185272503Y-78127660D01*
X185272474Y-78122994D01*
X185232262Y-77864736D01*
X185230867Y-77860272D01*
X185230866Y-77860266D01*
X185177792Y-77690385D01*
X197423250Y-77690385D01*
X197427725Y-77705624D01*
X197429115Y-77706829D01*
X197436798Y-77708500D01*
X198384135Y-77708500D01*
X198399374Y-77704025D01*
X198400579Y-77702635D01*
X198402250Y-77694952D01*
X198402250Y-77690385D01*
X198910250Y-77690385D01*
X198914725Y-77705624D01*
X198916115Y-77706829D01*
X198923798Y-77708500D01*
X199871134Y-77708500D01*
X199886373Y-77704025D01*
X199887578Y-77702635D01*
X199889249Y-77694952D01*
X199889249Y-77577905D01*
X199888912Y-77571386D01*
X199878993Y-77475794D01*
X199876101Y-77462400D01*
X199842996Y-77363170D01*
X203189946Y-77363170D01*
X203193603Y-77370128D01*
X203722191Y-78000075D01*
X203735416Y-78008874D01*
X203737255Y-78008903D01*
X203744213Y-78005246D01*
X204119450Y-77690385D01*
X206673250Y-77690385D01*
X206677725Y-77705624D01*
X206679115Y-77706829D01*
X206686798Y-77708500D01*
X207634135Y-77708500D01*
X207649374Y-77704025D01*
X207650579Y-77702635D01*
X207652250Y-77694952D01*
X207652250Y-77690385D01*
X208160250Y-77690385D01*
X208164725Y-77705624D01*
X208166115Y-77706829D01*
X208173798Y-77708500D01*
X209121134Y-77708500D01*
X209136373Y-77704025D01*
X209137578Y-77702635D01*
X209139249Y-77694952D01*
X209139249Y-77577905D01*
X209138912Y-77571386D01*
X209128993Y-77475794D01*
X209126101Y-77462400D01*
X209074662Y-77308216D01*
X209068489Y-77295038D01*
X208983187Y-77157193D01*
X208974151Y-77145792D01*
X208859421Y-77031261D01*
X208848010Y-77022249D01*
X208710007Y-76937184D01*
X208696826Y-76931037D01*
X208542540Y-76879862D01*
X208529164Y-76876995D01*
X208434812Y-76867328D01*
X208428395Y-76867000D01*
X208178365Y-76867000D01*
X208163126Y-76871475D01*
X208161921Y-76872865D01*
X208160250Y-76880548D01*
X208160250Y-77690385D01*
X207652250Y-77690385D01*
X207652250Y-76885116D01*
X207647775Y-76869877D01*
X207646385Y-76868672D01*
X207638702Y-76867001D01*
X207384155Y-76867001D01*
X207377636Y-76867338D01*
X207282044Y-76877257D01*
X207268650Y-76880149D01*
X207114466Y-76931588D01*
X207101288Y-76937761D01*
X206963443Y-77023063D01*
X206952042Y-77032099D01*
X206837511Y-77146829D01*
X206828499Y-77158240D01*
X206743434Y-77296243D01*
X206737287Y-77309424D01*
X206686112Y-77463710D01*
X206683245Y-77477086D01*
X206673578Y-77571438D01*
X206673250Y-77577855D01*
X206673250Y-77690385D01*
X204119450Y-77690385D01*
X204450764Y-77412379D01*
X204459563Y-77399154D01*
X204459592Y-77397315D01*
X204455935Y-77390357D01*
X204213518Y-77101456D01*
X204208867Y-77096486D01*
X204171929Y-77061062D01*
X204159351Y-77051713D01*
X204047335Y-76988466D01*
X204030775Y-76982010D01*
X203906556Y-76952988D01*
X203888860Y-76951440D01*
X203761481Y-76958451D01*
X203744063Y-76961932D01*
X203622758Y-77004767D01*
X203608750Y-77011790D01*
X203566218Y-77040263D01*
X203560776Y-77044350D01*
X203198774Y-77348106D01*
X203189975Y-77361331D01*
X203189946Y-77363170D01*
X199842996Y-77363170D01*
X199824662Y-77308216D01*
X199818489Y-77295038D01*
X199733187Y-77157193D01*
X199724151Y-77145792D01*
X199609421Y-77031261D01*
X199598010Y-77022249D01*
X199460007Y-76937184D01*
X199446826Y-76931037D01*
X199292540Y-76879862D01*
X199279164Y-76876995D01*
X199184812Y-76867328D01*
X199178395Y-76867000D01*
X198928365Y-76867000D01*
X198913126Y-76871475D01*
X198911921Y-76872865D01*
X198910250Y-76880548D01*
X198910250Y-77690385D01*
X198402250Y-77690385D01*
X198402250Y-76885116D01*
X198397775Y-76869877D01*
X198396385Y-76868672D01*
X198388702Y-76867001D01*
X198134155Y-76867001D01*
X198127636Y-76867338D01*
X198032044Y-76877257D01*
X198018650Y-76880149D01*
X197864466Y-76931588D01*
X197851288Y-76937761D01*
X197713443Y-77023063D01*
X197702042Y-77032099D01*
X197587511Y-77146829D01*
X197578499Y-77158240D01*
X197493434Y-77296243D01*
X197487287Y-77309424D01*
X197436112Y-77463710D01*
X197433245Y-77477086D01*
X197423578Y-77571438D01*
X197423250Y-77577855D01*
X197423250Y-77690385D01*
X185177792Y-77690385D01*
X185155716Y-77619725D01*
X185155715Y-77619724D01*
X185154320Y-77615257D01*
X185040358Y-77380040D01*
X184892880Y-77164251D01*
X184715126Y-76972632D01*
X184711482Y-76969718D01*
X184711479Y-76969715D01*
X184514656Y-76812312D01*
X184514654Y-76812311D01*
X184511002Y-76809390D01*
X184284992Y-76678113D01*
X184280646Y-76676388D01*
X184280642Y-76676386D01*
X184046407Y-76583410D01*
X184046401Y-76583408D01*
X184042060Y-76581685D01*
X183787543Y-76522222D01*
X183782891Y-76521844D01*
X183782887Y-76521843D01*
X183531695Y-76501413D01*
X183531692Y-76501413D01*
X183527032Y-76501034D01*
X183266252Y-76518584D01*
X183261692Y-76519582D01*
X183261688Y-76519583D01*
X183131970Y-76547985D01*
X183010929Y-76574487D01*
X182860196Y-76631896D01*
X182771044Y-76665851D01*
X182771040Y-76665853D01*
X182766676Y-76667515D01*
X182538854Y-76795624D01*
X182332471Y-76956001D01*
X182152060Y-77145120D01*
X182149372Y-77148938D01*
X182149370Y-77148940D01*
X182020049Y-77332604D01*
X182001584Y-77358829D01*
X181884350Y-77592433D01*
X181802931Y-77840798D01*
X181802147Y-77845406D01*
X181802147Y-77845408D01*
X181801212Y-77850906D01*
X181766358Y-78055893D01*
X181716335Y-78789676D01*
X180083352Y-78789676D01*
X180067603Y-78633268D01*
X180061572Y-78573374D01*
X180061571Y-78573370D01*
X180061103Y-78568719D01*
X179996765Y-78315391D01*
X179988680Y-78296109D01*
X179929162Y-78154175D01*
X179895691Y-78074354D01*
X179760099Y-77850906D01*
X179592968Y-77649954D01*
X179397971Y-77475911D01*
X179394063Y-77473349D01*
X179394058Y-77473345D01*
X179211175Y-77353443D01*
X179179390Y-77332604D01*
X179051506Y-77273648D01*
X178946271Y-77225133D01*
X178946264Y-77225130D01*
X178942029Y-77223178D01*
X178730953Y-77161655D01*
X178695588Y-77151347D01*
X178695586Y-77151347D01*
X178691100Y-77150039D01*
X178432117Y-77114793D01*
X178427443Y-77114854D01*
X178427440Y-77114854D01*
X178284520Y-77116725D01*
X178170769Y-77118214D01*
X177912797Y-77160228D01*
X177908339Y-77161655D01*
X177710033Y-77225133D01*
X177663869Y-77239910D01*
X177659684Y-77241974D01*
X177659681Y-77241975D01*
X177433646Y-77353443D01*
X177429453Y-77355511D01*
X177425614Y-77358174D01*
X177425611Y-77358176D01*
X177399669Y-77376173D01*
X177214699Y-77504492D01*
X177024324Y-77683578D01*
X176889249Y-77854920D01*
X176887559Y-77857573D01*
X176887556Y-77857577D01*
X176585181Y-78332211D01*
X176531710Y-78378916D01*
X176461477Y-78389299D01*
X176396780Y-78360062D01*
X176358160Y-78300489D01*
X176353992Y-78248062D01*
X176354980Y-78240556D01*
X176357895Y-78190010D01*
X176358000Y-78186363D01*
X176358000Y-77122115D01*
X176353525Y-77106876D01*
X176352135Y-77105671D01*
X176344452Y-77104000D01*
X175372115Y-77104000D01*
X175356876Y-77108475D01*
X175355671Y-77109865D01*
X175354000Y-77117548D01*
X175354000Y-79318411D01*
X175358105Y-79332393D01*
X175367728Y-79333886D01*
X175367973Y-79333834D01*
X175571883Y-79271102D01*
X175582229Y-79266881D01*
X175774404Y-79167692D01*
X175844112Y-79154223D01*
X175910035Y-79180578D01*
X175951245Y-79238391D01*
X175954656Y-79309306D01*
X175938461Y-79347357D01*
X175839385Y-79502876D01*
X175671886Y-79765797D01*
X175596782Y-79883686D01*
X175504564Y-80055313D01*
X175416243Y-80301308D01*
X175365251Y-80557657D01*
X175362599Y-80612874D01*
X175353650Y-80799187D01*
X175352711Y-80818726D01*
X175365380Y-80944541D01*
X175377336Y-81063275D01*
X175378897Y-81078781D01*
X175443235Y-81332109D01*
X175544309Y-81573146D01*
X175679901Y-81796595D01*
X175688733Y-81807214D01*
X175716913Y-81872376D01*
X175705390Y-81942431D01*
X175657821Y-81995136D01*
X175623512Y-82009741D01*
X175446997Y-82055555D01*
X175446993Y-82055556D01*
X175441828Y-82056897D01*
X175436962Y-82059089D01*
X175436959Y-82059090D01*
X175250667Y-82143008D01*
X175231485Y-82151649D01*
X175227065Y-82154625D01*
X175227061Y-82154627D01*
X175134800Y-82216742D01*
X175040115Y-82280488D01*
X174873188Y-82439728D01*
X174870000Y-82444013D01*
X174739468Y-82619455D01*
X174735479Y-82624816D01*
X174733064Y-82629566D01*
X174677894Y-82738078D01*
X174630923Y-82830462D01*
X174620361Y-82864478D01*
X174564095Y-83045680D01*
X174564094Y-83045686D01*
X174562511Y-83050783D01*
X174557475Y-83088782D01*
X174533723Y-83267994D01*
X174532200Y-83279482D01*
X172311105Y-83279482D01*
X172120405Y-83088782D01*
X172086379Y-83026470D01*
X172083500Y-82999687D01*
X172083500Y-80584500D01*
X172103502Y-80516379D01*
X172157158Y-80469886D01*
X172209500Y-80458500D01*
X172548134Y-80458500D01*
X172610316Y-80451745D01*
X172617716Y-80448971D01*
X172621942Y-80447966D01*
X172680239Y-80447966D01*
X172697646Y-80452105D01*
X172748514Y-80457631D01*
X172755328Y-80458000D01*
X172781885Y-80458000D01*
X172797124Y-80453525D01*
X172798329Y-80452135D01*
X172800000Y-80444452D01*
X172800000Y-80439884D01*
X173300000Y-80439884D01*
X173304475Y-80455123D01*
X173305865Y-80456328D01*
X173313548Y-80457999D01*
X173344669Y-80457999D01*
X173351490Y-80457629D01*
X173402352Y-80452105D01*
X173417604Y-80448479D01*
X173538054Y-80403324D01*
X173553649Y-80394786D01*
X173655724Y-80318285D01*
X173668285Y-80305724D01*
X173744786Y-80203649D01*
X173753324Y-80188054D01*
X173798478Y-80067606D01*
X173802105Y-80052351D01*
X173807631Y-80001486D01*
X173808000Y-79994672D01*
X173808000Y-79518115D01*
X173803525Y-79502876D01*
X173802135Y-79501671D01*
X173794452Y-79500000D01*
X173318115Y-79500000D01*
X173302876Y-79504475D01*
X173301671Y-79505865D01*
X173300000Y-79513548D01*
X173300000Y-80439884D01*
X172800000Y-80439884D01*
X172800000Y-80423700D01*
X172820002Y-80355579D01*
X172850436Y-80322873D01*
X172856078Y-80318645D01*
X172856081Y-80318642D01*
X172863261Y-80313261D01*
X172868642Y-80306081D01*
X172868645Y-80306078D01*
X172937226Y-80214570D01*
X172950615Y-80196705D01*
X173001745Y-80060316D01*
X173008500Y-79998134D01*
X173008500Y-78981885D01*
X173300000Y-78981885D01*
X173304475Y-78997124D01*
X173305865Y-78998329D01*
X173313548Y-79000000D01*
X173789884Y-79000000D01*
X173805123Y-78995525D01*
X173806328Y-78994135D01*
X173807999Y-78986452D01*
X173807999Y-78849209D01*
X173828001Y-78781088D01*
X173881657Y-78734595D01*
X173951931Y-78724491D01*
X174016511Y-78753985D01*
X174036322Y-78775683D01*
X174140575Y-78920767D01*
X174147883Y-78929233D01*
X174301082Y-79077692D01*
X174309779Y-79084735D01*
X174486844Y-79203719D01*
X174496642Y-79209105D01*
X174691990Y-79294857D01*
X174702582Y-79298422D01*
X174828384Y-79328624D01*
X174842470Y-79327919D01*
X174846000Y-79319040D01*
X174846000Y-77122115D01*
X174841525Y-77106876D01*
X174840135Y-77105671D01*
X174832452Y-77104000D01*
X173860115Y-77104000D01*
X173844876Y-77108475D01*
X173843671Y-77109865D01*
X173842000Y-77117548D01*
X173842000Y-78069431D01*
X173821998Y-78137552D01*
X173768342Y-78184045D01*
X173698068Y-78194149D01*
X173640435Y-78170257D01*
X173553648Y-78105214D01*
X173538054Y-78096676D01*
X173417606Y-78051522D01*
X173402351Y-78047895D01*
X173351486Y-78042369D01*
X173344672Y-78042000D01*
X173318115Y-78042000D01*
X173302876Y-78046475D01*
X173301671Y-78047865D01*
X173300000Y-78055548D01*
X173300000Y-78981885D01*
X173008500Y-78981885D01*
X173008500Y-78501866D01*
X173001745Y-78439684D01*
X172950615Y-78303295D01*
X172896359Y-78230901D01*
X172868645Y-78193922D01*
X172868642Y-78193919D01*
X172863261Y-78186739D01*
X172856081Y-78181358D01*
X172856078Y-78181355D01*
X172850436Y-78177127D01*
X172807921Y-78120269D01*
X172800000Y-78076300D01*
X172800000Y-78060116D01*
X172795525Y-78044877D01*
X172794135Y-78043672D01*
X172786452Y-78042001D01*
X172755331Y-78042001D01*
X172748510Y-78042371D01*
X172697651Y-78047895D01*
X172680236Y-78052035D01*
X172621942Y-78052034D01*
X172617716Y-78051029D01*
X172610316Y-78048255D01*
X172548134Y-78041500D01*
X171951866Y-78041500D01*
X171889684Y-78048255D01*
X171882285Y-78051029D01*
X171879146Y-78051775D01*
X171820854Y-78051775D01*
X171817715Y-78051029D01*
X171810316Y-78048255D01*
X171748134Y-78041500D01*
X171151866Y-78041500D01*
X171089684Y-78048255D01*
X171082285Y-78051029D01*
X171079146Y-78051775D01*
X171020854Y-78051775D01*
X171017715Y-78051029D01*
X171010316Y-78048255D01*
X170948134Y-78041500D01*
X170351866Y-78041500D01*
X170289684Y-78048255D01*
X170282285Y-78051029D01*
X170279146Y-78051775D01*
X170220854Y-78051775D01*
X170217715Y-78051029D01*
X170210316Y-78048255D01*
X170148134Y-78041500D01*
X169551866Y-78041500D01*
X169489684Y-78048255D01*
X169353295Y-78099385D01*
X169259565Y-78169632D01*
X169193059Y-78194480D01*
X169123676Y-78179427D01*
X169073446Y-78129253D01*
X169058000Y-78068806D01*
X169058000Y-77122115D01*
X169053525Y-77106876D01*
X169052135Y-77105671D01*
X169044452Y-77104000D01*
X168072115Y-77104000D01*
X168056876Y-77108475D01*
X168055671Y-77109865D01*
X168054000Y-77117548D01*
X168054000Y-79318411D01*
X168058105Y-79332393D01*
X168067728Y-79333886D01*
X168067973Y-79333834D01*
X168271883Y-79271102D01*
X168282229Y-79266881D01*
X168471814Y-79169029D01*
X168481245Y-79163043D01*
X168650501Y-79033168D01*
X168658724Y-79025607D01*
X168802312Y-78867806D01*
X168809067Y-78858906D01*
X168858763Y-78779684D01*
X168911906Y-78732606D01*
X168982065Y-78721734D01*
X169046965Y-78750518D01*
X169086000Y-78809820D01*
X169091500Y-78846640D01*
X169091500Y-79998134D01*
X169098255Y-80060316D01*
X169149385Y-80196705D01*
X169154770Y-80203890D01*
X169154771Y-80203892D01*
X169191326Y-80252667D01*
X169216174Y-80319174D01*
X169216500Y-80328232D01*
X169216500Y-83021233D01*
X169215973Y-83032416D01*
X169214298Y-83039909D01*
X169214547Y-83047835D01*
X169214547Y-83047836D01*
X169216438Y-83107986D01*
X169216500Y-83111945D01*
X169216500Y-83139856D01*
X169216997Y-83143790D01*
X169216997Y-83143791D01*
X169217005Y-83143856D01*
X169217938Y-83155693D01*
X169219327Y-83199889D01*
X169223829Y-83215385D01*
X169224978Y-83219339D01*
X169228987Y-83238700D01*
X169231526Y-83258797D01*
X169234445Y-83266168D01*
X169234445Y-83266170D01*
X169247804Y-83299912D01*
X169251649Y-83311142D01*
X169256168Y-83326697D01*
X169263982Y-83353593D01*
X169268015Y-83360412D01*
X169268017Y-83360417D01*
X169274293Y-83371028D01*
X169282988Y-83388776D01*
X169290448Y-83407617D01*
X169295110Y-83414033D01*
X169295110Y-83414034D01*
X169316436Y-83443387D01*
X169322952Y-83453307D01*
X169341228Y-83484209D01*
X169345458Y-83491362D01*
X169359779Y-83505683D01*
X169372619Y-83520716D01*
X169384528Y-83537107D01*
X169410541Y-83558627D01*
X169418605Y-83565298D01*
X169427384Y-83573288D01*
X172996343Y-87142247D01*
X173003887Y-87150537D01*
X173008000Y-87157018D01*
X173013777Y-87162443D01*
X173057667Y-87203658D01*
X173060509Y-87206413D01*
X173080231Y-87226135D01*
X173083355Y-87228558D01*
X173083359Y-87228562D01*
X173083424Y-87228612D01*
X173092445Y-87236317D01*
X173124679Y-87266586D01*
X173131627Y-87270405D01*
X173131629Y-87270407D01*
X173142432Y-87276346D01*
X173158959Y-87287202D01*
X173168698Y-87294757D01*
X173168700Y-87294758D01*
X173174960Y-87299614D01*
X173215540Y-87317174D01*
X173226188Y-87322391D01*
X173235933Y-87327748D01*
X173264940Y-87343695D01*
X173272616Y-87345666D01*
X173272619Y-87345667D01*
X173284562Y-87348733D01*
X173303267Y-87355137D01*
X173321855Y-87363181D01*
X173329678Y-87364420D01*
X173329688Y-87364423D01*
X173365524Y-87370099D01*
X173377144Y-87372505D01*
X173400277Y-87378444D01*
X173419970Y-87383500D01*
X173440224Y-87383500D01*
X173459934Y-87385051D01*
X173479943Y-87388220D01*
X173487835Y-87387474D01*
X173513467Y-87385051D01*
X173523962Y-87384059D01*
X173535819Y-87383500D01*
X175770473Y-87383500D01*
X175838594Y-87403502D01*
X175885087Y-87457158D01*
X175895191Y-87527432D01*
X175884668Y-87562749D01*
X175850308Y-87636436D01*
X175840716Y-87657007D01*
X175839294Y-87662315D01*
X175839293Y-87662317D01*
X175784608Y-87866403D01*
X175781457Y-87878163D01*
X175761502Y-88106250D01*
X175781457Y-88334337D01*
X175782881Y-88339650D01*
X175782881Y-88339652D01*
X175837584Y-88543803D01*
X175840716Y-88555493D01*
X175843039Y-88560474D01*
X175843039Y-88560475D01*
X175935151Y-88758012D01*
X175935154Y-88758017D01*
X175937477Y-88762999D01*
X176026755Y-88890500D01*
X176046171Y-88918229D01*
X176068859Y-88985503D01*
X176051574Y-89054363D01*
X175999805Y-89102948D01*
X175942958Y-89116500D01*
X167783344Y-89116500D01*
X167715223Y-89096498D01*
X167694249Y-89079595D01*
X167170405Y-88555751D01*
X167136379Y-88493439D01*
X167133500Y-88466656D01*
X167133500Y-87258116D01*
X167126745Y-87195934D01*
X167075615Y-87059545D01*
X166988261Y-86942989D01*
X166871705Y-86855635D01*
X166735316Y-86804505D01*
X166673134Y-86797750D01*
X164976866Y-86797750D01*
X164914684Y-86804505D01*
X164778295Y-86855635D01*
X164661739Y-86942989D01*
X164574385Y-87059545D01*
X164573010Y-87058514D01*
X164530224Y-87101206D01*
X164460834Y-87116221D01*
X164394398Y-87091379D01*
X164346705Y-87055635D01*
X164210316Y-87004505D01*
X164148134Y-86997750D01*
X162851866Y-86997750D01*
X162789684Y-87004505D01*
X162653295Y-87055635D01*
X162536739Y-87142989D01*
X162449385Y-87259545D01*
X162398255Y-87395934D01*
X162391500Y-87458116D01*
X162391500Y-88754384D01*
X162398255Y-88816566D01*
X162449385Y-88952955D01*
X162536739Y-89069511D01*
X162653295Y-89156865D01*
X162789684Y-89207995D01*
X162851866Y-89214750D01*
X164148134Y-89214750D01*
X164210316Y-89207995D01*
X164346705Y-89156865D01*
X164394398Y-89121121D01*
X164460901Y-89096274D01*
X164530284Y-89111326D01*
X164573012Y-89153984D01*
X164574385Y-89152955D01*
X164661739Y-89269511D01*
X164778295Y-89356865D01*
X164914684Y-89407995D01*
X164976866Y-89414750D01*
X166185406Y-89414750D01*
X166253527Y-89434752D01*
X166274501Y-89451655D01*
X166965093Y-90142247D01*
X166972637Y-90150537D01*
X166976750Y-90157018D01*
X166982527Y-90162443D01*
X167026417Y-90203658D01*
X167029259Y-90206413D01*
X167048981Y-90226135D01*
X167052105Y-90228558D01*
X167052109Y-90228562D01*
X167052174Y-90228612D01*
X167061195Y-90236317D01*
X167093429Y-90266586D01*
X167100377Y-90270405D01*
X167100379Y-90270407D01*
X167111182Y-90276346D01*
X167127709Y-90287202D01*
X167137448Y-90294757D01*
X167137450Y-90294758D01*
X167143710Y-90299614D01*
X167184290Y-90317174D01*
X167194938Y-90322391D01*
X167219726Y-90336018D01*
X167233690Y-90343695D01*
X167241366Y-90345666D01*
X167241369Y-90345667D01*
X167253312Y-90348733D01*
X167272017Y-90355137D01*
X167290605Y-90363181D01*
X167298428Y-90364420D01*
X167298438Y-90364423D01*
X167334274Y-90370099D01*
X167345894Y-90372505D01*
X167377709Y-90380673D01*
X167388720Y-90383500D01*
X167408974Y-90383500D01*
X167428684Y-90385051D01*
X167448693Y-90388220D01*
X167456585Y-90387474D01*
X167475330Y-90385702D01*
X167492712Y-90384059D01*
X167504569Y-90383500D01*
X183171233Y-90383500D01*
X183182416Y-90384027D01*
X183189909Y-90385702D01*
X183197835Y-90385453D01*
X183197836Y-90385453D01*
X183257986Y-90383562D01*
X183261945Y-90383500D01*
X183289856Y-90383500D01*
X183293791Y-90383003D01*
X183293856Y-90382995D01*
X183305693Y-90382062D01*
X183337951Y-90381048D01*
X183341970Y-90380922D01*
X183349889Y-90380673D01*
X183369343Y-90375021D01*
X183388700Y-90371013D01*
X183400930Y-90369468D01*
X183400931Y-90369468D01*
X183408797Y-90368474D01*
X183416168Y-90365555D01*
X183416170Y-90365555D01*
X183449912Y-90352196D01*
X183461142Y-90348351D01*
X183495983Y-90338229D01*
X183495984Y-90338229D01*
X183503593Y-90336018D01*
X183510412Y-90331985D01*
X183510417Y-90331983D01*
X183521028Y-90325707D01*
X183538776Y-90317012D01*
X183557617Y-90309552D01*
X183593387Y-90283564D01*
X183603307Y-90277048D01*
X183634535Y-90258580D01*
X183634538Y-90258578D01*
X183641362Y-90254542D01*
X183655683Y-90240221D01*
X183670717Y-90227380D01*
X183672431Y-90226135D01*
X183687107Y-90215472D01*
X183715298Y-90181395D01*
X183723288Y-90172616D01*
X184444249Y-89451655D01*
X184506561Y-89417629D01*
X184533344Y-89414750D01*
X185235406Y-89414750D01*
X185303527Y-89434752D01*
X185324501Y-89451655D01*
X191829595Y-95956749D01*
X191863621Y-96019061D01*
X191866500Y-96045844D01*
X191866500Y-96047476D01*
X191846498Y-96115597D01*
X191834142Y-96131779D01*
X191760960Y-96213056D01*
X191707376Y-96305866D01*
X191693833Y-96329324D01*
X191665473Y-96378444D01*
X191606458Y-96560072D01*
X191605768Y-96566633D01*
X191605768Y-96566635D01*
X191597334Y-96646878D01*
X191586496Y-96750000D01*
X191587186Y-96756565D01*
X191602779Y-96904920D01*
X191606458Y-96939928D01*
X191665473Y-97121556D01*
X191760960Y-97286944D01*
X191765378Y-97291851D01*
X191765379Y-97291852D01*
X191873814Y-97412281D01*
X191888747Y-97428866D01*
X192043248Y-97541118D01*
X192049276Y-97543802D01*
X192049278Y-97543803D01*
X192211681Y-97616109D01*
X192217712Y-97618794D01*
X192311112Y-97638647D01*
X192398056Y-97657128D01*
X192398061Y-97657128D01*
X192404513Y-97658500D01*
X192595487Y-97658500D01*
X192601939Y-97657128D01*
X192601944Y-97657128D01*
X192688888Y-97638647D01*
X192782288Y-97618794D01*
X192788319Y-97616109D01*
X192950722Y-97543803D01*
X192950724Y-97543802D01*
X192956752Y-97541118D01*
X193111253Y-97428866D01*
X193126186Y-97412281D01*
X193234621Y-97291852D01*
X193234622Y-97291851D01*
X193239040Y-97286944D01*
X193334527Y-97121556D01*
X193393542Y-96939928D01*
X193397222Y-96904920D01*
X193412814Y-96756565D01*
X193413504Y-96750000D01*
X193413618Y-96750012D01*
X193432816Y-96684629D01*
X193486472Y-96638136D01*
X193538814Y-96626750D01*
X193822095Y-96626749D01*
X193828614Y-96626412D01*
X193924206Y-96616493D01*
X193937600Y-96613601D01*
X194091784Y-96562162D01*
X194104962Y-96555989D01*
X194242807Y-96470687D01*
X194254208Y-96461651D01*
X194368738Y-96346922D01*
X194375794Y-96337988D01*
X194433712Y-96296927D01*
X194504635Y-96293697D01*
X194566046Y-96329324D01*
X194572846Y-96337157D01*
X194576522Y-96343098D01*
X194581704Y-96348271D01*
X194616097Y-96382604D01*
X194701697Y-96468055D01*
X194819117Y-96540434D01*
X194866609Y-96593205D01*
X194879000Y-96647693D01*
X194879000Y-99683733D01*
X194878473Y-99694916D01*
X194876798Y-99702409D01*
X194877047Y-99710335D01*
X194877047Y-99710336D01*
X194878938Y-99770486D01*
X194879000Y-99774445D01*
X194879000Y-99802356D01*
X194879497Y-99806290D01*
X194879497Y-99806291D01*
X194879505Y-99806356D01*
X194880438Y-99818193D01*
X194881827Y-99862389D01*
X194887478Y-99881839D01*
X194891487Y-99901200D01*
X194894026Y-99921297D01*
X194896945Y-99928668D01*
X194896945Y-99928670D01*
X194910304Y-99962412D01*
X194914149Y-99973642D01*
X194926482Y-100016093D01*
X194930515Y-100022912D01*
X194930517Y-100022917D01*
X194936793Y-100033528D01*
X194945488Y-100051276D01*
X194952948Y-100070117D01*
X194957610Y-100076533D01*
X194957610Y-100076534D01*
X194978936Y-100105887D01*
X194985452Y-100115807D01*
X195007958Y-100153862D01*
X195013564Y-100159468D01*
X195015058Y-100161394D01*
X195041006Y-100227479D01*
X195041500Y-100238622D01*
X195041500Y-100815980D01*
X195021498Y-100884101D01*
X194967842Y-100930594D01*
X194915500Y-100941980D01*
X191867768Y-100941980D01*
X191799647Y-100921978D01*
X191753154Y-100868322D01*
X191743050Y-100798048D01*
X191758649Y-100752980D01*
X191831223Y-100627279D01*
X191831224Y-100627278D01*
X191834527Y-100621556D01*
X191893542Y-100439928D01*
X191902189Y-100357662D01*
X191912814Y-100256565D01*
X191913504Y-100250000D01*
X191902822Y-100148365D01*
X191894232Y-100066635D01*
X191894232Y-100066633D01*
X191893542Y-100060072D01*
X191834527Y-99878444D01*
X191829216Y-99869244D01*
X191746998Y-99726840D01*
X191739040Y-99713056D01*
X191732708Y-99706023D01*
X191615675Y-99576045D01*
X191615674Y-99576044D01*
X191611253Y-99571134D01*
X191456752Y-99458882D01*
X191450724Y-99456198D01*
X191450722Y-99456197D01*
X191288319Y-99383891D01*
X191288318Y-99383891D01*
X191282288Y-99381206D01*
X191163163Y-99355885D01*
X191101944Y-99342872D01*
X191101939Y-99342872D01*
X191095487Y-99341500D01*
X190904513Y-99341500D01*
X190898061Y-99342872D01*
X190898056Y-99342872D01*
X190836837Y-99355885D01*
X190717712Y-99381206D01*
X190711682Y-99383891D01*
X190711681Y-99383891D01*
X190549278Y-99456197D01*
X190549276Y-99456198D01*
X190543248Y-99458882D01*
X190388747Y-99571134D01*
X190384326Y-99576044D01*
X190384325Y-99576045D01*
X190267293Y-99706023D01*
X190260960Y-99713056D01*
X190253002Y-99726840D01*
X190170785Y-99869244D01*
X190165473Y-99878444D01*
X190106458Y-100060072D01*
X190105768Y-100066633D01*
X190105768Y-100066635D01*
X190089093Y-100225292D01*
X190062080Y-100290949D01*
X190052878Y-100301217D01*
X187607567Y-102746528D01*
X187545255Y-102780554D01*
X187474440Y-102775489D01*
X187417604Y-102732942D01*
X187392793Y-102666422D01*
X187393564Y-102640878D01*
X187417100Y-102463303D01*
X187417100Y-102463298D01*
X187417800Y-102458018D01*
X187409146Y-102227482D01*
X187361772Y-102001700D01*
X187332610Y-101927856D01*
X187313893Y-101880462D01*
X187277033Y-101787128D01*
X187157353Y-101589901D01*
X187151110Y-101582707D01*
X187009653Y-101419691D01*
X187009651Y-101419689D01*
X187006153Y-101415658D01*
X186918830Y-101344057D01*
X186831885Y-101272766D01*
X186831879Y-101272762D01*
X186827757Y-101269382D01*
X186627265Y-101155256D01*
X186622249Y-101153435D01*
X186622244Y-101153433D01*
X186415425Y-101078361D01*
X186415421Y-101078360D01*
X186410410Y-101076541D01*
X186405161Y-101075592D01*
X186405158Y-101075591D01*
X186187477Y-101036228D01*
X186187470Y-101036227D01*
X186183393Y-101035490D01*
X186165656Y-101034654D01*
X186160708Y-101034420D01*
X186160701Y-101034420D01*
X186159220Y-101034350D01*
X185997075Y-101034350D01*
X185930119Y-101040031D01*
X185830438Y-101048489D01*
X185830434Y-101048490D01*
X185825127Y-101048940D01*
X185819972Y-101050278D01*
X185819966Y-101050279D01*
X185606997Y-101105555D01*
X185606993Y-101105556D01*
X185601828Y-101106897D01*
X185596962Y-101109089D01*
X185596959Y-101109090D01*
X185417505Y-101189928D01*
X185391485Y-101201649D01*
X185387065Y-101204625D01*
X185387061Y-101204627D01*
X185353763Y-101227045D01*
X185200115Y-101330488D01*
X185033188Y-101489728D01*
X185030000Y-101494013D01*
X184899508Y-101669401D01*
X184895479Y-101674816D01*
X184893064Y-101679566D01*
X184838377Y-101787128D01*
X184790923Y-101880462D01*
X184757750Y-101987296D01*
X184724095Y-102095680D01*
X184724094Y-102095686D01*
X184722511Y-102100783D01*
X184708598Y-102205758D01*
X184697576Y-102288922D01*
X184692200Y-102329482D01*
X184700854Y-102560018D01*
X184748228Y-102785800D01*
X184750186Y-102790759D01*
X184750187Y-102790761D01*
X184778945Y-102863580D01*
X184832967Y-103000372D01*
X184952647Y-103197599D01*
X184956144Y-103201629D01*
X185090543Y-103356510D01*
X185103847Y-103371842D01*
X185107978Y-103375229D01*
X185278115Y-103514734D01*
X185278121Y-103514738D01*
X185282243Y-103518118D01*
X185482735Y-103632244D01*
X185487751Y-103634065D01*
X185487756Y-103634067D01*
X185694575Y-103709139D01*
X185694579Y-103709140D01*
X185699590Y-103710959D01*
X185704839Y-103711908D01*
X185704842Y-103711909D01*
X185922523Y-103751272D01*
X185922530Y-103751273D01*
X185926607Y-103752010D01*
X185944344Y-103752846D01*
X185949292Y-103753080D01*
X185949299Y-103753080D01*
X185950780Y-103753150D01*
X186112925Y-103753150D01*
X186229540Y-103743255D01*
X186279559Y-103739011D01*
X186279560Y-103739011D01*
X186284873Y-103738560D01*
X186290037Y-103737220D01*
X186293919Y-103736556D01*
X186364436Y-103744793D01*
X186419305Y-103789847D01*
X186441107Y-103857413D01*
X186422918Y-103926040D01*
X186404246Y-103949849D01*
X186262329Y-104091766D01*
X186200017Y-104125792D01*
X186173234Y-104128671D01*
X183054932Y-104128671D01*
X182986811Y-104108669D01*
X182940318Y-104055013D01*
X182930214Y-103984739D01*
X182952996Y-103928610D01*
X182954863Y-103926040D01*
X183092024Y-103737254D01*
X183097405Y-103727467D01*
X183241813Y-103464789D01*
X183241814Y-103464786D01*
X183243716Y-103461327D01*
X183359630Y-103168563D01*
X183437936Y-102863580D01*
X183477400Y-102551188D01*
X183477400Y-102236312D01*
X183437936Y-101923920D01*
X183359630Y-101618937D01*
X183358012Y-101614849D01*
X183292991Y-101450626D01*
X183243716Y-101326173D01*
X183217773Y-101278983D01*
X183093933Y-101053718D01*
X183093931Y-101053715D01*
X183092024Y-101050246D01*
X182941147Y-100842581D01*
X182909273Y-100798710D01*
X182909272Y-100798708D01*
X182906945Y-100795506D01*
X182691398Y-100565972D01*
X182448782Y-100365263D01*
X182231670Y-100227479D01*
X182186271Y-100198668D01*
X182186270Y-100198668D01*
X182182924Y-100196544D01*
X182179345Y-100194860D01*
X182179338Y-100194856D01*
X181901606Y-100064166D01*
X181901602Y-100064164D01*
X181898016Y-100062477D01*
X181876713Y-100055555D01*
X181686755Y-99993834D01*
X181598552Y-99965175D01*
X181289254Y-99906173D01*
X181195700Y-99900287D01*
X181055642Y-99891475D01*
X181055626Y-99891474D01*
X181053647Y-99891350D01*
X180896353Y-99891350D01*
X180894374Y-99891474D01*
X180894358Y-99891475D01*
X180754300Y-99900287D01*
X180660746Y-99906173D01*
X180351448Y-99965175D01*
X180263245Y-99993834D01*
X180073288Y-100055555D01*
X180051984Y-100062477D01*
X180048398Y-100064164D01*
X180048394Y-100064166D01*
X179770662Y-100194856D01*
X179770655Y-100194860D01*
X179767076Y-100196544D01*
X179763730Y-100198668D01*
X179763729Y-100198668D01*
X179718330Y-100227479D01*
X179501218Y-100365263D01*
X179258602Y-100565972D01*
X179043055Y-100795506D01*
X179040728Y-100798708D01*
X179040727Y-100798710D01*
X179008853Y-100842581D01*
X178857976Y-101050246D01*
X178856069Y-101053715D01*
X178856067Y-101053718D01*
X178732227Y-101278983D01*
X178706284Y-101326173D01*
X178657009Y-101450626D01*
X178591989Y-101614849D01*
X178590370Y-101618937D01*
X178512064Y-101923920D01*
X178472600Y-102236312D01*
X178472600Y-102551188D01*
X178512064Y-102863580D01*
X178590370Y-103168563D01*
X178706284Y-103461327D01*
X178708186Y-103464786D01*
X178708187Y-103464789D01*
X178852596Y-103727467D01*
X178857976Y-103737254D01*
X178995137Y-103926040D01*
X178997004Y-103928610D01*
X179020863Y-103995478D01*
X179004782Y-104064629D01*
X178953868Y-104114110D01*
X178895068Y-104128671D01*
X164004932Y-104128671D01*
X163936811Y-104108669D01*
X163890318Y-104055013D01*
X163880214Y-103984739D01*
X163902996Y-103928610D01*
X163904863Y-103926040D01*
X164042024Y-103737254D01*
X164047405Y-103727467D01*
X164191813Y-103464789D01*
X164191814Y-103464786D01*
X164193716Y-103461327D01*
X164309630Y-103168563D01*
X164387936Y-102863580D01*
X164427400Y-102551188D01*
X164427400Y-102329482D01*
X165642200Y-102329482D01*
X165650854Y-102560018D01*
X165698228Y-102785800D01*
X165700186Y-102790759D01*
X165700187Y-102790761D01*
X165728945Y-102863580D01*
X165782967Y-103000372D01*
X165902647Y-103197599D01*
X165906144Y-103201629D01*
X166040543Y-103356510D01*
X166053847Y-103371842D01*
X166057978Y-103375229D01*
X166228115Y-103514734D01*
X166228121Y-103514738D01*
X166232243Y-103518118D01*
X166432735Y-103632244D01*
X166437751Y-103634065D01*
X166437756Y-103634067D01*
X166644575Y-103709139D01*
X166644579Y-103709140D01*
X166649590Y-103710959D01*
X166654839Y-103711908D01*
X166654842Y-103711909D01*
X166872523Y-103751272D01*
X166872530Y-103751273D01*
X166876607Y-103752010D01*
X166894344Y-103752846D01*
X166899292Y-103753080D01*
X166899299Y-103753080D01*
X166900780Y-103753150D01*
X167062925Y-103753150D01*
X167129881Y-103747469D01*
X167229562Y-103739011D01*
X167229566Y-103739010D01*
X167234873Y-103738560D01*
X167240028Y-103737222D01*
X167240034Y-103737221D01*
X167453003Y-103681945D01*
X167453007Y-103681944D01*
X167458172Y-103680603D01*
X167463038Y-103678411D01*
X167463041Y-103678410D01*
X167663649Y-103588043D01*
X167668515Y-103585851D01*
X167672935Y-103582875D01*
X167672939Y-103582873D01*
X167836256Y-103472920D01*
X167859885Y-103457012D01*
X168026812Y-103297772D01*
X168118941Y-103173946D01*
X168161337Y-103116964D01*
X168161339Y-103116961D01*
X168164521Y-103112684D01*
X168219305Y-103004933D01*
X168266658Y-102911796D01*
X168266658Y-102911795D01*
X168269077Y-102907038D01*
X168323136Y-102732942D01*
X168335905Y-102691820D01*
X168335906Y-102691814D01*
X168337489Y-102686717D01*
X168367800Y-102458018D01*
X168362975Y-102329482D01*
X174532200Y-102329482D01*
X174540854Y-102560018D01*
X174588228Y-102785800D01*
X174590186Y-102790759D01*
X174590187Y-102790761D01*
X174618945Y-102863580D01*
X174672967Y-103000372D01*
X174792647Y-103197599D01*
X174796144Y-103201629D01*
X174930543Y-103356510D01*
X174943847Y-103371842D01*
X174947978Y-103375229D01*
X175118115Y-103514734D01*
X175118121Y-103514738D01*
X175122243Y-103518118D01*
X175322735Y-103632244D01*
X175327751Y-103634065D01*
X175327756Y-103634067D01*
X175534575Y-103709139D01*
X175534579Y-103709140D01*
X175539590Y-103710959D01*
X175544839Y-103711908D01*
X175544842Y-103711909D01*
X175762523Y-103751272D01*
X175762530Y-103751273D01*
X175766607Y-103752010D01*
X175784344Y-103752846D01*
X175789292Y-103753080D01*
X175789299Y-103753080D01*
X175790780Y-103753150D01*
X175952925Y-103753150D01*
X176019881Y-103747469D01*
X176119562Y-103739011D01*
X176119566Y-103739010D01*
X176124873Y-103738560D01*
X176130028Y-103737222D01*
X176130034Y-103737221D01*
X176343003Y-103681945D01*
X176343007Y-103681944D01*
X176348172Y-103680603D01*
X176353038Y-103678411D01*
X176353041Y-103678410D01*
X176553649Y-103588043D01*
X176558515Y-103585851D01*
X176562935Y-103582875D01*
X176562939Y-103582873D01*
X176726256Y-103472920D01*
X176749885Y-103457012D01*
X176916812Y-103297772D01*
X177008941Y-103173946D01*
X177051337Y-103116964D01*
X177051339Y-103116961D01*
X177054521Y-103112684D01*
X177109305Y-103004933D01*
X177156658Y-102911796D01*
X177156658Y-102911795D01*
X177159077Y-102907038D01*
X177213136Y-102732942D01*
X177225905Y-102691820D01*
X177225906Y-102691814D01*
X177227489Y-102686717D01*
X177257800Y-102458018D01*
X177249146Y-102227482D01*
X177201772Y-102001700D01*
X177172610Y-101927856D01*
X177153893Y-101880462D01*
X177117033Y-101787128D01*
X177107471Y-101771370D01*
X177089231Y-101702757D01*
X177110982Y-101635174D01*
X177165818Y-101590080D01*
X177213540Y-101580015D01*
X177218279Y-101579953D01*
X177269231Y-101579286D01*
X177527203Y-101537272D01*
X177662345Y-101494013D01*
X177771686Y-101459013D01*
X177771688Y-101459012D01*
X177776131Y-101457590D01*
X177780316Y-101455526D01*
X177780319Y-101455525D01*
X178006354Y-101344057D01*
X178006357Y-101344055D01*
X178010547Y-101341989D01*
X178225301Y-101193008D01*
X178228704Y-101189807D01*
X178228710Y-101189802D01*
X178412274Y-101017123D01*
X178415676Y-101013923D01*
X178550751Y-100842581D01*
X178645631Y-100693650D01*
X179841955Y-98815797D01*
X179841959Y-98815791D01*
X179843218Y-98813814D01*
X179876386Y-98752086D01*
X179933219Y-98646313D01*
X179935436Y-98642187D01*
X180023757Y-98396192D01*
X180074749Y-98139843D01*
X180081179Y-98005987D01*
X180087065Y-97883446D01*
X180087065Y-97883441D01*
X180087289Y-97878775D01*
X180083352Y-97839676D01*
X181716335Y-97839676D01*
X181716349Y-97841994D01*
X181716349Y-97841999D01*
X181717437Y-98019871D01*
X181717526Y-98034506D01*
X181757738Y-98292764D01*
X181759133Y-98297228D01*
X181759134Y-98297234D01*
X181809143Y-98457304D01*
X181835680Y-98542243D01*
X181884103Y-98642187D01*
X181927060Y-98730850D01*
X181949642Y-98777460D01*
X182097120Y-98993249D01*
X182274874Y-99184868D01*
X182278518Y-99187782D01*
X182278521Y-99187785D01*
X182470731Y-99341500D01*
X182478998Y-99348111D01*
X182705008Y-99479387D01*
X182709354Y-99481112D01*
X182709358Y-99481114D01*
X182943593Y-99574090D01*
X182943599Y-99574092D01*
X182947940Y-99575815D01*
X182971627Y-99581349D01*
X183126958Y-99617639D01*
X183202457Y-99635278D01*
X183207109Y-99635656D01*
X183207113Y-99635657D01*
X183458305Y-99656087D01*
X183458308Y-99656087D01*
X183462968Y-99656466D01*
X183723748Y-99638916D01*
X183728308Y-99637918D01*
X183728312Y-99637917D01*
X183887457Y-99603072D01*
X183979071Y-99583013D01*
X184223324Y-99489986D01*
X184451146Y-99361876D01*
X184657529Y-99201499D01*
X184837940Y-99012380D01*
X184849474Y-98996000D01*
X184985730Y-98802486D01*
X184985731Y-98802484D01*
X184988416Y-98798671D01*
X185105650Y-98565067D01*
X185187069Y-98316702D01*
X185205813Y-98206467D01*
X185223112Y-98104724D01*
X185223642Y-98101607D01*
X185273665Y-97367824D01*
X185273241Y-97298441D01*
X185272503Y-97177666D01*
X185272503Y-97177660D01*
X185272474Y-97172994D01*
X185232262Y-96914736D01*
X185230867Y-96910272D01*
X185230866Y-96910266D01*
X185155716Y-96669725D01*
X185155715Y-96669724D01*
X185154320Y-96665257D01*
X185060243Y-96471082D01*
X185042400Y-96434254D01*
X185042398Y-96434251D01*
X185040358Y-96430040D01*
X184892880Y-96214251D01*
X184715126Y-96022632D01*
X184711482Y-96019718D01*
X184711479Y-96019715D01*
X184514656Y-95862312D01*
X184514654Y-95862311D01*
X184511002Y-95859390D01*
X184284992Y-95728113D01*
X184280646Y-95726388D01*
X184280642Y-95726386D01*
X184046407Y-95633410D01*
X184046401Y-95633408D01*
X184042060Y-95631685D01*
X183787543Y-95572222D01*
X183782891Y-95571844D01*
X183782887Y-95571843D01*
X183531695Y-95551413D01*
X183531692Y-95551413D01*
X183527032Y-95551034D01*
X183266252Y-95568584D01*
X183261692Y-95569582D01*
X183261688Y-95569583D01*
X183131970Y-95597985D01*
X183010929Y-95624487D01*
X182861271Y-95681487D01*
X182771044Y-95715851D01*
X182771040Y-95715853D01*
X182766676Y-95717515D01*
X182762600Y-95719807D01*
X182617877Y-95801188D01*
X182538854Y-95845624D01*
X182332471Y-96006001D01*
X182152060Y-96195120D01*
X182149372Y-96198938D01*
X182149370Y-96198940D01*
X182020049Y-96382604D01*
X182001584Y-96408829D01*
X181884350Y-96642433D01*
X181802931Y-96890798D01*
X181802147Y-96895406D01*
X181802147Y-96895408D01*
X181785110Y-96995610D01*
X181766358Y-97105893D01*
X181716335Y-97839676D01*
X180083352Y-97839676D01*
X180064971Y-97657128D01*
X180061572Y-97623374D01*
X180061571Y-97623370D01*
X180061103Y-97618719D01*
X179996765Y-97365391D01*
X179989078Y-97347058D01*
X179907429Y-97152346D01*
X179895691Y-97124354D01*
X179760099Y-96900906D01*
X179592968Y-96699954D01*
X179397971Y-96525911D01*
X179394063Y-96523349D01*
X179394058Y-96523345D01*
X179183299Y-96385167D01*
X179179390Y-96382604D01*
X179091429Y-96342053D01*
X178946271Y-96275133D01*
X178946264Y-96275130D01*
X178942029Y-96273178D01*
X178739859Y-96214251D01*
X178695588Y-96201347D01*
X178695586Y-96201347D01*
X178691100Y-96200039D01*
X178432117Y-96164793D01*
X178427443Y-96164854D01*
X178427440Y-96164854D01*
X178284520Y-96166725D01*
X178170769Y-96168214D01*
X177912797Y-96210228D01*
X177908339Y-96211655D01*
X177710033Y-96275133D01*
X177663869Y-96289910D01*
X177659684Y-96291974D01*
X177659681Y-96291975D01*
X177433646Y-96403443D01*
X177429453Y-96405511D01*
X177214699Y-96554492D01*
X177024324Y-96733578D01*
X176889249Y-96904920D01*
X176887559Y-96907573D01*
X176887556Y-96907577D01*
X175671886Y-98815797D01*
X175596782Y-98933686D01*
X175595670Y-98935756D01*
X175595668Y-98935759D01*
X175563300Y-98996000D01*
X175504564Y-99105313D01*
X175416243Y-99351308D01*
X175365251Y-99607657D01*
X175360828Y-99699749D01*
X175353173Y-99859114D01*
X175352711Y-99868726D01*
X175365309Y-99993834D01*
X175377591Y-100115807D01*
X175378897Y-100128781D01*
X175443235Y-100382109D01*
X175544309Y-100623146D01*
X175679901Y-100846595D01*
X175688733Y-100857214D01*
X175716913Y-100922376D01*
X175705390Y-100992431D01*
X175657821Y-101045136D01*
X175623512Y-101059741D01*
X175446997Y-101105555D01*
X175446993Y-101105556D01*
X175441828Y-101106897D01*
X175436962Y-101109089D01*
X175436959Y-101109090D01*
X175257505Y-101189928D01*
X175231485Y-101201649D01*
X175227065Y-101204625D01*
X175227061Y-101204627D01*
X175193763Y-101227045D01*
X175040115Y-101330488D01*
X174873188Y-101489728D01*
X174870000Y-101494013D01*
X174739508Y-101669401D01*
X174735479Y-101674816D01*
X174733064Y-101679566D01*
X174678377Y-101787128D01*
X174630923Y-101880462D01*
X174597750Y-101987296D01*
X174564095Y-102095680D01*
X174564094Y-102095686D01*
X174562511Y-102100783D01*
X174548598Y-102205758D01*
X174537576Y-102288922D01*
X174532200Y-102329482D01*
X168362975Y-102329482D01*
X168359146Y-102227482D01*
X168311772Y-102001700D01*
X168282610Y-101927856D01*
X168263893Y-101880462D01*
X168227033Y-101787128D01*
X168107353Y-101589901D01*
X168101110Y-101582707D01*
X167959653Y-101419691D01*
X167959651Y-101419689D01*
X167956153Y-101415658D01*
X167868830Y-101344057D01*
X167781885Y-101272766D01*
X167781879Y-101272762D01*
X167777757Y-101269382D01*
X167577265Y-101155256D01*
X167572249Y-101153435D01*
X167572244Y-101153433D01*
X167365425Y-101078361D01*
X167365421Y-101078360D01*
X167360410Y-101076541D01*
X167355161Y-101075592D01*
X167355158Y-101075591D01*
X167137477Y-101036228D01*
X167137470Y-101036227D01*
X167133393Y-101035490D01*
X167115656Y-101034654D01*
X167110708Y-101034420D01*
X167110701Y-101034420D01*
X167109220Y-101034350D01*
X166947075Y-101034350D01*
X166880119Y-101040031D01*
X166780438Y-101048489D01*
X166780434Y-101048490D01*
X166775127Y-101048940D01*
X166769972Y-101050278D01*
X166769966Y-101050279D01*
X166556997Y-101105555D01*
X166556993Y-101105556D01*
X166551828Y-101106897D01*
X166546962Y-101109089D01*
X166546959Y-101109090D01*
X166367505Y-101189928D01*
X166341485Y-101201649D01*
X166337065Y-101204625D01*
X166337061Y-101204627D01*
X166303763Y-101227045D01*
X166150115Y-101330488D01*
X165983188Y-101489728D01*
X165980000Y-101494013D01*
X165849508Y-101669401D01*
X165845479Y-101674816D01*
X165843064Y-101679566D01*
X165788377Y-101787128D01*
X165740923Y-101880462D01*
X165707750Y-101987296D01*
X165674095Y-102095680D01*
X165674094Y-102095686D01*
X165672511Y-102100783D01*
X165658598Y-102205758D01*
X165647576Y-102288922D01*
X165642200Y-102329482D01*
X164427400Y-102329482D01*
X164427400Y-102236312D01*
X164387936Y-101923920D01*
X164309630Y-101618937D01*
X164308012Y-101614849D01*
X164242991Y-101450626D01*
X164193716Y-101326173D01*
X164167773Y-101278983D01*
X164043933Y-101053718D01*
X164043931Y-101053715D01*
X164042024Y-101050246D01*
X163891147Y-100842581D01*
X163859273Y-100798710D01*
X163859272Y-100798708D01*
X163856945Y-100795506D01*
X163641398Y-100565972D01*
X163398782Y-100365263D01*
X163181670Y-100227479D01*
X163136271Y-100198668D01*
X163136270Y-100198668D01*
X163132924Y-100196544D01*
X163129345Y-100194860D01*
X163129338Y-100194856D01*
X162851606Y-100064166D01*
X162851602Y-100064164D01*
X162848016Y-100062477D01*
X162826713Y-100055555D01*
X162636755Y-99993834D01*
X162548552Y-99965175D01*
X162239254Y-99906173D01*
X162145700Y-99900287D01*
X162005642Y-99891475D01*
X162005626Y-99891474D01*
X162003647Y-99891350D01*
X161846353Y-99891350D01*
X161844374Y-99891474D01*
X161844358Y-99891475D01*
X161704300Y-99900287D01*
X161610746Y-99906173D01*
X161301448Y-99965175D01*
X161213245Y-99993834D01*
X161023288Y-100055555D01*
X161001984Y-100062477D01*
X160998398Y-100064164D01*
X160998394Y-100064166D01*
X160720662Y-100194856D01*
X160720655Y-100194860D01*
X160717076Y-100196544D01*
X160713730Y-100198668D01*
X160713729Y-100198668D01*
X160668330Y-100227479D01*
X160451218Y-100365263D01*
X160208602Y-100565972D01*
X159993055Y-100795506D01*
X159990728Y-100798708D01*
X159990727Y-100798710D01*
X159958853Y-100842581D01*
X159807976Y-101050246D01*
X159806069Y-101053715D01*
X159806067Y-101053718D01*
X159682227Y-101278983D01*
X159656284Y-101326173D01*
X159550060Y-101594464D01*
X159546652Y-101603071D01*
X159502977Y-101659045D01*
X159435974Y-101682521D01*
X159366916Y-101666045D01*
X159317727Y-101614849D01*
X159303500Y-101556687D01*
X159303500Y-101126872D01*
X159323502Y-101058751D01*
X159343168Y-101035097D01*
X159362268Y-101017130D01*
X159362275Y-101017122D01*
X159365676Y-101013923D01*
X159500751Y-100842581D01*
X159595631Y-100693650D01*
X160791955Y-98815797D01*
X160791959Y-98815791D01*
X160793218Y-98813814D01*
X160826386Y-98752086D01*
X160883219Y-98646313D01*
X160885436Y-98642187D01*
X160973757Y-98396192D01*
X161024749Y-98139843D01*
X161031179Y-98005987D01*
X161037065Y-97883446D01*
X161037065Y-97883441D01*
X161037289Y-97878775D01*
X161033352Y-97839676D01*
X162666335Y-97839676D01*
X162666349Y-97841994D01*
X162666349Y-97841999D01*
X162667437Y-98019871D01*
X162667526Y-98034506D01*
X162707738Y-98292764D01*
X162709133Y-98297228D01*
X162709134Y-98297234D01*
X162759143Y-98457304D01*
X162785680Y-98542243D01*
X162834103Y-98642187D01*
X162877060Y-98730850D01*
X162899642Y-98777460D01*
X163047120Y-98993249D01*
X163224874Y-99184868D01*
X163228518Y-99187782D01*
X163228521Y-99187785D01*
X163420731Y-99341500D01*
X163428998Y-99348111D01*
X163655008Y-99479387D01*
X163659354Y-99481112D01*
X163659358Y-99481114D01*
X163893593Y-99574090D01*
X163893599Y-99574092D01*
X163897940Y-99575815D01*
X163921627Y-99581349D01*
X164076958Y-99617639D01*
X164152457Y-99635278D01*
X164157109Y-99635656D01*
X164157113Y-99635657D01*
X164408305Y-99656087D01*
X164408308Y-99656087D01*
X164412968Y-99656466D01*
X164673748Y-99638916D01*
X164678308Y-99637918D01*
X164678312Y-99637917D01*
X164837457Y-99603072D01*
X164929071Y-99583013D01*
X165173324Y-99489986D01*
X165401146Y-99361876D01*
X165607529Y-99201499D01*
X165787940Y-99012380D01*
X165799474Y-98996000D01*
X165935730Y-98802486D01*
X165935731Y-98802484D01*
X165938416Y-98798671D01*
X166055650Y-98565067D01*
X166137069Y-98316702D01*
X166155813Y-98206467D01*
X166173112Y-98104724D01*
X166173642Y-98101607D01*
X166223665Y-97367824D01*
X166223241Y-97298441D01*
X166222503Y-97177666D01*
X166222503Y-97177660D01*
X166222474Y-97172994D01*
X166182262Y-96914736D01*
X166180867Y-96910272D01*
X166180866Y-96910266D01*
X166105716Y-96669725D01*
X166105715Y-96669724D01*
X166104320Y-96665257D01*
X166010243Y-96471082D01*
X165992400Y-96434254D01*
X165992398Y-96434251D01*
X165990358Y-96430040D01*
X165842880Y-96214251D01*
X165665126Y-96022632D01*
X165661482Y-96019718D01*
X165661479Y-96019715D01*
X165464656Y-95862312D01*
X165464654Y-95862311D01*
X165461002Y-95859390D01*
X165234992Y-95728113D01*
X165230646Y-95726388D01*
X165230642Y-95726386D01*
X164996407Y-95633410D01*
X164996401Y-95633408D01*
X164992060Y-95631685D01*
X164737543Y-95572222D01*
X164732891Y-95571844D01*
X164732887Y-95571843D01*
X164481695Y-95551413D01*
X164481692Y-95551413D01*
X164477032Y-95551034D01*
X164216252Y-95568584D01*
X164211692Y-95569582D01*
X164211688Y-95569583D01*
X164081970Y-95597985D01*
X163960929Y-95624487D01*
X163811271Y-95681487D01*
X163721044Y-95715851D01*
X163721040Y-95715853D01*
X163716676Y-95717515D01*
X163712600Y-95719807D01*
X163567877Y-95801188D01*
X163488854Y-95845624D01*
X163282471Y-96006001D01*
X163102060Y-96195120D01*
X163099372Y-96198938D01*
X163099370Y-96198940D01*
X162970049Y-96382604D01*
X162951584Y-96408829D01*
X162834350Y-96642433D01*
X162752931Y-96890798D01*
X162752147Y-96895406D01*
X162752147Y-96895408D01*
X162735110Y-96995610D01*
X162716358Y-97105893D01*
X162666335Y-97839676D01*
X161033352Y-97839676D01*
X161014971Y-97657128D01*
X161011572Y-97623374D01*
X161011571Y-97623370D01*
X161011103Y-97618719D01*
X160946765Y-97365391D01*
X160939078Y-97347058D01*
X160857429Y-97152346D01*
X160845691Y-97124354D01*
X160710099Y-96900906D01*
X160542968Y-96699954D01*
X160347971Y-96525911D01*
X160344063Y-96523349D01*
X160344058Y-96523345D01*
X160133299Y-96385167D01*
X160129390Y-96382604D01*
X160041429Y-96342053D01*
X159896271Y-96275133D01*
X159896264Y-96275130D01*
X159892029Y-96273178D01*
X159689859Y-96214251D01*
X159645588Y-96201347D01*
X159645586Y-96201347D01*
X159641100Y-96200039D01*
X159382117Y-96164793D01*
X159377443Y-96164854D01*
X159377440Y-96164854D01*
X159234520Y-96166725D01*
X159120769Y-96168214D01*
X158862797Y-96210228D01*
X158858339Y-96211655D01*
X158660033Y-96275133D01*
X158613869Y-96289910D01*
X158609684Y-96291974D01*
X158609681Y-96291975D01*
X158383646Y-96403443D01*
X158379453Y-96405511D01*
X158164699Y-96554492D01*
X157974324Y-96733578D01*
X157839249Y-96904920D01*
X157837559Y-96907573D01*
X157837556Y-96907577D01*
X156621886Y-98815797D01*
X156546782Y-98933686D01*
X156545670Y-98935756D01*
X156545668Y-98935759D01*
X156513300Y-98996000D01*
X156454564Y-99105313D01*
X156366243Y-99351308D01*
X156315251Y-99607657D01*
X156310828Y-99699749D01*
X156303173Y-99859114D01*
X156302711Y-99868726D01*
X156315309Y-99993834D01*
X156327591Y-100115807D01*
X156328897Y-100128781D01*
X156393235Y-100382109D01*
X156494309Y-100623146D01*
X156629901Y-100846595D01*
X156638733Y-100857214D01*
X156666913Y-100922376D01*
X156655390Y-100992431D01*
X156607821Y-101045136D01*
X156573512Y-101059741D01*
X156396997Y-101105555D01*
X156396993Y-101105556D01*
X156391828Y-101106897D01*
X156386962Y-101109089D01*
X156386959Y-101109090D01*
X156207505Y-101189928D01*
X156181485Y-101201649D01*
X156177065Y-101204625D01*
X156177061Y-101204627D01*
X156143763Y-101227045D01*
X155990115Y-101330488D01*
X155823188Y-101489728D01*
X155820000Y-101494013D01*
X155689508Y-101669401D01*
X155685479Y-101674816D01*
X155683064Y-101679566D01*
X155628377Y-101787128D01*
X155580923Y-101880462D01*
X155547750Y-101987296D01*
X155514095Y-102095680D01*
X155514094Y-102095686D01*
X155512511Y-102100783D01*
X155498598Y-102205758D01*
X155487576Y-102288922D01*
X155482200Y-102329482D01*
X148145500Y-102329482D01*
X148145500Y-88106250D01*
X156711502Y-88106250D01*
X156731457Y-88334337D01*
X156732881Y-88339650D01*
X156732881Y-88339652D01*
X156787584Y-88543803D01*
X156790716Y-88555493D01*
X156793039Y-88560474D01*
X156793039Y-88560475D01*
X156885151Y-88758012D01*
X156885154Y-88758017D01*
X156887477Y-88762999D01*
X156935085Y-88830990D01*
X157014599Y-88944547D01*
X157018802Y-88950550D01*
X157180700Y-89112448D01*
X157185208Y-89115605D01*
X157185211Y-89115607D01*
X157221408Y-89140952D01*
X157368251Y-89243773D01*
X157373233Y-89246096D01*
X157373238Y-89246099D01*
X157570775Y-89338211D01*
X157575757Y-89340534D01*
X157581065Y-89341956D01*
X157581067Y-89341957D01*
X157791598Y-89398369D01*
X157791600Y-89398369D01*
X157796913Y-89399793D01*
X158025000Y-89419748D01*
X158253087Y-89399793D01*
X158258400Y-89398369D01*
X158258402Y-89398369D01*
X158468933Y-89341957D01*
X158468935Y-89341956D01*
X158474243Y-89340534D01*
X158479225Y-89338211D01*
X158676762Y-89246099D01*
X158676767Y-89246096D01*
X158681749Y-89243773D01*
X158828592Y-89140952D01*
X158864789Y-89115607D01*
X158864792Y-89115605D01*
X158869300Y-89112448D01*
X159031198Y-88950550D01*
X159053655Y-88918479D01*
X159109110Y-88874151D01*
X159156867Y-88864750D01*
X159178991Y-88864750D01*
X159247112Y-88884752D01*
X159293605Y-88938408D01*
X159295903Y-88943944D01*
X159296232Y-88944546D01*
X159299385Y-88952955D01*
X159386739Y-89069511D01*
X159503295Y-89156865D01*
X159639684Y-89207995D01*
X159701866Y-89214750D01*
X160998134Y-89214750D01*
X161060316Y-89207995D01*
X161196705Y-89156865D01*
X161313261Y-89069511D01*
X161400615Y-88952955D01*
X161451745Y-88816566D01*
X161458500Y-88754384D01*
X161458500Y-87458116D01*
X161451745Y-87395934D01*
X161400615Y-87259545D01*
X161313261Y-87142989D01*
X161196705Y-87055635D01*
X161060316Y-87004505D01*
X160998134Y-86997750D01*
X159701866Y-86997750D01*
X159639684Y-87004505D01*
X159503295Y-87055635D01*
X159386739Y-87142989D01*
X159299385Y-87259545D01*
X159296233Y-87267953D01*
X159291923Y-87275825D01*
X159290259Y-87274914D01*
X159254337Y-87322740D01*
X159187776Y-87347443D01*
X159178991Y-87347750D01*
X159156867Y-87347750D01*
X159088746Y-87327748D01*
X159053655Y-87294022D01*
X159031198Y-87261950D01*
X158869300Y-87100052D01*
X158864792Y-87096895D01*
X158864789Y-87096893D01*
X158752486Y-87018258D01*
X158681749Y-86968727D01*
X158676767Y-86966404D01*
X158676762Y-86966401D01*
X158479225Y-86874289D01*
X158479224Y-86874289D01*
X158474243Y-86871966D01*
X158468935Y-86870544D01*
X158468933Y-86870543D01*
X158258402Y-86814131D01*
X158258400Y-86814131D01*
X158253087Y-86812707D01*
X158025000Y-86792752D01*
X157796913Y-86812707D01*
X157791600Y-86814131D01*
X157791598Y-86814131D01*
X157581067Y-86870543D01*
X157581065Y-86870544D01*
X157575757Y-86871966D01*
X157570776Y-86874289D01*
X157570775Y-86874289D01*
X157373238Y-86966401D01*
X157373233Y-86966404D01*
X157368251Y-86968727D01*
X157297514Y-87018258D01*
X157185211Y-87096893D01*
X157185208Y-87096895D01*
X157180700Y-87100052D01*
X157018802Y-87261950D01*
X157015645Y-87266458D01*
X157015643Y-87266461D01*
X156978483Y-87319531D01*
X156887477Y-87449501D01*
X156885154Y-87454483D01*
X156885151Y-87454488D01*
X156800308Y-87636436D01*
X156790716Y-87657007D01*
X156789294Y-87662315D01*
X156789293Y-87662317D01*
X156734608Y-87866403D01*
X156731457Y-87878163D01*
X156711502Y-88106250D01*
X148145500Y-88106250D01*
X148145500Y-83279482D01*
X155482200Y-83279482D01*
X155482400Y-83284812D01*
X155482400Y-83284813D01*
X155485957Y-83379563D01*
X155490854Y-83510018D01*
X155538228Y-83735800D01*
X155540186Y-83740759D01*
X155540187Y-83740761D01*
X155568945Y-83813580D01*
X155622967Y-83950372D01*
X155693717Y-84066964D01*
X155724545Y-84117767D01*
X155742647Y-84147599D01*
X155746144Y-84151629D01*
X155875817Y-84301064D01*
X155893847Y-84321842D01*
X155897978Y-84325229D01*
X156068115Y-84464734D01*
X156068121Y-84464738D01*
X156072243Y-84468118D01*
X156272735Y-84582244D01*
X156277751Y-84584065D01*
X156277756Y-84584067D01*
X156484575Y-84659139D01*
X156484579Y-84659140D01*
X156489590Y-84660959D01*
X156494839Y-84661908D01*
X156494842Y-84661909D01*
X156712523Y-84701272D01*
X156712530Y-84701273D01*
X156716607Y-84702010D01*
X156734344Y-84702846D01*
X156739292Y-84703080D01*
X156739299Y-84703080D01*
X156740780Y-84703150D01*
X156902925Y-84703150D01*
X156969881Y-84697469D01*
X157069562Y-84689011D01*
X157069566Y-84689010D01*
X157074873Y-84688560D01*
X157080028Y-84687222D01*
X157080034Y-84687221D01*
X157293003Y-84631945D01*
X157293007Y-84631944D01*
X157298172Y-84630603D01*
X157303038Y-84628411D01*
X157303041Y-84628410D01*
X157503649Y-84538043D01*
X157508515Y-84535851D01*
X157512935Y-84532875D01*
X157512939Y-84532873D01*
X157617324Y-84462596D01*
X157699885Y-84407012D01*
X157866812Y-84247772D01*
X157959057Y-84123790D01*
X158001337Y-84066964D01*
X158001339Y-84066961D01*
X158004521Y-84062684D01*
X158059305Y-83954933D01*
X158106658Y-83861796D01*
X158106658Y-83861795D01*
X158109077Y-83857038D01*
X158149880Y-83725633D01*
X158175905Y-83641820D01*
X158175906Y-83641814D01*
X158177489Y-83636717D01*
X158195452Y-83501188D01*
X159422600Y-83501188D01*
X159462064Y-83813580D01*
X159540370Y-84118563D01*
X159541823Y-84122232D01*
X159541823Y-84122233D01*
X159542999Y-84125204D01*
X159656284Y-84411327D01*
X159658186Y-84414786D01*
X159658187Y-84414789D01*
X159792968Y-84659954D01*
X159807976Y-84687254D01*
X159993055Y-84941994D01*
X160208602Y-85171528D01*
X160451218Y-85372237D01*
X160717076Y-85540956D01*
X160720655Y-85542640D01*
X160720662Y-85542644D01*
X160998394Y-85673334D01*
X160998398Y-85673336D01*
X161001984Y-85675023D01*
X161301448Y-85772325D01*
X161610746Y-85831327D01*
X161698755Y-85836864D01*
X161844358Y-85846025D01*
X161844374Y-85846026D01*
X161846353Y-85846150D01*
X162003647Y-85846150D01*
X162005626Y-85846026D01*
X162005642Y-85846025D01*
X162151245Y-85836864D01*
X162239254Y-85831327D01*
X162548552Y-85772325D01*
X162848016Y-85675023D01*
X162851602Y-85673336D01*
X162851606Y-85673334D01*
X163129338Y-85542644D01*
X163129345Y-85542640D01*
X163132924Y-85540956D01*
X163398782Y-85372237D01*
X163641398Y-85171528D01*
X163856945Y-84941994D01*
X164042024Y-84687254D01*
X164057033Y-84659954D01*
X164191813Y-84414789D01*
X164191814Y-84414786D01*
X164193716Y-84411327D01*
X164307001Y-84125204D01*
X164308177Y-84122233D01*
X164308177Y-84122232D01*
X164309630Y-84118563D01*
X164387936Y-83813580D01*
X164427400Y-83501188D01*
X164427400Y-83279482D01*
X165642200Y-83279482D01*
X165642400Y-83284812D01*
X165642400Y-83284813D01*
X165645957Y-83379563D01*
X165650854Y-83510018D01*
X165698228Y-83735800D01*
X165700186Y-83740759D01*
X165700187Y-83740761D01*
X165728945Y-83813580D01*
X165782967Y-83950372D01*
X165853717Y-84066964D01*
X165884545Y-84117767D01*
X165902647Y-84147599D01*
X165906144Y-84151629D01*
X166035817Y-84301064D01*
X166053847Y-84321842D01*
X166057978Y-84325229D01*
X166228115Y-84464734D01*
X166228121Y-84464738D01*
X166232243Y-84468118D01*
X166432735Y-84582244D01*
X166437751Y-84584065D01*
X166437756Y-84584067D01*
X166644575Y-84659139D01*
X166644579Y-84659140D01*
X166649590Y-84660959D01*
X166654839Y-84661908D01*
X166654842Y-84661909D01*
X166872523Y-84701272D01*
X166872530Y-84701273D01*
X166876607Y-84702010D01*
X166894344Y-84702846D01*
X166899292Y-84703080D01*
X166899299Y-84703080D01*
X166900780Y-84703150D01*
X167062925Y-84703150D01*
X167129881Y-84697469D01*
X167229562Y-84689011D01*
X167229566Y-84689010D01*
X167234873Y-84688560D01*
X167240028Y-84687222D01*
X167240034Y-84687221D01*
X167453003Y-84631945D01*
X167453007Y-84631944D01*
X167458172Y-84630603D01*
X167463038Y-84628411D01*
X167463041Y-84628410D01*
X167663649Y-84538043D01*
X167668515Y-84535851D01*
X167672935Y-84532875D01*
X167672939Y-84532873D01*
X167777324Y-84462596D01*
X167859885Y-84407012D01*
X168026812Y-84247772D01*
X168119057Y-84123790D01*
X168161337Y-84066964D01*
X168161339Y-84066961D01*
X168164521Y-84062684D01*
X168219305Y-83954933D01*
X168266658Y-83861796D01*
X168266658Y-83861795D01*
X168269077Y-83857038D01*
X168309880Y-83725633D01*
X168335905Y-83641820D01*
X168335906Y-83641814D01*
X168337489Y-83636717D01*
X168358623Y-83477262D01*
X168367100Y-83413303D01*
X168367100Y-83413298D01*
X168367800Y-83408018D01*
X168366412Y-83371028D01*
X168359346Y-83182813D01*
X168359146Y-83177482D01*
X168311772Y-82951700D01*
X168282610Y-82877856D01*
X168262558Y-82827083D01*
X168227033Y-82737128D01*
X168107353Y-82539901D01*
X168080157Y-82508560D01*
X167959653Y-82369691D01*
X167959651Y-82369689D01*
X167956153Y-82365658D01*
X167868830Y-82294057D01*
X167781885Y-82222766D01*
X167781879Y-82222762D01*
X167777757Y-82219382D01*
X167577265Y-82105256D01*
X167572249Y-82103435D01*
X167572244Y-82103433D01*
X167365425Y-82028361D01*
X167365421Y-82028360D01*
X167360410Y-82026541D01*
X167355161Y-82025592D01*
X167355158Y-82025591D01*
X167137477Y-81986228D01*
X167137470Y-81986227D01*
X167133393Y-81985490D01*
X167115656Y-81984654D01*
X167110708Y-81984420D01*
X167110701Y-81984420D01*
X167109220Y-81984350D01*
X166947075Y-81984350D01*
X166880119Y-81990031D01*
X166780438Y-81998489D01*
X166780434Y-81998490D01*
X166775127Y-81998940D01*
X166769972Y-82000278D01*
X166769966Y-82000279D01*
X166556997Y-82055555D01*
X166556993Y-82055556D01*
X166551828Y-82056897D01*
X166546962Y-82059089D01*
X166546959Y-82059090D01*
X166360667Y-82143008D01*
X166341485Y-82151649D01*
X166337065Y-82154625D01*
X166337061Y-82154627D01*
X166244800Y-82216742D01*
X166150115Y-82280488D01*
X165983188Y-82439728D01*
X165980000Y-82444013D01*
X165849468Y-82619455D01*
X165845479Y-82624816D01*
X165843064Y-82629566D01*
X165787894Y-82738078D01*
X165740923Y-82830462D01*
X165730361Y-82864478D01*
X165674095Y-83045680D01*
X165674094Y-83045686D01*
X165672511Y-83050783D01*
X165667475Y-83088782D01*
X165643723Y-83267994D01*
X165642200Y-83279482D01*
X164427400Y-83279482D01*
X164427400Y-83186312D01*
X164387936Y-82873920D01*
X164309630Y-82568937D01*
X164295518Y-82533293D01*
X164248939Y-82415650D01*
X164193716Y-82276173D01*
X164188872Y-82267362D01*
X164043933Y-82003718D01*
X164043931Y-82003715D01*
X164042024Y-82000246D01*
X163889288Y-81790022D01*
X163859273Y-81748710D01*
X163859272Y-81748708D01*
X163856945Y-81745506D01*
X163641398Y-81515972D01*
X163398782Y-81315263D01*
X163132924Y-81146544D01*
X163129345Y-81144860D01*
X163129338Y-81144856D01*
X162851606Y-81014166D01*
X162851602Y-81014164D01*
X162848016Y-81012477D01*
X162548552Y-80915175D01*
X162239254Y-80856173D01*
X162145700Y-80850287D01*
X162005642Y-80841475D01*
X162005626Y-80841474D01*
X162003647Y-80841350D01*
X161846353Y-80841350D01*
X161844374Y-80841474D01*
X161844358Y-80841475D01*
X161704300Y-80850287D01*
X161610746Y-80856173D01*
X161301448Y-80915175D01*
X161001984Y-81012477D01*
X160998398Y-81014164D01*
X160998394Y-81014166D01*
X160720662Y-81144856D01*
X160720655Y-81144860D01*
X160717076Y-81146544D01*
X160451218Y-81315263D01*
X160208602Y-81515972D01*
X159993055Y-81745506D01*
X159990728Y-81748708D01*
X159990727Y-81748710D01*
X159960712Y-81790022D01*
X159807976Y-82000246D01*
X159806069Y-82003715D01*
X159806067Y-82003718D01*
X159661128Y-82267362D01*
X159656284Y-82276173D01*
X159601061Y-82415650D01*
X159554483Y-82533293D01*
X159540370Y-82568937D01*
X159462064Y-82873920D01*
X159422600Y-83186312D01*
X159422600Y-83501188D01*
X158195452Y-83501188D01*
X158198623Y-83477262D01*
X158207100Y-83413303D01*
X158207100Y-83413298D01*
X158207800Y-83408018D01*
X158206412Y-83371028D01*
X158199346Y-83182813D01*
X158199146Y-83177482D01*
X158151772Y-82951700D01*
X158122610Y-82877856D01*
X158102558Y-82827083D01*
X158067033Y-82737128D01*
X158057471Y-82721370D01*
X158039231Y-82652757D01*
X158060982Y-82585174D01*
X158115818Y-82540080D01*
X158163540Y-82530015D01*
X158168279Y-82529953D01*
X158219231Y-82529286D01*
X158477203Y-82487272D01*
X158506200Y-82477990D01*
X158721686Y-82409013D01*
X158721688Y-82409012D01*
X158726131Y-82407590D01*
X158730316Y-82405526D01*
X158730319Y-82405525D01*
X158956354Y-82294057D01*
X158956357Y-82294055D01*
X158960547Y-82291989D01*
X158996047Y-82267362D01*
X159118424Y-82182465D01*
X159175301Y-82143008D01*
X159178704Y-82139807D01*
X159178710Y-82139802D01*
X159362274Y-81967123D01*
X159365676Y-81963923D01*
X159500751Y-81792581D01*
X159638005Y-81577136D01*
X160791955Y-79765797D01*
X160791959Y-79765791D01*
X160793218Y-79763814D01*
X160885436Y-79592187D01*
X160973757Y-79346192D01*
X161024749Y-79089843D01*
X161031360Y-78952203D01*
X161037065Y-78833446D01*
X161037065Y-78833441D01*
X161037289Y-78828775D01*
X161033352Y-78789676D01*
X162666335Y-78789676D01*
X162666349Y-78791994D01*
X162666349Y-78791999D01*
X162667436Y-78969724D01*
X162667526Y-78984506D01*
X162707738Y-79242764D01*
X162709133Y-79247228D01*
X162709134Y-79247234D01*
X162751551Y-79383002D01*
X162785680Y-79492243D01*
X162899642Y-79727460D01*
X163047120Y-79943249D01*
X163224874Y-80134868D01*
X163228518Y-80137782D01*
X163228521Y-80137785D01*
X163372173Y-80252667D01*
X163428998Y-80298111D01*
X163655008Y-80429387D01*
X163659354Y-80431112D01*
X163659358Y-80431114D01*
X163893593Y-80524090D01*
X163893599Y-80524092D01*
X163897940Y-80525815D01*
X163902490Y-80526878D01*
X164011440Y-80552332D01*
X164152457Y-80585278D01*
X164157109Y-80585656D01*
X164157113Y-80585657D01*
X164408305Y-80606087D01*
X164408308Y-80606087D01*
X164412968Y-80606466D01*
X164673748Y-80588916D01*
X164678308Y-80587918D01*
X164678312Y-80587917D01*
X164872364Y-80545429D01*
X164929071Y-80533013D01*
X165173324Y-80439986D01*
X165388168Y-80319174D01*
X165397072Y-80314167D01*
X165397073Y-80314166D01*
X165401146Y-80311876D01*
X165607529Y-80151499D01*
X165787940Y-79962380D01*
X165801411Y-79943249D01*
X165935730Y-79752486D01*
X165935731Y-79752484D01*
X165938416Y-79748671D01*
X166055650Y-79515067D01*
X166137069Y-79266702D01*
X166144929Y-79220479D01*
X166173112Y-79054724D01*
X166173642Y-79051607D01*
X166223665Y-78317824D01*
X166223624Y-78311091D01*
X166222665Y-78154175D01*
X166542000Y-78154175D01*
X166542249Y-78159770D01*
X166556378Y-78318078D01*
X166558360Y-78329092D01*
X166614651Y-78534860D01*
X166618549Y-78545341D01*
X166710397Y-78737903D01*
X166716082Y-78747516D01*
X166840575Y-78920767D01*
X166847883Y-78929233D01*
X167001082Y-79077692D01*
X167009779Y-79084735D01*
X167186844Y-79203719D01*
X167196642Y-79209105D01*
X167391990Y-79294857D01*
X167402582Y-79298422D01*
X167528384Y-79328624D01*
X167542470Y-79327919D01*
X167546000Y-79319040D01*
X167546000Y-77122115D01*
X167541525Y-77106876D01*
X167540135Y-77105671D01*
X167532452Y-77104000D01*
X166560115Y-77104000D01*
X166544876Y-77108475D01*
X166543671Y-77109865D01*
X166542000Y-77117548D01*
X166542000Y-78154175D01*
X166222665Y-78154175D01*
X166222503Y-78127666D01*
X166222503Y-78127660D01*
X166222474Y-78122994D01*
X166182262Y-77864736D01*
X166180867Y-77860272D01*
X166180866Y-77860266D01*
X166105716Y-77619725D01*
X166105715Y-77619724D01*
X166104320Y-77615257D01*
X165990358Y-77380040D01*
X165842880Y-77164251D01*
X165665126Y-76972632D01*
X165661482Y-76969718D01*
X165661479Y-76969715D01*
X165464656Y-76812312D01*
X165464654Y-76812311D01*
X165461002Y-76809390D01*
X165234992Y-76678113D01*
X165230646Y-76676388D01*
X165230642Y-76676386D01*
X164996407Y-76583410D01*
X164996401Y-76583408D01*
X164992060Y-76581685D01*
X164737543Y-76522222D01*
X164732891Y-76521844D01*
X164732887Y-76521843D01*
X164481695Y-76501413D01*
X164481692Y-76501413D01*
X164477032Y-76501034D01*
X164216252Y-76518584D01*
X164211692Y-76519582D01*
X164211688Y-76519583D01*
X164081970Y-76547985D01*
X163960929Y-76574487D01*
X163810196Y-76631896D01*
X163721044Y-76665851D01*
X163721040Y-76665853D01*
X163716676Y-76667515D01*
X163488854Y-76795624D01*
X163282471Y-76956001D01*
X163102060Y-77145120D01*
X163099372Y-77148938D01*
X163099370Y-77148940D01*
X162970049Y-77332604D01*
X162951584Y-77358829D01*
X162834350Y-77592433D01*
X162752931Y-77840798D01*
X162752147Y-77845406D01*
X162752147Y-77845408D01*
X162751212Y-77850906D01*
X162716358Y-78055893D01*
X162666335Y-78789676D01*
X161033352Y-78789676D01*
X161017603Y-78633268D01*
X161011572Y-78573374D01*
X161011571Y-78573370D01*
X161011103Y-78568719D01*
X160946765Y-78315391D01*
X160938680Y-78296109D01*
X160879162Y-78154175D01*
X160845691Y-78074354D01*
X160710099Y-77850906D01*
X160542968Y-77649954D01*
X160347971Y-77475911D01*
X160344063Y-77473349D01*
X160344058Y-77473345D01*
X160161175Y-77353443D01*
X160129390Y-77332604D01*
X160001506Y-77273648D01*
X159896271Y-77225133D01*
X159896264Y-77225130D01*
X159892029Y-77223178D01*
X159680953Y-77161655D01*
X159645588Y-77151347D01*
X159645586Y-77151347D01*
X159641100Y-77150039D01*
X159382117Y-77114793D01*
X159377443Y-77114854D01*
X159377440Y-77114854D01*
X159234520Y-77116725D01*
X159120769Y-77118214D01*
X158862797Y-77160228D01*
X158858339Y-77161655D01*
X158660033Y-77225133D01*
X158613869Y-77239910D01*
X158609684Y-77241974D01*
X158609681Y-77241975D01*
X158383646Y-77353443D01*
X158379453Y-77355511D01*
X158375614Y-77358174D01*
X158375611Y-77358176D01*
X158349669Y-77376173D01*
X158164699Y-77504492D01*
X157974324Y-77683578D01*
X157839249Y-77854920D01*
X157837559Y-77857573D01*
X157837556Y-77857577D01*
X156621886Y-79765797D01*
X156546782Y-79883686D01*
X156454564Y-80055313D01*
X156366243Y-80301308D01*
X156315251Y-80557657D01*
X156312599Y-80612874D01*
X156303650Y-80799187D01*
X156302711Y-80818726D01*
X156315380Y-80944541D01*
X156327336Y-81063275D01*
X156328897Y-81078781D01*
X156393235Y-81332109D01*
X156494309Y-81573146D01*
X156629901Y-81796595D01*
X156638733Y-81807214D01*
X156666913Y-81872376D01*
X156655390Y-81942431D01*
X156607821Y-81995136D01*
X156573512Y-82009741D01*
X156396997Y-82055555D01*
X156396993Y-82055556D01*
X156391828Y-82056897D01*
X156386962Y-82059089D01*
X156386959Y-82059090D01*
X156200667Y-82143008D01*
X156181485Y-82151649D01*
X156177065Y-82154625D01*
X156177061Y-82154627D01*
X156084800Y-82216742D01*
X155990115Y-82280488D01*
X155823188Y-82439728D01*
X155820000Y-82444013D01*
X155689468Y-82619455D01*
X155685479Y-82624816D01*
X155683064Y-82629566D01*
X155627894Y-82738078D01*
X155580923Y-82830462D01*
X155570361Y-82864478D01*
X155514095Y-83045680D01*
X155514094Y-83045686D01*
X155512511Y-83050783D01*
X155507475Y-83088782D01*
X155483723Y-83267994D01*
X155482200Y-83279482D01*
X148145500Y-83279482D01*
X148145500Y-78173700D01*
X148165502Y-78105579D01*
X148219158Y-78059086D01*
X148289432Y-78048982D01*
X148351815Y-78076615D01*
X148538315Y-78230901D01*
X148538320Y-78230904D01*
X148541375Y-78233432D01*
X148807881Y-78402562D01*
X148811460Y-78404246D01*
X148811467Y-78404250D01*
X149089894Y-78535267D01*
X149089898Y-78535269D01*
X149093484Y-78536956D01*
X149097256Y-78538182D01*
X149097257Y-78538182D01*
X149119290Y-78545341D01*
X149393678Y-78634495D01*
X149703730Y-78693641D01*
X149939912Y-78708500D01*
X150097588Y-78708500D01*
X150333770Y-78693641D01*
X150643822Y-78634495D01*
X150918210Y-78545341D01*
X150940243Y-78538182D01*
X150940244Y-78538182D01*
X150944016Y-78536956D01*
X150947602Y-78535269D01*
X150947606Y-78535267D01*
X151226033Y-78404250D01*
X151226040Y-78404246D01*
X151229619Y-78402562D01*
X151496125Y-78233432D01*
X151651649Y-78104771D01*
X151736280Y-78034758D01*
X151736281Y-78034757D01*
X151739332Y-78032233D01*
X151955404Y-77802140D01*
X151957983Y-77798591D01*
X152043869Y-77680378D01*
X152140934Y-77546779D01*
X152165649Y-77501824D01*
X152291090Y-77273648D01*
X152291091Y-77273647D01*
X152292997Y-77270179D01*
X152304982Y-77239910D01*
X152407740Y-76980372D01*
X152407740Y-76980371D01*
X152409193Y-76976702D01*
X152487690Y-76670975D01*
X152527250Y-76357821D01*
X152527250Y-76042179D01*
X152487690Y-75729025D01*
X152409193Y-75423298D01*
X152336790Y-75240429D01*
X152294452Y-75133495D01*
X152294450Y-75133490D01*
X152292997Y-75129821D01*
X152223323Y-75003085D01*
X152142843Y-74856693D01*
X152142841Y-74856690D01*
X152140934Y-74853221D01*
X151955404Y-74597860D01*
X151739332Y-74367767D01*
X151736285Y-74365246D01*
X151736273Y-74365235D01*
X151691970Y-74328585D01*
X151652231Y-74269751D01*
X151650609Y-74198773D01*
X151687618Y-74138186D01*
X151751509Y-74107225D01*
X151772285Y-74105500D01*
X166966001Y-74105500D01*
X167034122Y-74125502D01*
G37*
%TD.AperFunction*%
%TA.AperFunction,Conductor*%
G36*
X200386371Y-100935232D02*
G01*
X200389583Y-100937637D01*
X200399298Y-100939750D01*
X201746750Y-100939750D01*
X201814871Y-100959752D01*
X201861364Y-101013408D01*
X201872750Y-101065750D01*
X201872750Y-102271134D01*
X201877225Y-102286373D01*
X201878615Y-102287578D01*
X201886298Y-102289249D01*
X202140845Y-102289249D01*
X202147364Y-102288912D01*
X202242956Y-102278993D01*
X202256350Y-102276101D01*
X202410534Y-102224662D01*
X202423712Y-102218489D01*
X202561557Y-102133187D01*
X202572958Y-102124151D01*
X202687489Y-102009421D01*
X202696501Y-101998010D01*
X202781566Y-101860007D01*
X202787713Y-101846826D01*
X202838888Y-101692540D01*
X202841755Y-101679164D01*
X202851422Y-101584812D01*
X202851750Y-101578396D01*
X202851750Y-101353045D01*
X202871752Y-101284924D01*
X202925408Y-101238431D01*
X202977750Y-101227045D01*
X203154094Y-101227045D01*
X203222215Y-101247047D01*
X203256029Y-101278983D01*
X203257659Y-101281226D01*
X203260960Y-101286944D01*
X203265378Y-101291851D01*
X203265379Y-101291852D01*
X203337145Y-101371556D01*
X203388747Y-101428866D01*
X203543248Y-101541118D01*
X203549276Y-101543802D01*
X203549278Y-101543803D01*
X203682397Y-101603071D01*
X203717712Y-101618794D01*
X203811112Y-101638647D01*
X203898056Y-101657128D01*
X203898061Y-101657128D01*
X203904513Y-101658500D01*
X204095487Y-101658500D01*
X204101939Y-101657128D01*
X204101944Y-101657128D01*
X204271053Y-101621182D01*
X204341844Y-101626584D01*
X204398476Y-101669401D01*
X204422970Y-101736038D01*
X204423250Y-101744429D01*
X204423250Y-103227983D01*
X204422723Y-103239166D01*
X204421048Y-103246659D01*
X204421297Y-103254585D01*
X204421297Y-103254586D01*
X204423188Y-103314736D01*
X204423250Y-103318695D01*
X204423250Y-103346606D01*
X204423747Y-103350540D01*
X204423747Y-103350541D01*
X204423755Y-103350606D01*
X204424688Y-103362443D01*
X204426077Y-103406639D01*
X204431728Y-103426089D01*
X204435737Y-103445450D01*
X204438276Y-103465547D01*
X204441195Y-103472918D01*
X204441195Y-103472920D01*
X204454554Y-103506662D01*
X204458399Y-103517892D01*
X204470732Y-103560343D01*
X204474765Y-103567162D01*
X204474767Y-103567167D01*
X204481043Y-103577778D01*
X204489738Y-103595526D01*
X204497198Y-103614367D01*
X204501860Y-103620783D01*
X204501860Y-103620784D01*
X204523186Y-103650137D01*
X204529702Y-103660057D01*
X204542647Y-103681945D01*
X204552208Y-103698112D01*
X204566529Y-103712433D01*
X204579369Y-103727466D01*
X204591278Y-103743857D01*
X204625355Y-103772048D01*
X204634134Y-103780038D01*
X205405501Y-104551405D01*
X205439527Y-104613717D01*
X205434462Y-104684532D01*
X205391915Y-104741368D01*
X205325395Y-104766179D01*
X205316406Y-104766500D01*
X202280382Y-104766500D01*
X202212261Y-104746498D01*
X202165768Y-104692842D01*
X202162401Y-104684731D01*
X202153769Y-104661707D01*
X202153767Y-104661703D01*
X202150615Y-104653295D01*
X202063261Y-104536739D01*
X201946705Y-104449385D01*
X201810316Y-104398255D01*
X201748134Y-104391500D01*
X199951866Y-104391500D01*
X199889684Y-104398255D01*
X199753295Y-104449385D01*
X199636739Y-104536739D01*
X199631358Y-104543919D01*
X199554767Y-104646113D01*
X199554765Y-104646116D01*
X199549385Y-104653295D01*
X199546235Y-104661698D01*
X199542545Y-104668438D01*
X199492288Y-104718585D01*
X199422897Y-104733599D01*
X199356404Y-104708714D01*
X199342930Y-104697025D01*
X197495405Y-102849500D01*
X197461379Y-102787188D01*
X197458500Y-102760405D01*
X197458500Y-102099600D01*
X197449251Y-102010458D01*
X197448238Y-102000692D01*
X197448237Y-102000688D01*
X197447526Y-101993834D01*
X197426407Y-101930533D01*
X197423823Y-101859584D01*
X197456836Y-101801561D01*
X197680052Y-101578345D01*
X200385751Y-101578345D01*
X200386088Y-101584864D01*
X200396007Y-101680456D01*
X200398899Y-101693850D01*
X200450338Y-101848034D01*
X200456511Y-101861212D01*
X200541813Y-101999057D01*
X200550849Y-102010458D01*
X200665579Y-102124989D01*
X200676990Y-102134001D01*
X200814993Y-102219066D01*
X200828174Y-102225213D01*
X200982460Y-102276388D01*
X200995836Y-102279255D01*
X201090188Y-102288922D01*
X201096604Y-102289250D01*
X201346635Y-102289250D01*
X201361874Y-102284775D01*
X201363079Y-102283385D01*
X201364750Y-102275702D01*
X201364750Y-101465865D01*
X201360275Y-101450626D01*
X201358885Y-101449421D01*
X201351202Y-101447750D01*
X200403866Y-101447750D01*
X200388627Y-101452225D01*
X200387422Y-101453615D01*
X200385751Y-101461298D01*
X200385751Y-101578345D01*
X197680052Y-101578345D01*
X198306264Y-100952134D01*
X198368576Y-100918109D01*
X198395359Y-100915230D01*
X200318250Y-100915230D01*
X200386371Y-100935232D01*
G37*
%TD.AperFunction*%
%TA.AperFunction,Conductor*%
G36*
X207308621Y-89156358D02*
G01*
X207355114Y-89210014D01*
X207366500Y-89262356D01*
X207366500Y-95229300D01*
X207347410Y-95294314D01*
X207348003Y-95294665D01*
X207345735Y-95298500D01*
X207308454Y-95361539D01*
X207256561Y-95409992D01*
X207186710Y-95422697D01*
X207121079Y-95395622D01*
X207091546Y-95361539D01*
X207056031Y-95301486D01*
X207056031Y-95301485D01*
X207051997Y-95294665D01*
X206982905Y-95225573D01*
X206948879Y-95163261D01*
X206946000Y-95136478D01*
X206946000Y-95073521D01*
X206942027Y-95059990D01*
X206934129Y-95058855D01*
X206836048Y-95087350D01*
X206765742Y-95087350D01*
X206673322Y-95060500D01*
X206639360Y-95050633D01*
X206632955Y-95050129D01*
X206632950Y-95050128D01*
X206605186Y-95047943D01*
X206605178Y-95047943D01*
X206602730Y-95047750D01*
X206197270Y-95047750D01*
X206194822Y-95047943D01*
X206194814Y-95047943D01*
X206167050Y-95050128D01*
X206167045Y-95050129D01*
X206160640Y-95050633D01*
X206126678Y-95060500D01*
X206035153Y-95087090D01*
X205964847Y-95087090D01*
X205873322Y-95060500D01*
X205839360Y-95050633D01*
X205832955Y-95050129D01*
X205832950Y-95050128D01*
X205805186Y-95047943D01*
X205805178Y-95047943D01*
X205802730Y-95047750D01*
X205397270Y-95047750D01*
X205394822Y-95047943D01*
X205394814Y-95047943D01*
X205367050Y-95050128D01*
X205367045Y-95050129D01*
X205360640Y-95050633D01*
X205326678Y-95060500D01*
X205235153Y-95087090D01*
X205164847Y-95087090D01*
X205073322Y-95060500D01*
X205039360Y-95050633D01*
X205032955Y-95050129D01*
X205032950Y-95050128D01*
X205005186Y-95047943D01*
X205005178Y-95047943D01*
X205002730Y-95047750D01*
X204597270Y-95047750D01*
X204594822Y-95047943D01*
X204594814Y-95047943D01*
X204567050Y-95050128D01*
X204567045Y-95050129D01*
X204560640Y-95050633D01*
X204526678Y-95060500D01*
X204435153Y-95087090D01*
X204364847Y-95087090D01*
X204273322Y-95060500D01*
X204239360Y-95050633D01*
X204232955Y-95050129D01*
X204232950Y-95050128D01*
X204205186Y-95047943D01*
X204205178Y-95047943D01*
X204202730Y-95047750D01*
X203797270Y-95047750D01*
X203794822Y-95047943D01*
X203794814Y-95047943D01*
X203767050Y-95050128D01*
X203767045Y-95050129D01*
X203760640Y-95050633D01*
X203726678Y-95060500D01*
X203635153Y-95087090D01*
X203564847Y-95087090D01*
X203473322Y-95060500D01*
X203439360Y-95050633D01*
X203432955Y-95050129D01*
X203432950Y-95050128D01*
X203405186Y-95047943D01*
X203405178Y-95047943D01*
X203402730Y-95047750D01*
X202997270Y-95047750D01*
X202994822Y-95047943D01*
X202994814Y-95047943D01*
X202967050Y-95050128D01*
X202967045Y-95050129D01*
X202960640Y-95050633D01*
X202926678Y-95060500D01*
X202835153Y-95087090D01*
X202764847Y-95087090D01*
X202673322Y-95060500D01*
X202639360Y-95050633D01*
X202632955Y-95050129D01*
X202632950Y-95050128D01*
X202605186Y-95047943D01*
X202605178Y-95047943D01*
X202602730Y-95047750D01*
X202197270Y-95047750D01*
X202194822Y-95047943D01*
X202194814Y-95047943D01*
X202167050Y-95050128D01*
X202167045Y-95050129D01*
X202160640Y-95050633D01*
X202126678Y-95060500D01*
X202035153Y-95087090D01*
X201964847Y-95087090D01*
X201873322Y-95060500D01*
X201839360Y-95050633D01*
X201832955Y-95050129D01*
X201832950Y-95050128D01*
X201805186Y-95047943D01*
X201805178Y-95047943D01*
X201802730Y-95047750D01*
X201397270Y-95047750D01*
X201394822Y-95047943D01*
X201394814Y-95047943D01*
X201367050Y-95050128D01*
X201367045Y-95050129D01*
X201360640Y-95050633D01*
X201326678Y-95060500D01*
X201234258Y-95087350D01*
X201163952Y-95087350D01*
X201071395Y-95060460D01*
X201057295Y-95060500D01*
X201054000Y-95067770D01*
X201054000Y-95136478D01*
X201033998Y-95204599D01*
X201017095Y-95225573D01*
X200948003Y-95294665D01*
X200943969Y-95301485D01*
X200943969Y-95301486D01*
X200908454Y-95361539D01*
X200856561Y-95409992D01*
X200786710Y-95422697D01*
X200721079Y-95395622D01*
X200691546Y-95361539D01*
X200651997Y-95294665D01*
X200654664Y-95293088D01*
X200633994Y-95240442D01*
X200633500Y-95229300D01*
X200633500Y-94981624D01*
X200634027Y-94970441D01*
X200635702Y-94962948D01*
X200635427Y-94954182D01*
X200633562Y-94894858D01*
X200633500Y-94890900D01*
X200633500Y-94863000D01*
X200632996Y-94859009D01*
X200632063Y-94847167D01*
X200630923Y-94810892D01*
X200630674Y-94802967D01*
X200628462Y-94795353D01*
X200628461Y-94795348D01*
X200625023Y-94783515D01*
X200621012Y-94764151D01*
X200619467Y-94751920D01*
X200618474Y-94744059D01*
X200615557Y-94736692D01*
X200615556Y-94736687D01*
X200602198Y-94702948D01*
X200598354Y-94691721D01*
X200588230Y-94656878D01*
X200586018Y-94649263D01*
X200575707Y-94631828D01*
X200567012Y-94614080D01*
X200559552Y-94595239D01*
X200533564Y-94559469D01*
X200527048Y-94549549D01*
X200508580Y-94518321D01*
X200508578Y-94518318D01*
X200504542Y-94511494D01*
X200490221Y-94497173D01*
X200477380Y-94482139D01*
X200470131Y-94472162D01*
X200465472Y-94465749D01*
X200431395Y-94437558D01*
X200422616Y-94429568D01*
X200056605Y-94063557D01*
X200022579Y-94001245D01*
X200027644Y-93930430D01*
X200056605Y-93885367D01*
X202389916Y-91552057D01*
X204768712Y-89173261D01*
X204831024Y-89139235D01*
X204857807Y-89136356D01*
X207240500Y-89136356D01*
X207308621Y-89156358D01*
G37*
%TD.AperFunction*%
%TA.AperFunction,Conductor*%
G36*
X186591034Y-87403502D02*
G01*
X186612008Y-87420405D01*
X193137332Y-93945729D01*
X193171358Y-94008041D01*
X193166293Y-94078856D01*
X193123746Y-94135692D01*
X193054744Y-94160656D01*
X193046389Y-94161088D01*
X192950794Y-94171007D01*
X192937400Y-94173899D01*
X192783216Y-94225338D01*
X192770038Y-94231511D01*
X192632193Y-94316813D01*
X192620792Y-94325849D01*
X192506261Y-94440579D01*
X192497249Y-94451990D01*
X192435750Y-94551761D01*
X192382978Y-94599254D01*
X192312907Y-94610678D01*
X192247783Y-94582404D01*
X192239395Y-94574740D01*
X186220405Y-88555750D01*
X186186379Y-88493438D01*
X186183500Y-88466655D01*
X186183500Y-87509500D01*
X186203502Y-87441379D01*
X186257158Y-87394886D01*
X186309500Y-87383500D01*
X186522913Y-87383500D01*
X186591034Y-87403502D01*
G37*
%TD.AperFunction*%
%TA.AperFunction,Conductor*%
G36*
X199726991Y-86202091D02*
G01*
X199754463Y-86210073D01*
X199754468Y-86210074D01*
X199760640Y-86211867D01*
X199767045Y-86212371D01*
X199767050Y-86212372D01*
X199794814Y-86214557D01*
X199794822Y-86214557D01*
X199797270Y-86214750D01*
X200202730Y-86214750D01*
X200205183Y-86214557D01*
X200205207Y-86214556D01*
X200230612Y-86212556D01*
X200300092Y-86227150D01*
X200350653Y-86276992D01*
X200366500Y-86338167D01*
X200366500Y-87047476D01*
X200346498Y-87115597D01*
X200334142Y-87131779D01*
X200260960Y-87213056D01*
X200221662Y-87281122D01*
X200168837Y-87372618D01*
X200165473Y-87378444D01*
X200106458Y-87560072D01*
X200105768Y-87566633D01*
X200105768Y-87566635D01*
X200095585Y-87663526D01*
X200086496Y-87750000D01*
X200087186Y-87756565D01*
X200104154Y-87918003D01*
X200106458Y-87939928D01*
X200165473Y-88121556D01*
X200260960Y-88286944D01*
X200265378Y-88291851D01*
X200265379Y-88291852D01*
X200333828Y-88367872D01*
X200388747Y-88428866D01*
X200543248Y-88541118D01*
X200549276Y-88543802D01*
X200549278Y-88543803D01*
X200647253Y-88587424D01*
X200717712Y-88618794D01*
X200811113Y-88638647D01*
X200898056Y-88657128D01*
X200898061Y-88657128D01*
X200904513Y-88658500D01*
X201095487Y-88658500D01*
X201101939Y-88657128D01*
X201101944Y-88657128D01*
X201188888Y-88638647D01*
X201282288Y-88618794D01*
X201352747Y-88587424D01*
X201450722Y-88543803D01*
X201450724Y-88543802D01*
X201456752Y-88541118D01*
X201611253Y-88428866D01*
X201666172Y-88367872D01*
X201734621Y-88291852D01*
X201734622Y-88291851D01*
X201739040Y-88286944D01*
X201834527Y-88121556D01*
X201893542Y-87939928D01*
X201895847Y-87918003D01*
X201912814Y-87756565D01*
X201913504Y-87750000D01*
X201904415Y-87663526D01*
X201894232Y-87566635D01*
X201894232Y-87566633D01*
X201893542Y-87560072D01*
X201834527Y-87378444D01*
X201831164Y-87372618D01*
X201778338Y-87281122D01*
X201739040Y-87213056D01*
X201665863Y-87131785D01*
X201635147Y-87067779D01*
X201633500Y-87047476D01*
X201633500Y-86793238D01*
X201653502Y-86725117D01*
X201707158Y-86678624D01*
X201777432Y-86668520D01*
X201842012Y-86698014D01*
X201848595Y-86704143D01*
X203558213Y-88413761D01*
X203592239Y-88476073D01*
X203587174Y-88546888D01*
X203558213Y-88591951D01*
X199798595Y-92351568D01*
X199736283Y-92385594D01*
X199665467Y-92380529D01*
X199608632Y-92337982D01*
X199583821Y-92271462D01*
X199583500Y-92262473D01*
X199583500Y-92028520D01*
X199580617Y-91991890D01*
X199543900Y-91865508D01*
X199543900Y-91795202D01*
X199570790Y-91702645D01*
X199570750Y-91688545D01*
X199563480Y-91685250D01*
X199494772Y-91685250D01*
X199426651Y-91665248D01*
X199405677Y-91648345D01*
X199336585Y-91579253D01*
X199269711Y-91539704D01*
X199221258Y-91487811D01*
X199208553Y-91417960D01*
X199235628Y-91352329D01*
X199269711Y-91322796D01*
X199329764Y-91287281D01*
X199329765Y-91287281D01*
X199336585Y-91283247D01*
X199405677Y-91214155D01*
X199467989Y-91180129D01*
X199494772Y-91177250D01*
X199557729Y-91177250D01*
X199571260Y-91173277D01*
X199572395Y-91165379D01*
X199543900Y-91067298D01*
X199543900Y-90996992D01*
X199578822Y-90876787D01*
X199580617Y-90870610D01*
X199583500Y-90833980D01*
X199583500Y-90428520D01*
X199580617Y-90391890D01*
X199552397Y-90294757D01*
X199544160Y-90266403D01*
X199544160Y-90196097D01*
X199578822Y-90076787D01*
X199580617Y-90070610D01*
X199583500Y-90033980D01*
X199583500Y-89628520D01*
X199583307Y-89626064D01*
X199581122Y-89598300D01*
X199581121Y-89598295D01*
X199580617Y-89591890D01*
X199544160Y-89466403D01*
X199544160Y-89396097D01*
X199560977Y-89338211D01*
X199580617Y-89270610D01*
X199581889Y-89254457D01*
X199583307Y-89236436D01*
X199583307Y-89236428D01*
X199583500Y-89233980D01*
X199583500Y-88828520D01*
X199583259Y-88825457D01*
X199581122Y-88798300D01*
X199581121Y-88798295D01*
X199580617Y-88791890D01*
X199544160Y-88666403D01*
X199544160Y-88596097D01*
X199570648Y-88504922D01*
X199580617Y-88470610D01*
X199581691Y-88456976D01*
X199583307Y-88436436D01*
X199583307Y-88436428D01*
X199583500Y-88433980D01*
X199583500Y-88028520D01*
X199580617Y-87991890D01*
X199557300Y-87911632D01*
X199544160Y-87866403D01*
X199544160Y-87796097D01*
X199562258Y-87733801D01*
X199580617Y-87670610D01*
X199581796Y-87655642D01*
X199583307Y-87636436D01*
X199583307Y-87636428D01*
X199583500Y-87633980D01*
X199583500Y-87228520D01*
X199582971Y-87221795D01*
X199581122Y-87198300D01*
X199581121Y-87198295D01*
X199580617Y-87191890D01*
X199553018Y-87096893D01*
X199544160Y-87066403D01*
X199544160Y-86996097D01*
X199563606Y-86929162D01*
X199580617Y-86870610D01*
X199582067Y-86852196D01*
X199583307Y-86836436D01*
X199583307Y-86836428D01*
X199583500Y-86833980D01*
X199583500Y-86428520D01*
X199580617Y-86391890D01*
X199578824Y-86385718D01*
X199578823Y-86385713D01*
X199570841Y-86358241D01*
X199571044Y-86287245D01*
X199609598Y-86227628D01*
X199674262Y-86198320D01*
X199726991Y-86202091D01*
G37*
%TD.AperFunction*%
%TA.AperFunction,Conductor*%
G36*
X192793886Y-85182815D02*
G01*
X192838976Y-85211736D01*
X192926697Y-85299305D01*
X192932927Y-85303145D01*
X192932928Y-85303146D01*
X193056616Y-85379389D01*
X193104110Y-85432162D01*
X193116500Y-85486649D01*
X193116500Y-86929162D01*
X193096498Y-86997283D01*
X193079595Y-87018258D01*
X192905962Y-87191890D01*
X192733222Y-87364630D01*
X192724943Y-87372164D01*
X192718462Y-87376277D01*
X192692626Y-87403790D01*
X192671837Y-87425928D01*
X192669082Y-87428770D01*
X192649345Y-87448507D01*
X192646865Y-87451704D01*
X192639162Y-87460724D01*
X192608894Y-87492956D01*
X192605075Y-87499902D01*
X192605073Y-87499905D01*
X192599132Y-87510711D01*
X192588281Y-87527230D01*
X192575866Y-87543236D01*
X192572721Y-87550505D01*
X192572718Y-87550509D01*
X192558306Y-87583814D01*
X192553089Y-87594464D01*
X192531785Y-87633217D01*
X192529814Y-87640892D01*
X192529814Y-87640893D01*
X192526747Y-87652839D01*
X192520343Y-87671543D01*
X192512299Y-87690132D01*
X192511060Y-87697955D01*
X192511057Y-87697965D01*
X192505381Y-87733801D01*
X192502975Y-87745421D01*
X192500114Y-87756565D01*
X192491980Y-87788247D01*
X192491980Y-87808501D01*
X192490429Y-87828211D01*
X192487260Y-87848220D01*
X192490609Y-87883643D01*
X192491421Y-87892238D01*
X192491980Y-87904096D01*
X192491980Y-88891940D01*
X192471978Y-88960061D01*
X192418322Y-89006554D01*
X192356818Y-89016681D01*
X192356777Y-89017492D01*
X192347145Y-89017000D01*
X192234615Y-89017000D01*
X192219376Y-89021475D01*
X192218171Y-89022865D01*
X192216500Y-89030548D01*
X192216500Y-90378000D01*
X192196498Y-90446121D01*
X192142842Y-90492614D01*
X192090500Y-90504000D01*
X191834500Y-90504000D01*
X191766379Y-90483998D01*
X191719886Y-90430342D01*
X191708500Y-90378000D01*
X191708500Y-89035116D01*
X191704025Y-89019877D01*
X191702635Y-89018672D01*
X191694952Y-89017001D01*
X191577905Y-89017001D01*
X191571386Y-89017338D01*
X191475794Y-89027257D01*
X191462400Y-89030149D01*
X191308216Y-89081588D01*
X191295038Y-89087761D01*
X191157193Y-89173063D01*
X191145792Y-89182099D01*
X191031261Y-89296829D01*
X191022249Y-89308240D01*
X190937184Y-89446243D01*
X190931037Y-89459424D01*
X190879860Y-89613717D01*
X190878491Y-89620102D01*
X190844654Y-89682517D01*
X190782444Y-89716729D01*
X190711613Y-89711876D01*
X190666196Y-89682784D01*
X188082007Y-87098595D01*
X188047981Y-87036283D01*
X188053046Y-86965468D01*
X188095593Y-86908632D01*
X188162113Y-86883821D01*
X188171102Y-86883500D01*
X189671233Y-86883500D01*
X189682416Y-86884027D01*
X189689909Y-86885702D01*
X189697835Y-86885453D01*
X189697836Y-86885453D01*
X189757986Y-86883562D01*
X189761945Y-86883500D01*
X189789856Y-86883500D01*
X189793791Y-86883003D01*
X189793856Y-86882995D01*
X189805693Y-86882062D01*
X189837951Y-86881048D01*
X189841970Y-86880922D01*
X189849889Y-86880673D01*
X189869343Y-86875021D01*
X189888700Y-86871013D01*
X189900930Y-86869468D01*
X189900931Y-86869468D01*
X189908797Y-86868474D01*
X189916168Y-86865555D01*
X189916170Y-86865555D01*
X189949912Y-86852196D01*
X189961142Y-86848351D01*
X189995983Y-86838229D01*
X189995984Y-86838229D01*
X190003593Y-86836018D01*
X190010412Y-86831985D01*
X190010417Y-86831983D01*
X190021028Y-86825707D01*
X190038776Y-86817012D01*
X190057617Y-86809552D01*
X190073354Y-86798119D01*
X190093387Y-86783564D01*
X190103307Y-86777048D01*
X190134535Y-86758580D01*
X190134538Y-86758578D01*
X190141362Y-86754542D01*
X190155683Y-86740221D01*
X190170717Y-86727380D01*
X190180694Y-86720131D01*
X190187107Y-86715472D01*
X190215298Y-86681395D01*
X190223288Y-86672616D01*
X191400500Y-85495405D01*
X191462812Y-85461379D01*
X191489595Y-85458500D01*
X192150400Y-85458500D01*
X192153646Y-85458163D01*
X192153650Y-85458163D01*
X192249308Y-85448238D01*
X192249312Y-85448237D01*
X192256166Y-85447526D01*
X192262702Y-85445345D01*
X192262704Y-85445345D01*
X192416998Y-85393868D01*
X192423946Y-85391550D01*
X192574348Y-85298478D01*
X192660784Y-85211891D01*
X192723066Y-85177812D01*
X192793886Y-85182815D01*
G37*
%TD.AperFunction*%
%TA.AperFunction,Conductor*%
G36*
X203179902Y-80794105D02*
G01*
X203222270Y-80826883D01*
X204005109Y-81759835D01*
X204018334Y-81768634D01*
X204037766Y-81768942D01*
X204105561Y-81790022D01*
X204151197Y-81844408D01*
X204161768Y-81894926D01*
X204161768Y-83267994D01*
X204141766Y-83336115D01*
X204124863Y-83357089D01*
X203777426Y-83704526D01*
X203723483Y-83736428D01*
X203635152Y-83762090D01*
X203564847Y-83762090D01*
X203476517Y-83736428D01*
X203422575Y-83704526D01*
X202190771Y-82472722D01*
X202156745Y-82410410D01*
X202153866Y-82383627D01*
X202153866Y-82174258D01*
X202173868Y-82106137D01*
X202227524Y-82059644D01*
X202297798Y-82049540D01*
X202362378Y-82079034D01*
X202376388Y-82093267D01*
X202598982Y-82358544D01*
X202603633Y-82363514D01*
X202640571Y-82398938D01*
X202653149Y-82408287D01*
X202765165Y-82471534D01*
X202781725Y-82477990D01*
X202905944Y-82507012D01*
X202923640Y-82508560D01*
X203051019Y-82501549D01*
X203068437Y-82498068D01*
X203189742Y-82455233D01*
X203203750Y-82448210D01*
X203246282Y-82419737D01*
X203251724Y-82415650D01*
X203613726Y-82111894D01*
X203622525Y-82098669D01*
X203622554Y-82096830D01*
X203618897Y-82089872D01*
X202833119Y-81153418D01*
X202804655Y-81088378D01*
X202815872Y-81018273D01*
X202848650Y-80975905D01*
X203044757Y-80811352D01*
X203109797Y-80782888D01*
X203179902Y-80794105D01*
G37*
%TD.AperFunction*%
%TD*%
M02*
