M48
; DRILL file {KiCad (6.0.2)} date Sun Apr 17 22:42:49 2022
; FORMAT={-:-/ absolute / inch / decimal}
; #@! TF.CreationDate,2022-04-17T22:42:49-04:00
; #@! TF.GenerationSoftware,Kicad,Pcbnew,(6.0.2)
; #@! TF.FileFunction,Plated,1,2,PTH
FMAT,2
INCH
; #@! TA.AperFunction,Plated,PTH,ViaDrill
T1C0.0157
; #@! TA.AperFunction,Plated,PTH,ComponentDrill
T2C0.0276
; #@! TA.AperFunction,Plated,PTH,ComponentDrill
T3C0.0591
%
G90
G05
T1
X7.5197Y-3.9469
X7.5748Y-3.4727
X7.5751Y-3.6749
X7.5787Y-3.8091
X7.687Y-3.5531
X7.7069Y-3.4638
X7.7559Y-3.5531
X7.8975Y-3.5994
X7.9134Y-3.4547
X7.9336Y-3.8556
X7.9358Y-3.6417
X7.9879Y-4.0504
X7.9948Y-3.9495
X8.0315Y-3.9665
X8.0731Y-3.9764
X8.1189Y-3.5154
X8.1307Y-3.4558
X8.1562Y-4.0312
T2
X6.2215Y-3.4688
X6.2215Y-4.2188
X6.5285Y-3.4688
X6.5285Y-4.2188
X6.9715Y-3.4688
X6.9715Y-4.2188
X7.2785Y-3.4688
X7.2785Y-4.2188
T2
G00X6.6063Y-2.9764
M15
G01X6.6063Y-3.0748
M16
G05
G00X6.8937Y-2.9764
M15
G01X6.8937Y-3.0748
M16
G05
T3
G00X6.2706Y-3.1053
M15
G01X6.2231Y-3.18
M16
G05
G00X6.2706Y-3.8553
M15
G01X6.2231Y-3.93
M16
G05
G00X6.475Y-3.0813
M15
G01X6.4734Y-3.1041
M16
G05
G00X6.475Y-3.8313
M15
G01X6.4734Y-3.8541
M16
G05
G00X7.0206Y-3.1053
M15
G01X6.9731Y-3.18
M16
G05
G00X7.0206Y-3.8553
M15
G01X6.9731Y-3.93
M16
G05
G00X7.225Y-3.0813
M15
G01X7.2234Y-3.1041
M16
G05
G00X7.225Y-3.8313
M15
G01X7.2234Y-3.8541
M16
G05
T0
M30
