%TF.GenerationSoftware,KiCad,Pcbnew,(6.0.2)*%
%TF.CreationDate,2022-04-17T22:42:43-04:00*%
%TF.ProjectId,macropadfr,6d616372-6f70-4616-9466-722e6b696361,rev?*%
%TF.SameCoordinates,Original*%
%TF.FileFunction,Legend,Top*%
%TF.FilePolarity,Positive*%
%FSLAX46Y46*%
G04 Gerber Fmt 4.6, Leading zero omitted, Abs format (unit mm)*
G04 Created by KiCad (PCBNEW (6.0.2)) date 2022-04-17 22:42:43*
%MOMM*%
%LPD*%
G01*
G04 APERTURE LIST*
G04 Aperture macros list*
%AMHorizOval*
0 Thick line with rounded ends*
0 $1 width*
0 $2 $3 position (X,Y) of the first rounded end (center of the circle)*
0 $4 $5 position (X,Y) of the second rounded end (center of the circle)*
0 Add line between two ends*
20,1,$1,$2,$3,$4,$5,0*
0 Add two circle primitives to create the rounded ends*
1,1,$1,$2,$3*
1,1,$1,$4,$5*%
G04 Aperture macros list end*
%ADD10C,0.150000*%
%ADD11C,0.381000*%
%ADD12HorizOval,2.500000X-0.604462X-0.948815X0.604462X0.948815X0*%
%ADD13HorizOval,2.500000X-0.019724X-0.289328X0.019724X0.289328X0*%
G04 APERTURE END LIST*
D10*
X161401190Y-89939880D02*
X161496428Y-89939880D01*
X161591666Y-89987500D01*
X161639285Y-90035119D01*
X161686904Y-90130357D01*
X161734523Y-90320833D01*
X161734523Y-90558928D01*
X161686904Y-90749404D01*
X161639285Y-90844642D01*
X161591666Y-90892261D01*
X161496428Y-90939880D01*
X161401190Y-90939880D01*
X161305952Y-90892261D01*
X161258333Y-90844642D01*
X161210714Y-90749404D01*
X161163095Y-90558928D01*
X161163095Y-90320833D01*
X161210714Y-90130357D01*
X161258333Y-90035119D01*
X161305952Y-89987500D01*
X161401190Y-89939880D01*
X162353571Y-89939880D02*
X162448809Y-89939880D01*
X162544047Y-89987500D01*
X162591666Y-90035119D01*
X162639285Y-90130357D01*
X162686904Y-90320833D01*
X162686904Y-90558928D01*
X162639285Y-90749404D01*
X162591666Y-90844642D01*
X162544047Y-90892261D01*
X162448809Y-90939880D01*
X162353571Y-90939880D01*
X162258333Y-90892261D01*
X162210714Y-90844642D01*
X162163095Y-90749404D01*
X162115476Y-90558928D01*
X162115476Y-90320833D01*
X162163095Y-90130357D01*
X162210714Y-90035119D01*
X162258333Y-89987500D01*
X162353571Y-89939880D01*
X180784523Y-90939880D02*
X180213095Y-90939880D01*
X180498809Y-90939880D02*
X180498809Y-89939880D01*
X180403571Y-90082738D01*
X180308333Y-90177976D01*
X180213095Y-90225595D01*
X181403571Y-89939880D02*
X181498809Y-89939880D01*
X181594047Y-89987500D01*
X181641666Y-90035119D01*
X181689285Y-90130357D01*
X181736904Y-90320833D01*
X181736904Y-90558928D01*
X181689285Y-90749404D01*
X181641666Y-90844642D01*
X181594047Y-90892261D01*
X181498809Y-90939880D01*
X181403571Y-90939880D01*
X181308333Y-90892261D01*
X181260714Y-90844642D01*
X181213095Y-90749404D01*
X181165476Y-90558928D01*
X181165476Y-90320833D01*
X181213095Y-90130357D01*
X181260714Y-90035119D01*
X181308333Y-89987500D01*
X181403571Y-89939880D01*
X180784523Y-109989880D02*
X180213095Y-109989880D01*
X180498809Y-109989880D02*
X180498809Y-108989880D01*
X180403571Y-109132738D01*
X180308333Y-109227976D01*
X180213095Y-109275595D01*
X181736904Y-109989880D02*
X181165476Y-109989880D01*
X181451190Y-109989880D02*
X181451190Y-108989880D01*
X181355952Y-109132738D01*
X181260714Y-109227976D01*
X181165476Y-109275595D01*
X161401190Y-108989880D02*
X161496428Y-108989880D01*
X161591666Y-109037500D01*
X161639285Y-109085119D01*
X161686904Y-109180357D01*
X161734523Y-109370833D01*
X161734523Y-109608928D01*
X161686904Y-109799404D01*
X161639285Y-109894642D01*
X161591666Y-109942261D01*
X161496428Y-109989880D01*
X161401190Y-109989880D01*
X161305952Y-109942261D01*
X161258333Y-109894642D01*
X161210714Y-109799404D01*
X161163095Y-109608928D01*
X161163095Y-109370833D01*
X161210714Y-109180357D01*
X161258333Y-109085119D01*
X161305952Y-109037500D01*
X161401190Y-108989880D01*
X162686904Y-109989880D02*
X162115476Y-109989880D01*
X162401190Y-109989880D02*
X162401190Y-108989880D01*
X162305952Y-109132738D01*
X162210714Y-109227976D01*
X162115476Y-109275595D01*
%TO.C,*%
D11*
%TO.C,K1*%
X168275000Y-87915750D02*
X168275000Y-89693750D01*
X155575000Y-76993750D02*
X157353000Y-76993750D01*
X157353000Y-89693750D02*
X155575000Y-89693750D01*
X168275000Y-76993750D02*
X168275000Y-78771750D01*
X155575000Y-78771750D02*
X155575000Y-76993750D01*
X166497000Y-76993750D02*
X168275000Y-76993750D01*
X155575000Y-89693750D02*
X155575000Y-87915750D01*
X168275000Y-89693750D02*
X166497000Y-89693750D01*
%TO.C,K4*%
X174625000Y-96043750D02*
X176403000Y-96043750D01*
X174625000Y-108743750D02*
X174625000Y-106965750D01*
X187325000Y-96043750D02*
X187325000Y-97821750D01*
X185547000Y-96043750D02*
X187325000Y-96043750D01*
X176403000Y-108743750D02*
X174625000Y-108743750D01*
X174625000Y-97821750D02*
X174625000Y-96043750D01*
X187325000Y-108743750D02*
X185547000Y-108743750D01*
X187325000Y-106965750D02*
X187325000Y-108743750D01*
%TO.C,K3*%
X185547000Y-76993750D02*
X187325000Y-76993750D01*
X187325000Y-89693750D02*
X185547000Y-89693750D01*
X174625000Y-76993750D02*
X176403000Y-76993750D01*
X176403000Y-89693750D02*
X174625000Y-89693750D01*
X174625000Y-89693750D02*
X174625000Y-87915750D01*
X187325000Y-87915750D02*
X187325000Y-89693750D01*
X174625000Y-78771750D02*
X174625000Y-76993750D01*
X187325000Y-76993750D02*
X187325000Y-78771750D01*
%TO.C,K2*%
X166497000Y-96043750D02*
X168275000Y-96043750D01*
X155575000Y-108743750D02*
X155575000Y-106965750D01*
X155575000Y-96043750D02*
X157353000Y-96043750D01*
X168275000Y-108743750D02*
X166497000Y-108743750D01*
X155575000Y-97821750D02*
X155575000Y-96043750D01*
X157353000Y-108743750D02*
X155575000Y-108743750D01*
X168275000Y-106965750D02*
X168275000Y-108743750D01*
X168275000Y-96043750D02*
X168275000Y-97821750D01*
%TD*%
D12*
%TO.C,K1*%
X158670000Y-79823750D03*
D13*
X164445000Y-78553750D03*
%TD*%
D12*
%TO.C,K4*%
X177720000Y-98873750D03*
D13*
X183495000Y-97603750D03*
%TD*%
D12*
%TO.C,K3*%
X177720000Y-79823750D03*
D13*
X183495000Y-78553750D03*
%TD*%
D12*
%TO.C,K2*%
X158670000Y-98873750D03*
D13*
X164445000Y-97603750D03*
%TD*%
M02*
