%TF.GenerationSoftware,KiCad,Pcbnew,(6.0.2)*%
%TF.CreationDate,2022-04-17T22:42:43-04:00*%
%TF.ProjectId,macropadfr,6d616372-6f70-4616-9466-722e6b696361,rev?*%
%TF.SameCoordinates,Original*%
%TF.FileFunction,Soldermask,Bot*%
%TF.FilePolarity,Negative*%
%FSLAX46Y46*%
G04 Gerber Fmt 4.6, Leading zero omitted, Abs format (unit mm)*
G04 Created by KiCad (PCBNEW (6.0.2)) date 2022-04-17 22:42:43*
%MOMM*%
%LPD*%
G01*
G04 APERTURE LIST*
G04 Aperture macros list*
%AMRoundRect*
0 Rectangle with rounded corners*
0 $1 Rounding radius*
0 $2 $3 $4 $5 $6 $7 $8 $9 X,Y pos of 4 corners*
0 Add a 4 corners polygon primitive as box body*
4,1,4,$2,$3,$4,$5,$6,$7,$8,$9,$2,$3,0*
0 Add four circle primitives for the rounded corners*
1,1,$1+$1,$2,$3*
1,1,$1+$1,$4,$5*
1,1,$1+$1,$6,$7*
1,1,$1+$1,$8,$9*
0 Add four rect primitives between the rounded corners*
20,1,$1+$1,$2,$3,$4,$5,0*
20,1,$1+$1,$4,$5,$6,$7,0*
20,1,$1+$1,$6,$7,$8,$9,0*
20,1,$1+$1,$8,$9,$2,$3,0*%
%AMHorizOval*
0 Thick line with rounded ends*
0 $1 width*
0 $2 $3 position (X,Y) of the first rounded end (center of the circle)*
0 $4 $5 position (X,Y) of the second rounded end (center of the circle)*
0 Add line between two ends*
20,1,$1,$2,$3,$4,$5,0*
0 Add two circle primitives to create the rounded ends*
1,1,$1,$2,$3*
1,1,$1,$4,$5*%
%AMRotRect*
0 Rectangle, with rotation*
0 The origin of the aperture is its center*
0 $1 length*
0 $2 width*
0 $3 Rotation angle, in degrees counterclockwise*
0 Add horizontal line*
21,1,$1,$2,0,0,$3*%
G04 Aperture macros list end*
%ADD10C,1.701800*%
%ADD11C,3.987800*%
%ADD12HorizOval,2.500000X-0.604462X-0.948815X0.604462X0.948815X0*%
%ADD13HorizOval,2.500000X-0.019724X-0.289328X0.019724X0.289328X0*%
%ADD14C,4.000000*%
%ADD15RoundRect,0.250000X-0.350000X-0.450000X0.350000X-0.450000X0.350000X0.450000X-0.350000X0.450000X0*%
%ADD16R,1.700000X1.000000*%
%ADD17RoundRect,0.250000X-0.337500X-0.475000X0.337500X-0.475000X0.337500X0.475000X-0.337500X0.475000X0*%
%ADD18R,1.600000X1.600000*%
%ADD19R,1.200000X1.200000*%
%ADD20C,1.600000*%
%ADD21R,0.500000X1.400000*%
%ADD22R,2.350000X0.800000*%
%ADD23O,1.500000X4.000000*%
%ADD24RotRect,1.400000X1.200000X40.000000*%
%ADD25RoundRect,0.250000X0.475000X-0.337500X0.475000X0.337500X-0.475000X0.337500X-0.475000X-0.337500X0*%
%ADD26RoundRect,0.250000X0.337500X0.475000X-0.337500X0.475000X-0.337500X-0.475000X0.337500X-0.475000X0*%
%ADD27RoundRect,0.250000X-0.475000X0.337500X-0.475000X-0.337500X0.475000X-0.337500X0.475000X0.337500X0*%
%ADD28RoundRect,0.137500X-0.600000X-0.137500X0.600000X-0.137500X0.600000X0.137500X-0.600000X0.137500X0*%
%ADD29RoundRect,0.137500X-0.137500X-0.600000X0.137500X-0.600000X0.137500X0.600000X-0.137500X0.600000X0*%
%ADD30RoundRect,0.250000X-0.450000X0.350000X-0.450000X-0.350000X0.450000X-0.350000X0.450000X0.350000X0*%
G04 APERTURE END LIST*
D10*
%TO.C,K1*%
X156845000Y-83343750D03*
X167005000Y-83343750D03*
D11*
X161925000Y-83343750D03*
D12*
X158670000Y-79823750D03*
D13*
X164445000Y-78553750D03*
%TD*%
D14*
%TO.C,*%
X150018750Y-109537500D03*
%TD*%
D10*
%TO.C,K4*%
X186055000Y-102393750D03*
D11*
X180975000Y-102393750D03*
D10*
X175895000Y-102393750D03*
D12*
X177720000Y-98873750D03*
D13*
X183495000Y-97603750D03*
%TD*%
D14*
%TO.C,REF\u002A\u002A*%
X211931250Y-76200000D03*
%TD*%
%TO.C,*%
X211931250Y-109537500D03*
%TD*%
D11*
%TO.C,K3*%
X180975000Y-83343750D03*
D10*
X175895000Y-83343750D03*
X186055000Y-83343750D03*
D12*
X177720000Y-79823750D03*
D13*
X183495000Y-78553750D03*
%TD*%
D14*
%TO.C,*%
X150018750Y-76200000D03*
%TD*%
D10*
%TO.C,K2*%
X156845000Y-102393750D03*
D11*
X161925000Y-102393750D03*
D10*
X167005000Y-102393750D03*
D12*
X158670000Y-98873750D03*
D13*
X164445000Y-97603750D03*
%TD*%
D15*
%TO.C,Rusb1*%
X191750000Y-84250000D03*
X193750000Y-84250000D03*
%TD*%
D16*
%TO.C,reset_switch1*%
X200850000Y-109200000D03*
X207150000Y-109200000D03*
X200850000Y-105400000D03*
X207150000Y-105400000D03*
%TD*%
D17*
%TO.C,Cusb1*%
X191962500Y-90250000D03*
X194037500Y-90250000D03*
%TD*%
D18*
%TO.C,D3*%
X184875000Y-88106250D03*
D19*
X182550000Y-88106250D03*
X179400000Y-88106250D03*
D20*
X177075000Y-88106250D03*
%TD*%
D18*
%TO.C,D2*%
X165825000Y-107156250D03*
D19*
X163500000Y-107156250D03*
X160350000Y-107156250D03*
D20*
X158025000Y-107156250D03*
%TD*%
D21*
%TO.C,Micro_USB1*%
X169850000Y-79250000D03*
X170650000Y-79250000D03*
X171450000Y-79250000D03*
X172250000Y-79250000D03*
X173050000Y-79250000D03*
D22*
X174125000Y-74050000D03*
X168775000Y-74050000D03*
D23*
X175100000Y-76850000D03*
X167800000Y-76850000D03*
%TD*%
D24*
%TO.C,clock1*%
X202017232Y-79785929D03*
X203702529Y-78371796D03*
X204795268Y-79674071D03*
X203109971Y-81088204D03*
%TD*%
D25*
%TO.C,CCryst2*%
X207906250Y-80037500D03*
X207906250Y-77962500D03*
%TD*%
D26*
%TO.C,Cd1*%
X197893750Y-83487500D03*
X195818750Y-83487500D03*
%TD*%
D17*
%TO.C,Cd2*%
X210106250Y-83487500D03*
X212181250Y-83487500D03*
%TD*%
D27*
%TO.C,Cd4*%
X201618750Y-99118750D03*
X201618750Y-101193750D03*
%TD*%
D28*
%TO.C,processor1*%
X198337500Y-94631250D03*
X198337500Y-93831250D03*
X198337500Y-93031250D03*
X198337500Y-92231250D03*
X198337500Y-91431250D03*
X198337500Y-90631250D03*
X198337500Y-89831250D03*
X198337500Y-89031250D03*
X198337500Y-88231250D03*
X198337500Y-87431250D03*
X198337500Y-86631250D03*
D29*
X200000000Y-84968750D03*
X200800000Y-84968750D03*
X201600000Y-84968750D03*
X202400000Y-84968750D03*
X203200000Y-84968750D03*
X204000000Y-84968750D03*
X204800000Y-84968750D03*
X205600000Y-84968750D03*
X206400000Y-84968750D03*
X207200000Y-84968750D03*
X208000000Y-84968750D03*
D28*
X209662500Y-86631250D03*
X209662500Y-87431250D03*
X209662500Y-88231250D03*
X209662500Y-89031250D03*
X209662500Y-89831250D03*
X209662500Y-90631250D03*
X209662500Y-91431250D03*
X209662500Y-92231250D03*
X209662500Y-93031250D03*
X209662500Y-93831250D03*
X209662500Y-94631250D03*
D29*
X208000000Y-96293750D03*
X207200000Y-96293750D03*
X206400000Y-96293750D03*
X205600000Y-96293750D03*
X204800000Y-96293750D03*
X204000000Y-96293750D03*
X203200000Y-96293750D03*
X202400000Y-96293750D03*
X201600000Y-96293750D03*
X200800000Y-96293750D03*
X200000000Y-96293750D03*
%TD*%
D30*
%TO.C,Rreset1*%
X196250000Y-100500000D03*
X196250000Y-102500000D03*
%TD*%
D19*
%TO.C,D4*%
X182550000Y-107156250D03*
D18*
X184875000Y-107156250D03*
D19*
X179400000Y-107156250D03*
D20*
X177075000Y-107156250D03*
%TD*%
D27*
%TO.C,Cd3*%
X206381250Y-99118750D03*
X206381250Y-101193750D03*
%TD*%
D30*
%TO.C,Rboot1*%
X211656250Y-97250000D03*
X211656250Y-99250000D03*
%TD*%
D15*
%TO.C,Rusb2*%
X191750000Y-79500000D03*
X193750000Y-79500000D03*
%TD*%
D18*
%TO.C,D1*%
X165825000Y-88106250D03*
D19*
X163500000Y-88106250D03*
D20*
X158025000Y-88106250D03*
D19*
X160350000Y-88106250D03*
%TD*%
D25*
%TO.C,CCryst1*%
X198656250Y-80037500D03*
X198656250Y-77962500D03*
%TD*%
D26*
%TO.C,Cu1*%
X195512500Y-95393750D03*
X193437500Y-95393750D03*
%TD*%
M02*
