%TF.GenerationSoftware,KiCad,Pcbnew,(6.0.2)*%
%TF.CreationDate,2022-04-17T22:42:43-04:00*%
%TF.ProjectId,macropadfr,6d616372-6f70-4616-9466-722e6b696361,rev?*%
%TF.SameCoordinates,Original*%
%TF.FileFunction,Legend,Bot*%
%TF.FilePolarity,Positive*%
%FSLAX46Y46*%
G04 Gerber Fmt 4.6, Leading zero omitted, Abs format (unit mm)*
G04 Created by KiCad (PCBNEW (6.0.2)) date 2022-04-17 22:42:43*
%MOMM*%
%LPD*%
G01*
G04 APERTURE LIST*
%ADD10C,0.127000*%
%ADD11C,0.150000*%
%ADD12C,0.200000*%
%ADD13C,0.120000*%
%ADD14R,1.600000X1.600000*%
%ADD15C,1.600000*%
G04 APERTURE END LIST*
D10*
X174969714Y-92451464D02*
X174969714Y-92995750D01*
X175006000Y-93104607D01*
X175078571Y-93177178D01*
X175187428Y-93213464D01*
X175260000Y-93213464D01*
X174244000Y-93213464D02*
X174606857Y-93213464D01*
X174606857Y-92451464D01*
X173554571Y-93140892D02*
X173590857Y-93177178D01*
X173699714Y-93213464D01*
X173772285Y-93213464D01*
X173881142Y-93177178D01*
X173953714Y-93104607D01*
X173990000Y-93032035D01*
X174026285Y-92886892D01*
X174026285Y-92778035D01*
X173990000Y-92632892D01*
X173953714Y-92560321D01*
X173881142Y-92487750D01*
X173772285Y-92451464D01*
X173699714Y-92451464D01*
X173590857Y-92487750D01*
X173554571Y-92524035D01*
X173010285Y-92451464D02*
X173010285Y-92995750D01*
X173046571Y-93104607D01*
X173119142Y-93177178D01*
X173228000Y-93213464D01*
X173300571Y-93213464D01*
X172284571Y-93213464D02*
X172647428Y-93213464D01*
X172647428Y-92451464D01*
X171595142Y-93140892D02*
X171631428Y-93177178D01*
X171740285Y-93213464D01*
X171812857Y-93213464D01*
X171921714Y-93177178D01*
X171994285Y-93104607D01*
X172030571Y-93032035D01*
X172066857Y-92886892D01*
X172066857Y-92778035D01*
X172030571Y-92632892D01*
X171994285Y-92560321D01*
X171921714Y-92487750D01*
X171812857Y-92451464D01*
X171740285Y-92451464D01*
X171631428Y-92487750D01*
X171595142Y-92524035D01*
X171050857Y-92451464D02*
X171050857Y-92995750D01*
X171087142Y-93104607D01*
X171159714Y-93177178D01*
X171268571Y-93213464D01*
X171341142Y-93213464D01*
X170325142Y-93213464D02*
X170688000Y-93213464D01*
X170688000Y-92451464D01*
X169635714Y-93140892D02*
X169672000Y-93177178D01*
X169780857Y-93213464D01*
X169853428Y-93213464D01*
X169962285Y-93177178D01*
X170034857Y-93104607D01*
X170071142Y-93032035D01*
X170107428Y-92886892D01*
X170107428Y-92778035D01*
X170071142Y-92632892D01*
X170034857Y-92560321D01*
X169962285Y-92487750D01*
X169853428Y-92451464D01*
X169780857Y-92451464D01*
X169672000Y-92487750D01*
X169635714Y-92524035D01*
X169091428Y-92451464D02*
X169091428Y-92995750D01*
X169127714Y-93104607D01*
X169200285Y-93177178D01*
X169309142Y-93213464D01*
X169381714Y-93213464D01*
X168365714Y-93213464D02*
X168728571Y-93213464D01*
X168728571Y-92451464D01*
X167676285Y-93140892D02*
X167712571Y-93177178D01*
X167821428Y-93213464D01*
X167894000Y-93213464D01*
X168002857Y-93177178D01*
X168075428Y-93104607D01*
X168111714Y-93032035D01*
X168148000Y-92886892D01*
X168148000Y-92778035D01*
X168111714Y-92632892D01*
X168075428Y-92560321D01*
X168002857Y-92487750D01*
X167894000Y-92451464D01*
X167821428Y-92451464D01*
X167712571Y-92487750D01*
X167676285Y-92524035D01*
D11*
X162448809Y-108989880D02*
X162353571Y-108989880D01*
X162258333Y-109037500D01*
X162210714Y-109085119D01*
X162163095Y-109180357D01*
X162115476Y-109370833D01*
X162115476Y-109608928D01*
X162163095Y-109799404D01*
X162210714Y-109894642D01*
X162258333Y-109942261D01*
X162353571Y-109989880D01*
X162448809Y-109989880D01*
X162544047Y-109942261D01*
X162591666Y-109894642D01*
X162639285Y-109799404D01*
X162686904Y-109608928D01*
X162686904Y-109370833D01*
X162639285Y-109180357D01*
X162591666Y-109085119D01*
X162544047Y-109037500D01*
X162448809Y-108989880D01*
X161163095Y-109989880D02*
X161734523Y-109989880D01*
X161448809Y-109989880D02*
X161448809Y-108989880D01*
X161544047Y-109132738D01*
X161639285Y-109227976D01*
X161734523Y-109275595D01*
X162448809Y-89939880D02*
X162353571Y-89939880D01*
X162258333Y-89987500D01*
X162210714Y-90035119D01*
X162163095Y-90130357D01*
X162115476Y-90320833D01*
X162115476Y-90558928D01*
X162163095Y-90749404D01*
X162210714Y-90844642D01*
X162258333Y-90892261D01*
X162353571Y-90939880D01*
X162448809Y-90939880D01*
X162544047Y-90892261D01*
X162591666Y-90844642D01*
X162639285Y-90749404D01*
X162686904Y-90558928D01*
X162686904Y-90320833D01*
X162639285Y-90130357D01*
X162591666Y-90035119D01*
X162544047Y-89987500D01*
X162448809Y-89939880D01*
X161496428Y-89939880D02*
X161401190Y-89939880D01*
X161305952Y-89987500D01*
X161258333Y-90035119D01*
X161210714Y-90130357D01*
X161163095Y-90320833D01*
X161163095Y-90558928D01*
X161210714Y-90749404D01*
X161258333Y-90844642D01*
X161305952Y-90892261D01*
X161401190Y-90939880D01*
X161496428Y-90939880D01*
X161591666Y-90892261D01*
X161639285Y-90844642D01*
X161686904Y-90749404D01*
X161734523Y-90558928D01*
X161734523Y-90320833D01*
X161686904Y-90130357D01*
X161639285Y-90035119D01*
X161591666Y-89987500D01*
X161496428Y-89939880D01*
X181165476Y-90939880D02*
X181736904Y-90939880D01*
X181451190Y-90939880D02*
X181451190Y-89939880D01*
X181546428Y-90082738D01*
X181641666Y-90177976D01*
X181736904Y-90225595D01*
X180546428Y-89939880D02*
X180451190Y-89939880D01*
X180355952Y-89987500D01*
X180308333Y-90035119D01*
X180260714Y-90130357D01*
X180213095Y-90320833D01*
X180213095Y-90558928D01*
X180260714Y-90749404D01*
X180308333Y-90844642D01*
X180355952Y-90892261D01*
X180451190Y-90939880D01*
X180546428Y-90939880D01*
X180641666Y-90892261D01*
X180689285Y-90844642D01*
X180736904Y-90749404D01*
X180784523Y-90558928D01*
X180784523Y-90320833D01*
X180736904Y-90130357D01*
X180689285Y-90035119D01*
X180641666Y-89987500D01*
X180546428Y-89939880D01*
X181165476Y-109989880D02*
X181736904Y-109989880D01*
X181451190Y-109989880D02*
X181451190Y-108989880D01*
X181546428Y-109132738D01*
X181641666Y-109227976D01*
X181736904Y-109275595D01*
X180213095Y-109989880D02*
X180784523Y-109989880D01*
X180498809Y-109989880D02*
X180498809Y-108989880D01*
X180594047Y-109132738D01*
X180689285Y-109227976D01*
X180784523Y-109275595D01*
D12*
%TO.C,K1*%
X165044345Y-86177380D02*
X165044345Y-85177380D01*
X164472916Y-86177380D02*
X164901488Y-85605952D01*
X164472916Y-85177380D02*
X165044345Y-85748809D01*
X163520535Y-86177380D02*
X164091964Y-86177380D01*
X163806250Y-86177380D02*
X163806250Y-85177380D01*
X163901488Y-85320238D01*
X163996726Y-85415476D01*
X164091964Y-85463095D01*
%TO.C,K4*%
X184094345Y-105227380D02*
X184094345Y-104227380D01*
X183522916Y-105227380D02*
X183951488Y-104655952D01*
X183522916Y-104227380D02*
X184094345Y-104798809D01*
X182665773Y-104560714D02*
X182665773Y-105227380D01*
X182903869Y-104179761D02*
X183141964Y-104894047D01*
X182522916Y-104894047D01*
%TO.C,K3*%
X184094345Y-86177380D02*
X184094345Y-85177380D01*
X183522916Y-86177380D02*
X183951488Y-85605952D01*
X183522916Y-85177380D02*
X184094345Y-85748809D01*
X183189583Y-85177380D02*
X182570535Y-85177380D01*
X182903869Y-85558333D01*
X182761011Y-85558333D01*
X182665773Y-85605952D01*
X182618154Y-85653571D01*
X182570535Y-85748809D01*
X182570535Y-85986904D01*
X182618154Y-86082142D01*
X182665773Y-86129761D01*
X182761011Y-86177380D01*
X183046726Y-86177380D01*
X183141964Y-86129761D01*
X183189583Y-86082142D01*
%TO.C,K2*%
X165044345Y-105227380D02*
X165044345Y-104227380D01*
X164472916Y-105227380D02*
X164901488Y-104655952D01*
X164472916Y-104227380D02*
X165044345Y-104798809D01*
X164091964Y-104322619D02*
X164044345Y-104275000D01*
X163949107Y-104227380D01*
X163711011Y-104227380D01*
X163615773Y-104275000D01*
X163568154Y-104322619D01*
X163520535Y-104417857D01*
X163520535Y-104513095D01*
X163568154Y-104655952D01*
X164139583Y-105227380D01*
X163520535Y-105227380D01*
D11*
%TO.C,Rusb1*%
X194226190Y-86352380D02*
X194559523Y-85876190D01*
X194797619Y-86352380D02*
X194797619Y-85352380D01*
X194416666Y-85352380D01*
X194321428Y-85400000D01*
X194273809Y-85447619D01*
X194226190Y-85542857D01*
X194226190Y-85685714D01*
X194273809Y-85780952D01*
X194321428Y-85828571D01*
X194416666Y-85876190D01*
X194797619Y-85876190D01*
X193369047Y-85685714D02*
X193369047Y-86352380D01*
X193797619Y-85685714D02*
X193797619Y-86209523D01*
X193750000Y-86304761D01*
X193654761Y-86352380D01*
X193511904Y-86352380D01*
X193416666Y-86304761D01*
X193369047Y-86257142D01*
X192940476Y-86304761D02*
X192845238Y-86352380D01*
X192654761Y-86352380D01*
X192559523Y-86304761D01*
X192511904Y-86209523D01*
X192511904Y-86161904D01*
X192559523Y-86066666D01*
X192654761Y-86019047D01*
X192797619Y-86019047D01*
X192892857Y-85971428D01*
X192940476Y-85876190D01*
X192940476Y-85828571D01*
X192892857Y-85733333D01*
X192797619Y-85685714D01*
X192654761Y-85685714D01*
X192559523Y-85733333D01*
X192083333Y-86352380D02*
X192083333Y-85352380D01*
X192083333Y-85733333D02*
X191988095Y-85685714D01*
X191797619Y-85685714D01*
X191702380Y-85733333D01*
X191654761Y-85780952D01*
X191607142Y-85876190D01*
X191607142Y-86161904D01*
X191654761Y-86257142D01*
X191702380Y-86304761D01*
X191797619Y-86352380D01*
X191988095Y-86352380D01*
X192083333Y-86304761D01*
X190654761Y-86352380D02*
X191226190Y-86352380D01*
X190940476Y-86352380D02*
X190940476Y-85352380D01*
X191035714Y-85495238D01*
X191130952Y-85590476D01*
X191226190Y-85638095D01*
%TO.C,reset_switch1*%
X208809523Y-111502380D02*
X208809523Y-110835714D01*
X208809523Y-111026190D02*
X208761904Y-110930952D01*
X208714285Y-110883333D01*
X208619047Y-110835714D01*
X208523809Y-110835714D01*
X207809523Y-111454761D02*
X207904761Y-111502380D01*
X208095238Y-111502380D01*
X208190476Y-111454761D01*
X208238095Y-111359523D01*
X208238095Y-110978571D01*
X208190476Y-110883333D01*
X208095238Y-110835714D01*
X207904761Y-110835714D01*
X207809523Y-110883333D01*
X207761904Y-110978571D01*
X207761904Y-111073809D01*
X208238095Y-111169047D01*
X207380952Y-111454761D02*
X207285714Y-111502380D01*
X207095238Y-111502380D01*
X207000000Y-111454761D01*
X206952380Y-111359523D01*
X206952380Y-111311904D01*
X207000000Y-111216666D01*
X207095238Y-111169047D01*
X207238095Y-111169047D01*
X207333333Y-111121428D01*
X207380952Y-111026190D01*
X207380952Y-110978571D01*
X207333333Y-110883333D01*
X207238095Y-110835714D01*
X207095238Y-110835714D01*
X207000000Y-110883333D01*
X206142857Y-111454761D02*
X206238095Y-111502380D01*
X206428571Y-111502380D01*
X206523809Y-111454761D01*
X206571428Y-111359523D01*
X206571428Y-110978571D01*
X206523809Y-110883333D01*
X206428571Y-110835714D01*
X206238095Y-110835714D01*
X206142857Y-110883333D01*
X206095238Y-110978571D01*
X206095238Y-111073809D01*
X206571428Y-111169047D01*
X205809523Y-110835714D02*
X205428571Y-110835714D01*
X205666666Y-110502380D02*
X205666666Y-111359523D01*
X205619047Y-111454761D01*
X205523809Y-111502380D01*
X205428571Y-111502380D01*
X205333333Y-111597619D02*
X204571428Y-111597619D01*
X204380952Y-111454761D02*
X204285714Y-111502380D01*
X204095238Y-111502380D01*
X204000000Y-111454761D01*
X203952380Y-111359523D01*
X203952380Y-111311904D01*
X204000000Y-111216666D01*
X204095238Y-111169047D01*
X204238095Y-111169047D01*
X204333333Y-111121428D01*
X204380952Y-111026190D01*
X204380952Y-110978571D01*
X204333333Y-110883333D01*
X204238095Y-110835714D01*
X204095238Y-110835714D01*
X204000000Y-110883333D01*
X203619047Y-110835714D02*
X203428571Y-111502380D01*
X203238095Y-111026190D01*
X203047619Y-111502380D01*
X202857142Y-110835714D01*
X202476190Y-111502380D02*
X202476190Y-110835714D01*
X202476190Y-110502380D02*
X202523809Y-110550000D01*
X202476190Y-110597619D01*
X202428571Y-110550000D01*
X202476190Y-110502380D01*
X202476190Y-110597619D01*
X202142857Y-110835714D02*
X201761904Y-110835714D01*
X202000000Y-110502380D02*
X202000000Y-111359523D01*
X201952380Y-111454761D01*
X201857142Y-111502380D01*
X201761904Y-111502380D01*
X201000000Y-111454761D02*
X201095238Y-111502380D01*
X201285714Y-111502380D01*
X201380952Y-111454761D01*
X201428571Y-111407142D01*
X201476190Y-111311904D01*
X201476190Y-111026190D01*
X201428571Y-110930952D01*
X201380952Y-110883333D01*
X201285714Y-110835714D01*
X201095238Y-110835714D01*
X201000000Y-110883333D01*
X200571428Y-111502380D02*
X200571428Y-110502380D01*
X200142857Y-111502380D02*
X200142857Y-110978571D01*
X200190476Y-110883333D01*
X200285714Y-110835714D01*
X200428571Y-110835714D01*
X200523809Y-110883333D01*
X200571428Y-110930952D01*
X199142857Y-111502380D02*
X199714285Y-111502380D01*
X199428571Y-111502380D02*
X199428571Y-110502380D01*
X199523809Y-110645238D01*
X199619047Y-110740476D01*
X199714285Y-110788095D01*
%TO.C,Cusb1*%
X194476190Y-92287142D02*
X194523809Y-92334761D01*
X194666666Y-92382380D01*
X194761904Y-92382380D01*
X194904761Y-92334761D01*
X195000000Y-92239523D01*
X195047619Y-92144285D01*
X195095238Y-91953809D01*
X195095238Y-91810952D01*
X195047619Y-91620476D01*
X195000000Y-91525238D01*
X194904761Y-91430000D01*
X194761904Y-91382380D01*
X194666666Y-91382380D01*
X194523809Y-91430000D01*
X194476190Y-91477619D01*
X193619047Y-91715714D02*
X193619047Y-92382380D01*
X194047619Y-91715714D02*
X194047619Y-92239523D01*
X194000000Y-92334761D01*
X193904761Y-92382380D01*
X193761904Y-92382380D01*
X193666666Y-92334761D01*
X193619047Y-92287142D01*
X193190476Y-92334761D02*
X193095238Y-92382380D01*
X192904761Y-92382380D01*
X192809523Y-92334761D01*
X192761904Y-92239523D01*
X192761904Y-92191904D01*
X192809523Y-92096666D01*
X192904761Y-92049047D01*
X193047619Y-92049047D01*
X193142857Y-92001428D01*
X193190476Y-91906190D01*
X193190476Y-91858571D01*
X193142857Y-91763333D01*
X193047619Y-91715714D01*
X192904761Y-91715714D01*
X192809523Y-91763333D01*
X192333333Y-92382380D02*
X192333333Y-91382380D01*
X192333333Y-91763333D02*
X192238095Y-91715714D01*
X192047619Y-91715714D01*
X191952380Y-91763333D01*
X191904761Y-91810952D01*
X191857142Y-91906190D01*
X191857142Y-92191904D01*
X191904761Y-92287142D01*
X191952380Y-92334761D01*
X192047619Y-92382380D01*
X192238095Y-92382380D01*
X192333333Y-92334761D01*
X190904761Y-92382380D02*
X191476190Y-92382380D01*
X191190476Y-92382380D02*
X191190476Y-91382380D01*
X191285714Y-91525238D01*
X191380952Y-91620476D01*
X191476190Y-91668095D01*
%TO.C,D3*%
X178765476Y-86086904D02*
X178765476Y-85286904D01*
X178575000Y-85286904D01*
X178460714Y-85325000D01*
X178384523Y-85401190D01*
X178346428Y-85477380D01*
X178308333Y-85629761D01*
X178308333Y-85744047D01*
X178346428Y-85896428D01*
X178384523Y-85972619D01*
X178460714Y-86048809D01*
X178575000Y-86086904D01*
X178765476Y-86086904D01*
X178041666Y-85286904D02*
X177546428Y-85286904D01*
X177813095Y-85591666D01*
X177698809Y-85591666D01*
X177622619Y-85629761D01*
X177584523Y-85667857D01*
X177546428Y-85744047D01*
X177546428Y-85934523D01*
X177584523Y-86010714D01*
X177622619Y-86048809D01*
X177698809Y-86086904D01*
X177927380Y-86086904D01*
X178003571Y-86048809D01*
X178041666Y-86010714D01*
%TO.C,D2*%
X160134226Y-105136904D02*
X160134226Y-104336904D01*
X159943750Y-104336904D01*
X159829464Y-104375000D01*
X159753273Y-104451190D01*
X159715178Y-104527380D01*
X159677083Y-104679761D01*
X159677083Y-104794047D01*
X159715178Y-104946428D01*
X159753273Y-105022619D01*
X159829464Y-105098809D01*
X159943750Y-105136904D01*
X160134226Y-105136904D01*
X159372321Y-104413095D02*
X159334226Y-104375000D01*
X159258035Y-104336904D01*
X159067559Y-104336904D01*
X158991369Y-104375000D01*
X158953273Y-104413095D01*
X158915178Y-104489285D01*
X158915178Y-104565476D01*
X158953273Y-104679761D01*
X159410416Y-105136904D01*
X158915178Y-105136904D01*
%TO.C,clock1*%
X208034362Y-75162230D02*
X208137927Y-75137491D01*
X208283841Y-75015055D01*
X208326188Y-74917359D01*
X208332058Y-74850271D01*
X208307318Y-74746706D01*
X208123665Y-74527836D01*
X208025968Y-74485488D01*
X207958881Y-74479619D01*
X207855316Y-74504358D01*
X207709402Y-74626794D01*
X207667055Y-74724490D01*
X207627231Y-75566016D02*
X207669579Y-75468319D01*
X207644839Y-75364754D01*
X207093879Y-74708144D01*
X207225970Y-75902714D02*
X207268317Y-75805018D01*
X207274187Y-75737930D01*
X207249447Y-75634365D01*
X207065794Y-75415495D01*
X206968098Y-75373147D01*
X206901010Y-75367278D01*
X206797445Y-75392018D01*
X206688010Y-75483844D01*
X206645662Y-75581541D01*
X206639793Y-75648628D01*
X206664532Y-75752193D01*
X206848186Y-75971063D01*
X206945882Y-76013411D01*
X207012969Y-76019280D01*
X207116535Y-75994541D01*
X207225970Y-75902714D01*
X206283403Y-76631459D02*
X206386969Y-76606719D01*
X206532882Y-76484284D01*
X206575230Y-76386587D01*
X206581099Y-76319500D01*
X206556359Y-76215935D01*
X206372706Y-75997065D01*
X206275010Y-75954717D01*
X206207922Y-75948848D01*
X206104357Y-75973587D01*
X205958444Y-76096023D01*
X205916096Y-76193719D01*
X205985707Y-76943418D02*
X205342920Y-76177373D01*
X205667879Y-76712809D02*
X205693881Y-77188289D01*
X205265356Y-76677593D02*
X205802054Y-76724548D01*
X204964315Y-77800468D02*
X205402054Y-77433161D01*
X205183185Y-77616814D02*
X204540397Y-76850770D01*
X204705180Y-76898987D01*
X204839355Y-76910726D01*
X204942920Y-76885986D01*
%TO.C,CCryst2*%
X209943392Y-76952380D02*
X209991011Y-76904761D01*
X210038630Y-76761904D01*
X210038630Y-76666666D01*
X209991011Y-76523809D01*
X209895773Y-76428571D01*
X209800535Y-76380952D01*
X209610059Y-76333333D01*
X209467202Y-76333333D01*
X209276726Y-76380952D01*
X209181488Y-76428571D01*
X209086250Y-76523809D01*
X209038630Y-76666666D01*
X209038630Y-76761904D01*
X209086250Y-76904761D01*
X209133869Y-76952380D01*
X209943392Y-77952380D02*
X209991011Y-77904761D01*
X210038630Y-77761904D01*
X210038630Y-77666666D01*
X209991011Y-77523809D01*
X209895773Y-77428571D01*
X209800535Y-77380952D01*
X209610059Y-77333333D01*
X209467202Y-77333333D01*
X209276726Y-77380952D01*
X209181488Y-77428571D01*
X209086250Y-77523809D01*
X209038630Y-77666666D01*
X209038630Y-77761904D01*
X209086250Y-77904761D01*
X209133869Y-77952380D01*
X210038630Y-78380952D02*
X209371964Y-78380952D01*
X209562440Y-78380952D02*
X209467202Y-78428571D01*
X209419583Y-78476190D01*
X209371964Y-78571428D01*
X209371964Y-78666666D01*
X209371964Y-78904761D02*
X210038630Y-79142857D01*
X209371964Y-79380952D02*
X210038630Y-79142857D01*
X210276726Y-79047619D01*
X210324345Y-79000000D01*
X210371964Y-78904761D01*
X209991011Y-79714285D02*
X210038630Y-79809523D01*
X210038630Y-80000000D01*
X209991011Y-80095238D01*
X209895773Y-80142857D01*
X209848154Y-80142857D01*
X209752916Y-80095238D01*
X209705297Y-80000000D01*
X209705297Y-79857142D01*
X209657678Y-79761904D01*
X209562440Y-79714285D01*
X209514821Y-79714285D01*
X209419583Y-79761904D01*
X209371964Y-79857142D01*
X209371964Y-80000000D01*
X209419583Y-80095238D01*
X209371964Y-80428571D02*
X209371964Y-80809523D01*
X209038630Y-80571428D02*
X209895773Y-80571428D01*
X209991011Y-80619047D01*
X210038630Y-80714285D01*
X210038630Y-80809523D01*
X209133869Y-81095238D02*
X209086250Y-81142857D01*
X209038630Y-81238095D01*
X209038630Y-81476190D01*
X209086250Y-81571428D01*
X209133869Y-81619047D01*
X209229107Y-81666666D01*
X209324345Y-81666666D01*
X209467202Y-81619047D01*
X210038630Y-81047619D01*
X210038630Y-81666666D01*
%TO.C,Cd1*%
X197475297Y-82164642D02*
X197522916Y-82212261D01*
X197665773Y-82259880D01*
X197761011Y-82259880D01*
X197903869Y-82212261D01*
X197999107Y-82117023D01*
X198046726Y-82021785D01*
X198094345Y-81831309D01*
X198094345Y-81688452D01*
X198046726Y-81497976D01*
X197999107Y-81402738D01*
X197903869Y-81307500D01*
X197761011Y-81259880D01*
X197665773Y-81259880D01*
X197522916Y-81307500D01*
X197475297Y-81355119D01*
X196618154Y-82259880D02*
X196618154Y-81259880D01*
X196618154Y-82212261D02*
X196713392Y-82259880D01*
X196903869Y-82259880D01*
X196999107Y-82212261D01*
X197046726Y-82164642D01*
X197094345Y-82069404D01*
X197094345Y-81783690D01*
X197046726Y-81688452D01*
X196999107Y-81640833D01*
X196903869Y-81593214D01*
X196713392Y-81593214D01*
X196618154Y-81640833D01*
X195618154Y-82259880D02*
X196189583Y-82259880D01*
X195903869Y-82259880D02*
X195903869Y-81259880D01*
X195999107Y-81402738D01*
X196094345Y-81497976D01*
X196189583Y-81545595D01*
%TO.C,Cd2*%
X211762797Y-85524642D02*
X211810416Y-85572261D01*
X211953273Y-85619880D01*
X212048511Y-85619880D01*
X212191369Y-85572261D01*
X212286607Y-85477023D01*
X212334226Y-85381785D01*
X212381845Y-85191309D01*
X212381845Y-85048452D01*
X212334226Y-84857976D01*
X212286607Y-84762738D01*
X212191369Y-84667500D01*
X212048511Y-84619880D01*
X211953273Y-84619880D01*
X211810416Y-84667500D01*
X211762797Y-84715119D01*
X210905654Y-85619880D02*
X210905654Y-84619880D01*
X210905654Y-85572261D02*
X211000892Y-85619880D01*
X211191369Y-85619880D01*
X211286607Y-85572261D01*
X211334226Y-85524642D01*
X211381845Y-85429404D01*
X211381845Y-85143690D01*
X211334226Y-85048452D01*
X211286607Y-85000833D01*
X211191369Y-84953214D01*
X211000892Y-84953214D01*
X210905654Y-85000833D01*
X210477083Y-84715119D02*
X210429464Y-84667500D01*
X210334226Y-84619880D01*
X210096130Y-84619880D01*
X210000892Y-84667500D01*
X209953273Y-84715119D01*
X209905654Y-84810357D01*
X209905654Y-84905595D01*
X209953273Y-85048452D01*
X210524702Y-85619880D01*
X209905654Y-85619880D01*
%TO.C,Cd4*%
X200295892Y-99537202D02*
X200343511Y-99489583D01*
X200391130Y-99346726D01*
X200391130Y-99251488D01*
X200343511Y-99108630D01*
X200248273Y-99013392D01*
X200153035Y-98965773D01*
X199962559Y-98918154D01*
X199819702Y-98918154D01*
X199629226Y-98965773D01*
X199533988Y-99013392D01*
X199438750Y-99108630D01*
X199391130Y-99251488D01*
X199391130Y-99346726D01*
X199438750Y-99489583D01*
X199486369Y-99537202D01*
X200391130Y-100394345D02*
X199391130Y-100394345D01*
X200343511Y-100394345D02*
X200391130Y-100299107D01*
X200391130Y-100108630D01*
X200343511Y-100013392D01*
X200295892Y-99965773D01*
X200200654Y-99918154D01*
X199914940Y-99918154D01*
X199819702Y-99965773D01*
X199772083Y-100013392D01*
X199724464Y-100108630D01*
X199724464Y-100299107D01*
X199772083Y-100394345D01*
X199724464Y-101299107D02*
X200391130Y-101299107D01*
X199343511Y-101061011D02*
X200057797Y-100822916D01*
X200057797Y-101441964D01*
%TO.C,processor1*%
X207880952Y-97766964D02*
X207880952Y-98766964D01*
X207880952Y-97814583D02*
X207785714Y-97766964D01*
X207595238Y-97766964D01*
X207500000Y-97814583D01*
X207452380Y-97862202D01*
X207404761Y-97957440D01*
X207404761Y-98243154D01*
X207452380Y-98338392D01*
X207500000Y-98386011D01*
X207595238Y-98433630D01*
X207785714Y-98433630D01*
X207880952Y-98386011D01*
X206976190Y-98433630D02*
X206976190Y-97766964D01*
X206976190Y-97957440D02*
X206928571Y-97862202D01*
X206880952Y-97814583D01*
X206785714Y-97766964D01*
X206690476Y-97766964D01*
X206214285Y-98433630D02*
X206309523Y-98386011D01*
X206357142Y-98338392D01*
X206404761Y-98243154D01*
X206404761Y-97957440D01*
X206357142Y-97862202D01*
X206309523Y-97814583D01*
X206214285Y-97766964D01*
X206071428Y-97766964D01*
X205976190Y-97814583D01*
X205928571Y-97862202D01*
X205880952Y-97957440D01*
X205880952Y-98243154D01*
X205928571Y-98338392D01*
X205976190Y-98386011D01*
X206071428Y-98433630D01*
X206214285Y-98433630D01*
X205023809Y-98386011D02*
X205119047Y-98433630D01*
X205309523Y-98433630D01*
X205404761Y-98386011D01*
X205452380Y-98338392D01*
X205500000Y-98243154D01*
X205500000Y-97957440D01*
X205452380Y-97862202D01*
X205404761Y-97814583D01*
X205309523Y-97766964D01*
X205119047Y-97766964D01*
X205023809Y-97814583D01*
X204214285Y-98386011D02*
X204309523Y-98433630D01*
X204500000Y-98433630D01*
X204595238Y-98386011D01*
X204642857Y-98290773D01*
X204642857Y-97909821D01*
X204595238Y-97814583D01*
X204500000Y-97766964D01*
X204309523Y-97766964D01*
X204214285Y-97814583D01*
X204166666Y-97909821D01*
X204166666Y-98005059D01*
X204642857Y-98100297D01*
X203785714Y-98386011D02*
X203690476Y-98433630D01*
X203500000Y-98433630D01*
X203404761Y-98386011D01*
X203357142Y-98290773D01*
X203357142Y-98243154D01*
X203404761Y-98147916D01*
X203500000Y-98100297D01*
X203642857Y-98100297D01*
X203738095Y-98052678D01*
X203785714Y-97957440D01*
X203785714Y-97909821D01*
X203738095Y-97814583D01*
X203642857Y-97766964D01*
X203500000Y-97766964D01*
X203404761Y-97814583D01*
X202976190Y-98386011D02*
X202880952Y-98433630D01*
X202690476Y-98433630D01*
X202595238Y-98386011D01*
X202547619Y-98290773D01*
X202547619Y-98243154D01*
X202595238Y-98147916D01*
X202690476Y-98100297D01*
X202833333Y-98100297D01*
X202928571Y-98052678D01*
X202976190Y-97957440D01*
X202976190Y-97909821D01*
X202928571Y-97814583D01*
X202833333Y-97766964D01*
X202690476Y-97766964D01*
X202595238Y-97814583D01*
X201976190Y-98433630D02*
X202071428Y-98386011D01*
X202119047Y-98338392D01*
X202166666Y-98243154D01*
X202166666Y-97957440D01*
X202119047Y-97862202D01*
X202071428Y-97814583D01*
X201976190Y-97766964D01*
X201833333Y-97766964D01*
X201738095Y-97814583D01*
X201690476Y-97862202D01*
X201642857Y-97957440D01*
X201642857Y-98243154D01*
X201690476Y-98338392D01*
X201738095Y-98386011D01*
X201833333Y-98433630D01*
X201976190Y-98433630D01*
X201214285Y-98433630D02*
X201214285Y-97766964D01*
X201214285Y-97957440D02*
X201166666Y-97862202D01*
X201119047Y-97814583D01*
X201023809Y-97766964D01*
X200928571Y-97766964D01*
X200071428Y-98433630D02*
X200642857Y-98433630D01*
X200357142Y-98433630D02*
X200357142Y-97433630D01*
X200452380Y-97576488D01*
X200547619Y-97671726D01*
X200642857Y-97719345D01*
%TO.C,Rreset1*%
X195052380Y-99476190D02*
X194576190Y-99142857D01*
X195052380Y-98904761D02*
X194052380Y-98904761D01*
X194052380Y-99285714D01*
X194100000Y-99380952D01*
X194147619Y-99428571D01*
X194242857Y-99476190D01*
X194385714Y-99476190D01*
X194480952Y-99428571D01*
X194528571Y-99380952D01*
X194576190Y-99285714D01*
X194576190Y-98904761D01*
X195052380Y-99904761D02*
X194385714Y-99904761D01*
X194576190Y-99904761D02*
X194480952Y-99952380D01*
X194433333Y-100000000D01*
X194385714Y-100095238D01*
X194385714Y-100190476D01*
X195004761Y-100904761D02*
X195052380Y-100809523D01*
X195052380Y-100619047D01*
X195004761Y-100523809D01*
X194909523Y-100476190D01*
X194528571Y-100476190D01*
X194433333Y-100523809D01*
X194385714Y-100619047D01*
X194385714Y-100809523D01*
X194433333Y-100904761D01*
X194528571Y-100952380D01*
X194623809Y-100952380D01*
X194719047Y-100476190D01*
X195004761Y-101333333D02*
X195052380Y-101428571D01*
X195052380Y-101619047D01*
X195004761Y-101714285D01*
X194909523Y-101761904D01*
X194861904Y-101761904D01*
X194766666Y-101714285D01*
X194719047Y-101619047D01*
X194719047Y-101476190D01*
X194671428Y-101380952D01*
X194576190Y-101333333D01*
X194528571Y-101333333D01*
X194433333Y-101380952D01*
X194385714Y-101476190D01*
X194385714Y-101619047D01*
X194433333Y-101714285D01*
X195004761Y-102571428D02*
X195052380Y-102476190D01*
X195052380Y-102285714D01*
X195004761Y-102190476D01*
X194909523Y-102142857D01*
X194528571Y-102142857D01*
X194433333Y-102190476D01*
X194385714Y-102285714D01*
X194385714Y-102476190D01*
X194433333Y-102571428D01*
X194528571Y-102619047D01*
X194623809Y-102619047D01*
X194719047Y-102142857D01*
X194385714Y-102904761D02*
X194385714Y-103285714D01*
X194052380Y-103047619D02*
X194909523Y-103047619D01*
X195004761Y-103095238D01*
X195052380Y-103190476D01*
X195052380Y-103285714D01*
X195052380Y-104142857D02*
X195052380Y-103571428D01*
X195052380Y-103857142D02*
X194052380Y-103857142D01*
X194195238Y-103761904D01*
X194290476Y-103666666D01*
X194338095Y-103571428D01*
%TO.C,D4*%
X178765476Y-105136904D02*
X178765476Y-104336904D01*
X178575000Y-104336904D01*
X178460714Y-104375000D01*
X178384523Y-104451190D01*
X178346428Y-104527380D01*
X178308333Y-104679761D01*
X178308333Y-104794047D01*
X178346428Y-104946428D01*
X178384523Y-105022619D01*
X178460714Y-105098809D01*
X178575000Y-105136904D01*
X178765476Y-105136904D01*
X177622619Y-104603571D02*
X177622619Y-105136904D01*
X177813095Y-104298809D02*
X178003571Y-104870238D01*
X177508333Y-104870238D01*
%TO.C,Cd3*%
X205058392Y-99537202D02*
X205106011Y-99489583D01*
X205153630Y-99346726D01*
X205153630Y-99251488D01*
X205106011Y-99108630D01*
X205010773Y-99013392D01*
X204915535Y-98965773D01*
X204725059Y-98918154D01*
X204582202Y-98918154D01*
X204391726Y-98965773D01*
X204296488Y-99013392D01*
X204201250Y-99108630D01*
X204153630Y-99251488D01*
X204153630Y-99346726D01*
X204201250Y-99489583D01*
X204248869Y-99537202D01*
X205153630Y-100394345D02*
X204153630Y-100394345D01*
X205106011Y-100394345D02*
X205153630Y-100299107D01*
X205153630Y-100108630D01*
X205106011Y-100013392D01*
X205058392Y-99965773D01*
X204963154Y-99918154D01*
X204677440Y-99918154D01*
X204582202Y-99965773D01*
X204534583Y-100013392D01*
X204486964Y-100108630D01*
X204486964Y-100299107D01*
X204534583Y-100394345D01*
X204153630Y-100775297D02*
X204153630Y-101394345D01*
X204534583Y-101061011D01*
X204534583Y-101203869D01*
X204582202Y-101299107D01*
X204629821Y-101346726D01*
X204725059Y-101394345D01*
X204963154Y-101394345D01*
X205058392Y-101346726D01*
X205106011Y-101299107D01*
X205153630Y-101203869D01*
X205153630Y-100918154D01*
X205106011Y-100822916D01*
X205058392Y-100775297D01*
%TO.C,Rboot1*%
X210458630Y-96440476D02*
X209982440Y-96107142D01*
X210458630Y-95869047D02*
X209458630Y-95869047D01*
X209458630Y-96250000D01*
X209506250Y-96345238D01*
X209553869Y-96392857D01*
X209649107Y-96440476D01*
X209791964Y-96440476D01*
X209887202Y-96392857D01*
X209934821Y-96345238D01*
X209982440Y-96250000D01*
X209982440Y-95869047D01*
X210458630Y-96869047D02*
X209458630Y-96869047D01*
X209839583Y-96869047D02*
X209791964Y-96964285D01*
X209791964Y-97154761D01*
X209839583Y-97250000D01*
X209887202Y-97297619D01*
X209982440Y-97345238D01*
X210268154Y-97345238D01*
X210363392Y-97297619D01*
X210411011Y-97250000D01*
X210458630Y-97154761D01*
X210458630Y-96964285D01*
X210411011Y-96869047D01*
X210458630Y-97916666D02*
X210411011Y-97821428D01*
X210363392Y-97773809D01*
X210268154Y-97726190D01*
X209982440Y-97726190D01*
X209887202Y-97773809D01*
X209839583Y-97821428D01*
X209791964Y-97916666D01*
X209791964Y-98059523D01*
X209839583Y-98154761D01*
X209887202Y-98202380D01*
X209982440Y-98250000D01*
X210268154Y-98250000D01*
X210363392Y-98202380D01*
X210411011Y-98154761D01*
X210458630Y-98059523D01*
X210458630Y-97916666D01*
X210458630Y-98821428D02*
X210411011Y-98726190D01*
X210363392Y-98678571D01*
X210268154Y-98630952D01*
X209982440Y-98630952D01*
X209887202Y-98678571D01*
X209839583Y-98726190D01*
X209791964Y-98821428D01*
X209791964Y-98964285D01*
X209839583Y-99059523D01*
X209887202Y-99107142D01*
X209982440Y-99154761D01*
X210268154Y-99154761D01*
X210363392Y-99107142D01*
X210411011Y-99059523D01*
X210458630Y-98964285D01*
X210458630Y-98821428D01*
X209791964Y-99440476D02*
X209791964Y-99821428D01*
X209458630Y-99583333D02*
X210315773Y-99583333D01*
X210411011Y-99630952D01*
X210458630Y-99726190D01*
X210458630Y-99821428D01*
X210458630Y-100678571D02*
X210458630Y-100107142D01*
X210458630Y-100392857D02*
X209458630Y-100392857D01*
X209601488Y-100297619D01*
X209696726Y-100202380D01*
X209744345Y-100107142D01*
%TO.C,Rusb2*%
X194226190Y-81602380D02*
X194559523Y-81126190D01*
X194797619Y-81602380D02*
X194797619Y-80602380D01*
X194416666Y-80602380D01*
X194321428Y-80650000D01*
X194273809Y-80697619D01*
X194226190Y-80792857D01*
X194226190Y-80935714D01*
X194273809Y-81030952D01*
X194321428Y-81078571D01*
X194416666Y-81126190D01*
X194797619Y-81126190D01*
X193369047Y-80935714D02*
X193369047Y-81602380D01*
X193797619Y-80935714D02*
X193797619Y-81459523D01*
X193750000Y-81554761D01*
X193654761Y-81602380D01*
X193511904Y-81602380D01*
X193416666Y-81554761D01*
X193369047Y-81507142D01*
X192940476Y-81554761D02*
X192845238Y-81602380D01*
X192654761Y-81602380D01*
X192559523Y-81554761D01*
X192511904Y-81459523D01*
X192511904Y-81411904D01*
X192559523Y-81316666D01*
X192654761Y-81269047D01*
X192797619Y-81269047D01*
X192892857Y-81221428D01*
X192940476Y-81126190D01*
X192940476Y-81078571D01*
X192892857Y-80983333D01*
X192797619Y-80935714D01*
X192654761Y-80935714D01*
X192559523Y-80983333D01*
X192083333Y-81602380D02*
X192083333Y-80602380D01*
X192083333Y-80983333D02*
X191988095Y-80935714D01*
X191797619Y-80935714D01*
X191702380Y-80983333D01*
X191654761Y-81030952D01*
X191607142Y-81126190D01*
X191607142Y-81411904D01*
X191654761Y-81507142D01*
X191702380Y-81554761D01*
X191797619Y-81602380D01*
X191988095Y-81602380D01*
X192083333Y-81554761D01*
X191226190Y-80697619D02*
X191178571Y-80650000D01*
X191083333Y-80602380D01*
X190845238Y-80602380D01*
X190750000Y-80650000D01*
X190702380Y-80697619D01*
X190654761Y-80792857D01*
X190654761Y-80888095D01*
X190702380Y-81030952D01*
X191273809Y-81602380D01*
X190654761Y-81602380D01*
%TO.C,D1*%
X160134226Y-86086904D02*
X160134226Y-85286904D01*
X159943750Y-85286904D01*
X159829464Y-85325000D01*
X159753273Y-85401190D01*
X159715178Y-85477380D01*
X159677083Y-85629761D01*
X159677083Y-85744047D01*
X159715178Y-85896428D01*
X159753273Y-85972619D01*
X159829464Y-86048809D01*
X159943750Y-86086904D01*
X160134226Y-86086904D01*
X158915178Y-86086904D02*
X159372321Y-86086904D01*
X159143750Y-86086904D02*
X159143750Y-85286904D01*
X159219940Y-85401190D01*
X159296130Y-85477380D01*
X159372321Y-85515476D01*
%TO.C,CCryst1*%
X200693392Y-76952380D02*
X200741011Y-76904761D01*
X200788630Y-76761904D01*
X200788630Y-76666666D01*
X200741011Y-76523809D01*
X200645773Y-76428571D01*
X200550535Y-76380952D01*
X200360059Y-76333333D01*
X200217202Y-76333333D01*
X200026726Y-76380952D01*
X199931488Y-76428571D01*
X199836250Y-76523809D01*
X199788630Y-76666666D01*
X199788630Y-76761904D01*
X199836250Y-76904761D01*
X199883869Y-76952380D01*
X200693392Y-77952380D02*
X200741011Y-77904761D01*
X200788630Y-77761904D01*
X200788630Y-77666666D01*
X200741011Y-77523809D01*
X200645773Y-77428571D01*
X200550535Y-77380952D01*
X200360059Y-77333333D01*
X200217202Y-77333333D01*
X200026726Y-77380952D01*
X199931488Y-77428571D01*
X199836250Y-77523809D01*
X199788630Y-77666666D01*
X199788630Y-77761904D01*
X199836250Y-77904761D01*
X199883869Y-77952380D01*
X200788630Y-78380952D02*
X200121964Y-78380952D01*
X200312440Y-78380952D02*
X200217202Y-78428571D01*
X200169583Y-78476190D01*
X200121964Y-78571428D01*
X200121964Y-78666666D01*
X200121964Y-78904761D02*
X200788630Y-79142857D01*
X200121964Y-79380952D02*
X200788630Y-79142857D01*
X201026726Y-79047619D01*
X201074345Y-79000000D01*
X201121964Y-78904761D01*
X200741011Y-79714285D02*
X200788630Y-79809523D01*
X200788630Y-80000000D01*
X200741011Y-80095238D01*
X200645773Y-80142857D01*
X200598154Y-80142857D01*
X200502916Y-80095238D01*
X200455297Y-80000000D01*
X200455297Y-79857142D01*
X200407678Y-79761904D01*
X200312440Y-79714285D01*
X200264821Y-79714285D01*
X200169583Y-79761904D01*
X200121964Y-79857142D01*
X200121964Y-80000000D01*
X200169583Y-80095238D01*
X200121964Y-80428571D02*
X200121964Y-80809523D01*
X199788630Y-80571428D02*
X200645773Y-80571428D01*
X200741011Y-80619047D01*
X200788630Y-80714285D01*
X200788630Y-80809523D01*
X200788630Y-81666666D02*
X200788630Y-81095238D01*
X200788630Y-81380952D02*
X199788630Y-81380952D01*
X199931488Y-81285714D01*
X200026726Y-81190476D01*
X200074345Y-81095238D01*
%TO.C,Cu1*%
X195094047Y-94070892D02*
X195141666Y-94118511D01*
X195284523Y-94166130D01*
X195379761Y-94166130D01*
X195522619Y-94118511D01*
X195617857Y-94023273D01*
X195665476Y-93928035D01*
X195713095Y-93737559D01*
X195713095Y-93594702D01*
X195665476Y-93404226D01*
X195617857Y-93308988D01*
X195522619Y-93213750D01*
X195379761Y-93166130D01*
X195284523Y-93166130D01*
X195141666Y-93213750D01*
X195094047Y-93261369D01*
X194236904Y-93499464D02*
X194236904Y-94166130D01*
X194665476Y-93499464D02*
X194665476Y-94023273D01*
X194617857Y-94118511D01*
X194522619Y-94166130D01*
X194379761Y-94166130D01*
X194284523Y-94118511D01*
X194236904Y-94070892D01*
X193236904Y-94166130D02*
X193808333Y-94166130D01*
X193522619Y-94166130D02*
X193522619Y-93166130D01*
X193617857Y-93308988D01*
X193713095Y-93404226D01*
X193808333Y-93451845D01*
D13*
%TO.C,Rusb1*%
X192522936Y-84985000D02*
X192977064Y-84985000D01*
X192522936Y-83515000D02*
X192977064Y-83515000D01*
%TO.C,reset_switch1*%
X205700000Y-105000000D02*
X205250000Y-104550000D01*
X205700000Y-109600000D02*
X205250000Y-110050000D01*
X202300000Y-109600000D02*
X202750000Y-110050000D01*
X201250000Y-108300000D02*
X201250000Y-106300000D01*
X202750000Y-110050000D02*
X205250000Y-110050000D01*
X202300000Y-105000000D02*
X202750000Y-104550000D01*
X202750000Y-104550000D02*
X205250000Y-104550000D01*
X206750000Y-108300000D02*
X206750000Y-106300000D01*
%TO.C,Cusb1*%
X192738748Y-89515000D02*
X193261252Y-89515000D01*
X192738748Y-90985000D02*
X193261252Y-90985000D01*
D12*
%TO.C,D3*%
X183975000Y-86906250D02*
X178175000Y-86906250D01*
X183425000Y-86906250D02*
X183425000Y-89306250D01*
X183900000Y-86906250D02*
X183900000Y-89306250D01*
X178175000Y-86906250D02*
X178175000Y-89306250D01*
X183600000Y-86906250D02*
X183600000Y-89306250D01*
X183775000Y-86906250D02*
X183775000Y-89306250D01*
X184000000Y-89306250D02*
X184000000Y-86906250D01*
X178175000Y-89306250D02*
X183975000Y-89306250D01*
X183250000Y-86906250D02*
X183250000Y-89306250D01*
%TO.C,D2*%
X164200000Y-105956250D02*
X164200000Y-108356250D01*
X164375000Y-105956250D02*
X164375000Y-108356250D01*
X164725000Y-105956250D02*
X164725000Y-108356250D01*
X164950000Y-108356250D02*
X164950000Y-105956250D01*
X164850000Y-105956250D02*
X164850000Y-108356250D01*
X164550000Y-105956250D02*
X164550000Y-108356250D01*
X159125000Y-105956250D02*
X159125000Y-108356250D01*
X164925000Y-105956250D02*
X159125000Y-105956250D01*
X159125000Y-108356250D02*
X164925000Y-108356250D01*
%TO.C,Micro_USB1*%
X175300000Y-79650000D02*
X175300000Y-73150000D01*
X167600000Y-79650000D02*
X175300000Y-79650000D01*
X167600000Y-79650000D02*
X167600000Y-73150000D01*
D13*
%TO.C,clock1*%
X202934761Y-82279549D02*
X200813562Y-79751602D01*
X200813562Y-79751602D02*
X203877739Y-77180451D01*
%TO.C,CCryst2*%
X207171250Y-79261252D02*
X207171250Y-78738748D01*
X208641250Y-79261252D02*
X208641250Y-78738748D01*
%TO.C,Cd1*%
X197117502Y-84222500D02*
X196594998Y-84222500D01*
X197117502Y-82752500D02*
X196594998Y-82752500D01*
%TO.C,Cd2*%
X210882498Y-84222500D02*
X211405002Y-84222500D01*
X210882498Y-82752500D02*
X211405002Y-82752500D01*
%TO.C,Cd4*%
X200883750Y-99894998D02*
X200883750Y-100417502D01*
X202353750Y-99894998D02*
X202353750Y-100417502D01*
%TO.C,processor1*%
X199465000Y-85521250D02*
X198890000Y-85521250D01*
X199465000Y-95741250D02*
X198890000Y-95741250D01*
X198890000Y-95166250D02*
X197600000Y-95166250D01*
X208535000Y-95741250D02*
X209110000Y-95741250D01*
X209110000Y-95741250D02*
X209110000Y-95166250D01*
X198890000Y-85521250D02*
X198890000Y-86096250D01*
X209110000Y-85521250D02*
X209110000Y-86096250D01*
X198890000Y-95741250D02*
X198890000Y-95166250D01*
X208535000Y-85521250D02*
X209110000Y-85521250D01*
%TO.C,Rreset1*%
X195515000Y-101272936D02*
X195515000Y-101727064D01*
X196985000Y-101272936D02*
X196985000Y-101727064D01*
D12*
%TO.C,D4*%
X183250000Y-105956250D02*
X183250000Y-108356250D01*
X183425000Y-105956250D02*
X183425000Y-108356250D01*
X178175000Y-108356250D02*
X183975000Y-108356250D01*
X184000000Y-108356250D02*
X184000000Y-105956250D01*
X183975000Y-105956250D02*
X178175000Y-105956250D01*
X178175000Y-105956250D02*
X178175000Y-108356250D01*
X183775000Y-105956250D02*
X183775000Y-108356250D01*
X183900000Y-105956250D02*
X183900000Y-108356250D01*
X183600000Y-105956250D02*
X183600000Y-108356250D01*
D13*
%TO.C,Cd3*%
X205646250Y-99894998D02*
X205646250Y-100417502D01*
X207116250Y-99894998D02*
X207116250Y-100417502D01*
%TO.C,Rboot1*%
X212391250Y-98022936D02*
X212391250Y-98477064D01*
X210921250Y-98022936D02*
X210921250Y-98477064D01*
%TO.C,Rusb2*%
X192522936Y-80235000D02*
X192977064Y-80235000D01*
X192522936Y-78765000D02*
X192977064Y-78765000D01*
D12*
%TO.C,D1*%
X164375000Y-86906250D02*
X164375000Y-89306250D01*
X164550000Y-86906250D02*
X164550000Y-89306250D01*
X164200000Y-86906250D02*
X164200000Y-89306250D01*
X164725000Y-86906250D02*
X164725000Y-89306250D01*
X159125000Y-89306250D02*
X164925000Y-89306250D01*
X159125000Y-86906250D02*
X159125000Y-89306250D01*
X164950000Y-89306250D02*
X164950000Y-86906250D01*
X164925000Y-86906250D02*
X159125000Y-86906250D01*
X164850000Y-86906250D02*
X164850000Y-89306250D01*
D13*
%TO.C,CCryst1*%
X197921250Y-79261252D02*
X197921250Y-78738748D01*
X199391250Y-79261252D02*
X199391250Y-78738748D01*
%TO.C,Cu1*%
X194736252Y-96128750D02*
X194213748Y-96128750D01*
X194736252Y-94658750D02*
X194213748Y-94658750D01*
%TD*%
D14*
%TO.C,D3*%
X184875000Y-88106250D03*
D15*
X177075000Y-88106250D03*
%TD*%
D14*
%TO.C,D2*%
X165825000Y-107156250D03*
D15*
X158025000Y-107156250D03*
%TD*%
D14*
%TO.C,D4*%
X184875000Y-107156250D03*
D15*
X177075000Y-107156250D03*
%TD*%
D14*
%TO.C,D1*%
X165825000Y-88106250D03*
D15*
X158025000Y-88106250D03*
%TD*%
M02*
