%TF.GenerationSoftware,KiCad,Pcbnew,(6.0.2)*%
%TF.CreationDate,2022-04-17T22:42:43-04:00*%
%TF.ProjectId,macropadfr,6d616372-6f70-4616-9466-722e6b696361,rev?*%
%TF.SameCoordinates,Original*%
%TF.FileFunction,Copper,L1,Top*%
%TF.FilePolarity,Positive*%
%FSLAX46Y46*%
G04 Gerber Fmt 4.6, Leading zero omitted, Abs format (unit mm)*
G04 Created by KiCad (PCBNEW (6.0.2)) date 2022-04-17 22:42:43*
%MOMM*%
%LPD*%
G01*
G04 APERTURE LIST*
G04 Aperture macros list*
%AMHorizOval*
0 Thick line with rounded ends*
0 $1 width*
0 $2 $3 position (X,Y) of the first rounded end (center of the circle)*
0 $4 $5 position (X,Y) of the second rounded end (center of the circle)*
0 Add line between two ends*
20,1,$1,$2,$3,$4,$5,0*
0 Add two circle primitives to create the rounded ends*
1,1,$1,$2,$3*
1,1,$1,$4,$5*%
G04 Aperture macros list end*
%TA.AperFunction,ComponentPad*%
%ADD10HorizOval,2.500000X-0.604462X-0.948815X0.604462X0.948815X0*%
%TD*%
%TA.AperFunction,ComponentPad*%
%ADD11HorizOval,2.500000X-0.019724X-0.289328X0.019724X0.289328X0*%
%TD*%
%TA.AperFunction,ComponentPad*%
%ADD12R,1.600000X1.600000*%
%TD*%
%TA.AperFunction,ComponentPad*%
%ADD13C,1.600000*%
%TD*%
%TA.AperFunction,ComponentPad*%
%ADD14O,1.500000X4.000000*%
%TD*%
%TA.AperFunction,ViaPad*%
%ADD15C,0.800000*%
%TD*%
%TA.AperFunction,Conductor*%
%ADD16C,0.250000*%
%TD*%
G04 APERTURE END LIST*
D10*
%TO.P,K1,1*%
%TO.N,/col0*%
X158670000Y-79823750D03*
D11*
%TO.P,K1,2*%
%TO.N,/toD1*%
X164445000Y-78553750D03*
%TD*%
D10*
%TO.P,K4,1*%
%TO.N,/col1*%
X177720000Y-98873750D03*
D11*
%TO.P,K4,2*%
%TO.N,/toD4*%
X183495000Y-97603750D03*
%TD*%
D10*
%TO.P,K3,1*%
%TO.N,/col1*%
X177720000Y-79823750D03*
D11*
%TO.P,K3,2*%
%TO.N,/toD2*%
X183495000Y-78553750D03*
%TD*%
D10*
%TO.P,K2,1*%
%TO.N,/col0*%
X158670000Y-98873750D03*
D11*
%TO.P,K2,2*%
%TO.N,/toD3*%
X164445000Y-97603750D03*
%TD*%
D12*
%TO.P,D3,1,K*%
%TO.N,/row0*%
X184875000Y-88106250D03*
D13*
%TO.P,D3,2,A*%
%TO.N,/toD2*%
X177075000Y-88106250D03*
%TD*%
D12*
%TO.P,D2,1,K*%
%TO.N,/row1*%
X165825000Y-107156250D03*
D13*
%TO.P,D2,2,A*%
%TO.N,/toD3*%
X158025000Y-107156250D03*
%TD*%
D14*
%TO.P,Micro_USB1,6,SHIELD*%
%TO.N,GND*%
X175100000Y-76850000D03*
X167800000Y-76850000D03*
%TD*%
D12*
%TO.P,D4,1,K*%
%TO.N,/row1*%
X184875000Y-107156250D03*
D13*
%TO.P,D4,2,A*%
%TO.N,/toD4*%
X177075000Y-107156250D03*
%TD*%
D12*
%TO.P,D1,1,K*%
%TO.N,/row0*%
X165825000Y-88106250D03*
D13*
%TO.P,D1,2,A*%
%TO.N,/toD1*%
X158025000Y-88106250D03*
%TD*%
D15*
%TO.N,/row0*%
X192500000Y-96750000D03*
X201512299Y-97931750D03*
%TO.N,/col0*%
X191000000Y-100250000D03*
X203068546Y-100318545D03*
%TO.N,/col1*%
X204000000Y-100750000D03*
%TO.N,Net-(Rreset1-Pad2)*%
X205056750Y-101000000D03*
X201000000Y-87750000D03*
%TO.N,Net-(Cusb1-Pad2)*%
X195250000Y-90250000D03*
X197000000Y-90250000D03*
%TO.N,GND*%
X192400980Y-88207253D03*
X201570333Y-92500333D03*
X192406454Y-93343545D03*
X195756039Y-87981441D03*
X206220000Y-89290000D03*
X207168750Y-102393750D03*
X206520000Y-87778356D03*
X202893549Y-102881049D03*
X200595735Y-91425735D03*
%TD*%
D16*
%TO.N,/toD1*%
X160511954Y-88106250D02*
X158025000Y-88106250D01*
X164445000Y-84173204D02*
X160511954Y-88106250D01*
X164445000Y-78553750D02*
X164445000Y-84173204D01*
%TO.N,/row0*%
X192500000Y-96750000D02*
X200274598Y-96750000D01*
X200330549Y-96750000D02*
X201512299Y-97931750D01*
X200274598Y-96750000D02*
X200330549Y-96750000D01*
%TO.N,/toD3*%
X164445000Y-97603750D02*
X164445000Y-103223204D01*
X164445000Y-103223204D02*
X160511954Y-107156250D01*
X160511954Y-107156250D02*
X158025000Y-107156250D01*
%TO.N,/toD2*%
X183495000Y-78553750D02*
X183495000Y-84173204D01*
X179561954Y-88106250D02*
X177075000Y-88106250D01*
X183495000Y-84173204D02*
X179561954Y-88106250D01*
%TO.N,/toD4*%
X183495000Y-104755000D02*
X181093750Y-107156250D01*
X183495000Y-97603750D02*
X183495000Y-104755000D01*
X181093750Y-107156250D02*
X177075000Y-107156250D01*
%TO.N,/col0*%
X156900489Y-97104239D02*
X158670000Y-98873750D01*
X156900489Y-87640461D02*
X156900489Y-97104239D01*
X203000001Y-100250000D02*
X191000000Y-100250000D01*
X203068546Y-100318545D02*
X203000001Y-100250000D01*
X158670000Y-85870950D02*
X156900489Y-87640461D01*
X158670000Y-79823750D02*
X158670000Y-85870950D01*
%TO.N,/col1*%
X177720000Y-85870950D02*
X175950489Y-87640461D01*
X175950489Y-87640461D02*
X175950489Y-97104239D01*
X184183774Y-95699190D02*
X180894560Y-95699190D01*
X175950489Y-97104239D02*
X177720000Y-98873750D01*
X204000000Y-100750000D02*
X201130829Y-103619171D01*
X177720000Y-79823750D02*
X177720000Y-85870950D01*
X201130829Y-103619171D02*
X192103755Y-103619171D01*
X192103755Y-103619171D02*
X184183774Y-95699190D01*
X180894560Y-95699190D02*
X177720000Y-98873750D01*
%TO.N,Net-(Rreset1-Pad2)*%
X205056750Y-91806750D02*
X201000000Y-87750000D01*
X205056750Y-101000000D02*
X205056750Y-91806750D01*
%TO.N,Net-(Cusb1-Pad2)*%
X195250000Y-90250000D02*
X197000000Y-90250000D01*
%TO.N,GND*%
X206220000Y-88078356D02*
X206520000Y-87778356D01*
X192406454Y-91331026D02*
X195756039Y-87981441D01*
X200595735Y-91425735D02*
X200595735Y-91525735D01*
X192400980Y-88207253D02*
X192626792Y-87981441D01*
X206220000Y-89290000D02*
X206220000Y-88078356D01*
X203380848Y-102393750D02*
X207168750Y-102393750D01*
X192626792Y-87981441D02*
X195756039Y-87981441D01*
X202893549Y-102881049D02*
X203380848Y-102393750D01*
X200595735Y-91525735D02*
X201570333Y-92500333D01*
X192406454Y-93343545D02*
X192406454Y-91331026D01*
%TD*%
M02*
